G04 #@! TF.FileFunction,Other,User*
%FSLAX46Y46*%
G04 Gerber Fmt 4.6, Leading zero omitted, Abs format (unit mm)*
G04 Created by KiCad (PCBNEW 4.0.1-3.201512221402+6198~38~ubuntu14.04.1-stable) date Sat 13 Aug 2016 05:43:18 PM PDT*
%MOMM*%
G01*
G04 APERTURE LIST*
%ADD10C,0.100000*%
%ADD11C,0.152400*%
%ADD12C,0.050000*%
G04 APERTURE END LIST*
D10*
D11*
X134620000Y-104775000D02*
X134620000Y-122555000D01*
X170180000Y-104775000D02*
X134620000Y-104775000D01*
X170180000Y-122555000D02*
X170180000Y-104775000D01*
X134620000Y-122555000D02*
X170180000Y-122555000D01*
D12*
X163548000Y-125504000D02*
X147348000Y-125504000D01*
X163548000Y-129004000D02*
X147348000Y-129004000D01*
X163548000Y-125504000D02*
X163548000Y-129004000D01*
X147348000Y-125504000D02*
X147348000Y-129004000D01*
X104527666Y-125578528D02*
X107427666Y-125578528D01*
X104527666Y-124078528D02*
X104527666Y-125578528D01*
X107427666Y-124078528D02*
X107427666Y-125578528D01*
X104527666Y-124078528D02*
X107427666Y-124066528D01*
X104468000Y-121133528D02*
X107368000Y-121133528D01*
X104468000Y-119633528D02*
X104468000Y-121133528D01*
X107368000Y-119633528D02*
X107368000Y-121133528D01*
X104468000Y-119633528D02*
X107368000Y-119621528D01*
X156272000Y-124956000D02*
X159172000Y-124956000D01*
X156272000Y-123456000D02*
X156272000Y-124956000D01*
X159172000Y-123456000D02*
X159172000Y-124956000D01*
X156272000Y-123456000D02*
X159172000Y-123456000D01*
X112102666Y-124078528D02*
X109202666Y-124078528D01*
X112102666Y-125578528D02*
X112102666Y-124078528D01*
X109202666Y-125578528D02*
X109202666Y-124078528D01*
X112102666Y-125578528D02*
X109202666Y-125578528D01*
X129679000Y-120204000D02*
X129679000Y-123104000D01*
X131179000Y-120204000D02*
X129679000Y-120204000D01*
X131179000Y-123104000D02*
X129679000Y-123104000D01*
X131179000Y-120204000D02*
X131179000Y-123104000D01*
X123456000Y-120228000D02*
X123456000Y-123128000D01*
X124956000Y-120228000D02*
X123456000Y-120228000D01*
X124956000Y-123128000D02*
X123456000Y-123128000D01*
X124956000Y-120228000D02*
X124956000Y-123128000D01*
X116979000Y-120204000D02*
X116979000Y-123104000D01*
X118479000Y-120204000D02*
X116979000Y-120204000D01*
X118479000Y-123104000D02*
X116979000Y-123104000D01*
X118479000Y-120204000D02*
X118479000Y-123104000D01*
X112102666Y-119633528D02*
X109202666Y-119633528D01*
X112102666Y-121133528D02*
X112102666Y-119633528D01*
X109202666Y-121133528D02*
X109202666Y-119633528D01*
X112102666Y-121133528D02*
X109202666Y-121133528D01*
X128905000Y-129667000D02*
X131953000Y-129667000D01*
X128905000Y-124587000D02*
X128905000Y-129667000D01*
X131953000Y-124587000D02*
X128905000Y-124587000D01*
X131953000Y-129667000D02*
X131953000Y-124587000D01*
X122682000Y-129667000D02*
X125730000Y-129667000D01*
X122682000Y-124587000D02*
X122682000Y-129667000D01*
X125730000Y-124587000D02*
X122682000Y-124587000D01*
X125730000Y-129667000D02*
X125730000Y-124587000D01*
X116205000Y-129667000D02*
X119253000Y-129667000D01*
X116205000Y-124587000D02*
X116205000Y-129667000D01*
X119253000Y-124587000D02*
X116205000Y-124587000D01*
X119253000Y-129667000D02*
X119253000Y-124587000D01*
X98353500Y-103798500D02*
X98353500Y-116298500D01*
X114603500Y-103798500D02*
X98353500Y-103798500D01*
X114603500Y-116298500D02*
X98353500Y-116298500D01*
X114603500Y-103798500D02*
X114603500Y-116298500D01*
M02*
