G04 #@! TF.FileFunction,Copper,L1,Top,Signal*
%FSLAX46Y46*%
G04 Gerber Fmt 4.6, Leading zero omitted, Abs format (unit mm)*
G04 Created by KiCad (PCBNEW 4.0.1-3.201512221402+6198~38~ubuntu14.04.1-stable) date Sat 13 Aug 2016 05:43:18 PM PDT*
%MOMM*%
G01*
G04 APERTURE LIST*
%ADD10C,0.100000*%
%ADD11C,1.727200*%
%ADD12R,1.727200X2.032000*%
%ADD13O,1.727200X2.032000*%
%ADD14O,1.800000X2.600000*%
%ADD15C,3.000000*%
%ADD16R,0.800000X0.750000*%
%ADD17R,0.750000X0.800000*%
%ADD18R,2.032000X1.727200*%
%ADD19O,2.032000X1.727200*%
%ADD20R,1.700000X0.800000*%
%ADD21R,0.900000X1.400000*%
%ADD22R,1.150000X1.200000*%
%ADD23R,1.200000X1.450000*%
%ADD24R,1.000000X0.700000*%
%ADD25R,0.700000X1.000000*%
%ADD26C,0.762000*%
%ADD27C,0.330200*%
%ADD28C,0.508000*%
%ADD29C,0.762000*%
%ADD30C,0.254000*%
G04 APERTURE END LIST*
D10*
D11*
X168910000Y-106045000D03*
X166370000Y-106045000D03*
X163830000Y-106045000D03*
X161290000Y-106045000D03*
X158750000Y-106045000D03*
X156210000Y-106045000D03*
X153670000Y-106045000D03*
X151130000Y-106045000D03*
X148590000Y-106045000D03*
X146050000Y-106045000D03*
X143510000Y-106045000D03*
X140970000Y-106045000D03*
X138430000Y-106045000D03*
X135890000Y-106045000D03*
X135890000Y-108585000D03*
X135890000Y-111125000D03*
X135890000Y-113665000D03*
X135890000Y-116205000D03*
X135890000Y-118745000D03*
X135890000Y-121285000D03*
X143510000Y-121285000D03*
X163830000Y-121285000D03*
X148590000Y-121285000D03*
X146050000Y-121285000D03*
X166370000Y-121285000D03*
X158750000Y-121285000D03*
X168910000Y-121285000D03*
X156210000Y-121285000D03*
X153670000Y-121285000D03*
X151130000Y-121285000D03*
X161290000Y-121285000D03*
X138430000Y-121285000D03*
X140970000Y-121285000D03*
D12*
X161798000Y-127254000D03*
D13*
X159258000Y-127254000D03*
X156718000Y-127254000D03*
X154178000Y-127254000D03*
X151638000Y-127254000D03*
X149098000Y-127254000D03*
D14*
X169801540Y-99855020D03*
X167261540Y-99855020D03*
X164721540Y-99855020D03*
X162181540Y-99855020D03*
X159641540Y-99855020D03*
X157101540Y-99855020D03*
X154561540Y-99855020D03*
X152021540Y-99855020D03*
X149481540Y-99855020D03*
X146941540Y-99855020D03*
X144401540Y-99855020D03*
X141861540Y-99855020D03*
X139321540Y-99855020D03*
X136781540Y-99855020D03*
X134241540Y-99855020D03*
X131701540Y-99855020D03*
D15*
X175300640Y-99855020D03*
X175300640Y-130855720D03*
X100302060Y-130855720D03*
X100302060Y-99855020D03*
D16*
X105227666Y-124828528D03*
X106727666Y-124828528D03*
X105168000Y-120383528D03*
X106668000Y-120383528D03*
X156972000Y-124206000D03*
X158472000Y-124206000D03*
X111402666Y-124828528D03*
X109902666Y-124828528D03*
D17*
X130429000Y-120904000D03*
X130429000Y-122404000D03*
X124206000Y-120928000D03*
X124206000Y-122428000D03*
X117729000Y-120904000D03*
X117729000Y-122404000D03*
D18*
X122936000Y-99695000D03*
D19*
X122936000Y-102235000D03*
X122936000Y-104775000D03*
D16*
X111402666Y-120383528D03*
X109902666Y-120383528D03*
D20*
X130429000Y-128749000D03*
X130429000Y-125349000D03*
X124206000Y-128749000D03*
X124206000Y-125349000D03*
X117729000Y-128749000D03*
X117729000Y-125349000D03*
D21*
X109253500Y-115149900D03*
D22*
X109390000Y-104885000D03*
D23*
X111553500Y-115124900D03*
D22*
X111990000Y-104885000D03*
D24*
X113030000Y-107485000D03*
X113030000Y-106385000D03*
X113030000Y-108585000D03*
X113030000Y-109685000D03*
X113030000Y-110785000D03*
X113030000Y-114085000D03*
X113030000Y-112985000D03*
X113030000Y-111885000D03*
D25*
X110403500Y-115349900D03*
D26*
X128016000Y-111252000D03*
X124206000Y-117505120D03*
X120650000Y-112014000D03*
X118829000Y-109685000D03*
X124206000Y-123698000D03*
X132334000Y-125222000D03*
X120142000Y-122682000D03*
D27*
X161290000Y-104140000D02*
X162181540Y-103248460D01*
X162181540Y-103248460D02*
X162181540Y-99855020D01*
X161290000Y-106045000D02*
X161290000Y-104140000D01*
X158750000Y-104140000D02*
X159641540Y-103248460D01*
X159641540Y-103248460D02*
X159641540Y-99855020D01*
X158750000Y-106045000D02*
X158750000Y-104140000D01*
X156210000Y-104140000D02*
X157101540Y-103248460D01*
X157101540Y-103248460D02*
X157101540Y-99855020D01*
X156210000Y-106045000D02*
X156210000Y-104140000D01*
X139192000Y-123444000D02*
X139741299Y-122894701D01*
X139741299Y-122894701D02*
X139741299Y-119973701D01*
X139741299Y-119973701D02*
X152806401Y-106908599D01*
X152806401Y-106908599D02*
X153670000Y-106045000D01*
X136230522Y-123444000D02*
X139192000Y-123444000D01*
X133858000Y-119888000D02*
X133858000Y-121071478D01*
X133858000Y-121071478D02*
X136230522Y-123444000D01*
X130556000Y-116586000D02*
X133858000Y-119888000D01*
X118939994Y-116586000D02*
X130556000Y-116586000D01*
X111402666Y-124828528D02*
X111402666Y-124123328D01*
X111402666Y-124123328D02*
X118939994Y-116586000D01*
X147016520Y-102870000D02*
X147955000Y-102870000D01*
X147955000Y-102870000D02*
X151130000Y-106045000D01*
X144401540Y-99855020D02*
X144401540Y-100255020D01*
X144401540Y-100255020D02*
X147016520Y-102870000D01*
X145238520Y-103632000D02*
X146177000Y-103632000D01*
X146177000Y-103632000D02*
X148590000Y-106045000D01*
X141861540Y-99855020D02*
X141861540Y-100255020D01*
X141861540Y-100255020D02*
X145238520Y-103632000D01*
X143129000Y-103124000D02*
X142190520Y-103124000D01*
X142190520Y-103124000D02*
X139321540Y-100255020D01*
X139321540Y-100255020D02*
X139321540Y-99855020D01*
X146050000Y-106045000D02*
X143129000Y-103124000D01*
X139650520Y-103124000D02*
X140589000Y-103124000D01*
X140589000Y-103124000D02*
X143510000Y-106045000D01*
X136781540Y-99855020D02*
X136781540Y-100255020D01*
X136781540Y-100255020D02*
X139650520Y-103124000D01*
X140970000Y-109302598D02*
X140970000Y-106045000D01*
X137836299Y-112436299D02*
X140970000Y-109302598D01*
X124206000Y-114300000D02*
X126069701Y-112436299D01*
X126069701Y-112436299D02*
X137836299Y-112436299D01*
X120142000Y-114300000D02*
X124206000Y-114300000D01*
X118827000Y-112985000D02*
X120142000Y-114300000D01*
X113030000Y-112985000D02*
X118827000Y-112985000D01*
X120904000Y-113284000D02*
X120396000Y-113284000D01*
X113030000Y-111885000D02*
X118997000Y-111885000D01*
X118997000Y-111885000D02*
X120396000Y-113284000D01*
X124291701Y-109896299D02*
X120904000Y-113284000D01*
X138430000Y-106045000D02*
X138430000Y-107863478D01*
X138430000Y-107863478D02*
X136397179Y-109896299D01*
X136397179Y-109896299D02*
X124291701Y-109896299D01*
X113030000Y-107485000D02*
X134450000Y-107485000D01*
X134450000Y-107485000D02*
X135890000Y-106045000D01*
X129159000Y-111125000D02*
X128143000Y-111125000D01*
X128143000Y-111125000D02*
X128016000Y-111252000D01*
D28*
X124206000Y-120928000D02*
X124206000Y-117505120D01*
X134668686Y-111125000D02*
X129159000Y-111125000D01*
X114292000Y-110785000D02*
X119421000Y-110785000D01*
X119421000Y-110785000D02*
X120650000Y-112014000D01*
D29*
X130429000Y-120904000D02*
X124230000Y-120904000D01*
X124230000Y-120904000D02*
X124206000Y-120928000D01*
X117729000Y-120904000D02*
X124182000Y-120904000D01*
X124182000Y-120904000D02*
X124206000Y-120928000D01*
X135890000Y-111125000D02*
X134668686Y-111125000D01*
X114292000Y-110785000D02*
X113030000Y-110785000D01*
D28*
X113030000Y-109685000D02*
X118829000Y-109685000D01*
D27*
X124206000Y-123698000D02*
X124206000Y-122428000D01*
X124206000Y-125349000D02*
X124206000Y-123698000D01*
X151638000Y-127254000D02*
X151638000Y-127101600D01*
X151638000Y-127101600D02*
X148590000Y-124053600D01*
X148590000Y-124053600D02*
X148590000Y-121285000D01*
X132334000Y-125222000D02*
X130556000Y-125222000D01*
X130556000Y-125222000D02*
X130429000Y-125349000D01*
X130429000Y-125349000D02*
X130429000Y-122404000D01*
X156718000Y-127254000D02*
X156718000Y-127101600D01*
X156718000Y-127101600D02*
X158472000Y-125347600D01*
X158472000Y-125347600D02*
X158472000Y-124911200D01*
X158472000Y-124911200D02*
X158472000Y-124206000D01*
X158750000Y-121285000D02*
X158750000Y-123928000D01*
X158750000Y-123928000D02*
X158472000Y-124206000D01*
D29*
X122936000Y-104775000D02*
X131383560Y-104775000D01*
X131383560Y-104775000D02*
X134241540Y-101917020D01*
X134241540Y-101917020D02*
X134241540Y-99855020D01*
X171450000Y-104902000D02*
X171450000Y-118745000D01*
X171450000Y-118745000D02*
X168910000Y-121285000D01*
X169672000Y-103124000D02*
X171450000Y-104902000D01*
X168468520Y-103124000D02*
X169672000Y-103124000D01*
X167261540Y-99855020D02*
X167261540Y-101917020D01*
X167261540Y-101917020D02*
X168468520Y-103124000D01*
X161798000Y-127254000D02*
X163423600Y-127254000D01*
X163423600Y-127254000D02*
X168910000Y-121767600D01*
X168910000Y-121767600D02*
X168910000Y-121285000D01*
D27*
X156210000Y-121285000D02*
X156210000Y-123444000D01*
X156210000Y-123444000D02*
X156972000Y-124206000D01*
X151130000Y-121285000D02*
X151130000Y-122506314D01*
X151130000Y-122506314D02*
X154178000Y-125554314D01*
X154178000Y-125554314D02*
X154178000Y-127254000D01*
X137566401Y-120421401D02*
X138430000Y-121285000D01*
X137118701Y-119973701D02*
X137566401Y-120421401D01*
X131382311Y-116055789D02*
X135300223Y-119973701D01*
X115755405Y-116055789D02*
X131382311Y-116055789D01*
X111427666Y-120383528D02*
X115755405Y-116055789D01*
X111402666Y-120383528D02*
X111427666Y-120383528D01*
X135300223Y-119973701D02*
X137118701Y-119973701D01*
X117729000Y-122404000D02*
X119864000Y-122404000D01*
X119864000Y-122404000D02*
X120142000Y-122682000D01*
X117729000Y-125349000D02*
X117729000Y-122404000D01*
X164721540Y-99855020D02*
X164721540Y-99455020D01*
X164721540Y-99455020D02*
X163056520Y-97790000D01*
X163056520Y-97790000D02*
X129692400Y-97790000D01*
X129692400Y-97790000D02*
X125247400Y-102235000D01*
X125247400Y-102235000D02*
X122936000Y-102235000D01*
X106727666Y-124828528D02*
X109902666Y-124828528D01*
X106668000Y-120383528D02*
X109902666Y-120383528D01*
D30*
G36*
X124915988Y-101434900D02*
X124353854Y-101434900D01*
X124180415Y-101175330D01*
X124158220Y-101160500D01*
X124311698Y-101096927D01*
X124490327Y-100918299D01*
X124587000Y-100684910D01*
X124587000Y-99980750D01*
X124428250Y-99822000D01*
X123063000Y-99822000D01*
X123063000Y-99842000D01*
X122809000Y-99842000D01*
X122809000Y-99822000D01*
X121443750Y-99822000D01*
X121285000Y-99980750D01*
X121285000Y-100684910D01*
X121381673Y-100918299D01*
X121560302Y-101096927D01*
X121713780Y-101160500D01*
X121691585Y-101175330D01*
X121366729Y-101661511D01*
X121252655Y-102235000D01*
X121366729Y-102808489D01*
X121691585Y-103294670D01*
X122006366Y-103505000D01*
X121691585Y-103715330D01*
X121366729Y-104201511D01*
X121252655Y-104775000D01*
X121366729Y-105348489D01*
X121691585Y-105834670D01*
X122177766Y-106159526D01*
X122751255Y-106273600D01*
X123120745Y-106273600D01*
X123694234Y-106159526D01*
X124180415Y-105834670D01*
X124209594Y-105791000D01*
X131383560Y-105791000D01*
X131738909Y-105720317D01*
X131772367Y-105713662D01*
X132101980Y-105493420D01*
X134959960Y-102635441D01*
X135180202Y-102305827D01*
X135215016Y-102130804D01*
X135257540Y-101917020D01*
X135257540Y-101424716D01*
X135326949Y-101378338D01*
X135511540Y-101102078D01*
X135696131Y-101378338D01*
X136194121Y-101711084D01*
X136781540Y-101827929D01*
X137149704Y-101754696D01*
X139084764Y-103689756D01*
X139344335Y-103863196D01*
X139650520Y-103924100D01*
X140257588Y-103924100D01*
X140879809Y-104546321D01*
X140673218Y-104546141D01*
X140122220Y-104773808D01*
X139700290Y-105195003D01*
X139699905Y-105195931D01*
X139279997Y-104775290D01*
X138729398Y-104546661D01*
X138133218Y-104546141D01*
X137582220Y-104773808D01*
X137160290Y-105195003D01*
X137159905Y-105195931D01*
X136739997Y-104775290D01*
X136189398Y-104546661D01*
X135593218Y-104546141D01*
X135042220Y-104773808D01*
X134620290Y-105195003D01*
X134391661Y-105745602D01*
X134391141Y-106341782D01*
X134411773Y-106391715D01*
X134118588Y-106684900D01*
X114177440Y-106684900D01*
X114177440Y-106035000D01*
X114133162Y-105799683D01*
X113994090Y-105583559D01*
X113781890Y-105438569D01*
X113530000Y-105387560D01*
X113212440Y-105387560D01*
X113212440Y-104285000D01*
X113168162Y-104049683D01*
X113029090Y-103833559D01*
X112816890Y-103688569D01*
X112565000Y-103637560D01*
X111415000Y-103637560D01*
X111179683Y-103681838D01*
X110963559Y-103820910D01*
X110818569Y-104033110D01*
X110767560Y-104285000D01*
X110767560Y-105485000D01*
X110811838Y-105720317D01*
X110950910Y-105936441D01*
X111163110Y-106081431D01*
X111415000Y-106132440D01*
X111882560Y-106132440D01*
X111882560Y-106735000D01*
X111921574Y-106942342D01*
X111882560Y-107135000D01*
X111882560Y-107835000D01*
X111921858Y-108043850D01*
X111895000Y-108108691D01*
X111895000Y-108299250D01*
X112053750Y-108458000D01*
X112409312Y-108458000D01*
X112530000Y-108482440D01*
X113530000Y-108482440D01*
X113659887Y-108458000D01*
X114006250Y-108458000D01*
X114165000Y-108299250D01*
X114165000Y-108285100D01*
X134391869Y-108285100D01*
X134391661Y-108285602D01*
X134391141Y-108881782D01*
X134479736Y-109096199D01*
X124291701Y-109096199D01*
X123985516Y-109157103D01*
X123725945Y-109330543D01*
X121542651Y-111513837D01*
X121511825Y-111439234D01*
X121226269Y-111153179D01*
X120918701Y-111025465D01*
X120049618Y-110156382D01*
X119969274Y-110102698D01*
X119802060Y-109990969D01*
X119844824Y-109887982D01*
X119845176Y-109483792D01*
X119690825Y-109110234D01*
X119405269Y-108824179D01*
X119031982Y-108669176D01*
X118627792Y-108668824D01*
X118320003Y-108796000D01*
X114090250Y-108796000D01*
X114006250Y-108712000D01*
X113650688Y-108712000D01*
X113530000Y-108687560D01*
X112530000Y-108687560D01*
X112400113Y-108712000D01*
X112053750Y-108712000D01*
X111895000Y-108870750D01*
X111895000Y-109061309D01*
X111923870Y-109131007D01*
X111882560Y-109335000D01*
X111882560Y-110035000D01*
X111921574Y-110242342D01*
X111882560Y-110435000D01*
X111882560Y-111135000D01*
X111921574Y-111342342D01*
X111882560Y-111535000D01*
X111882560Y-112235000D01*
X111921574Y-112442342D01*
X111882560Y-112635000D01*
X111882560Y-113335000D01*
X111921574Y-113542342D01*
X111882560Y-113735000D01*
X111882560Y-113752460D01*
X110953500Y-113752460D01*
X110718183Y-113796738D01*
X110502059Y-113935810D01*
X110357069Y-114148010D01*
X110346043Y-114202460D01*
X110298861Y-114202460D01*
X110167590Y-113998459D01*
X109955390Y-113853469D01*
X109703500Y-113802460D01*
X108803500Y-113802460D01*
X108568183Y-113846738D01*
X108352059Y-113985810D01*
X108207069Y-114198010D01*
X108156060Y-114449900D01*
X108156060Y-115849900D01*
X108200338Y-116085217D01*
X108339410Y-116301341D01*
X108551610Y-116446331D01*
X108803500Y-116497340D01*
X109703500Y-116497340D01*
X109884924Y-116463203D01*
X110053500Y-116497340D01*
X110753500Y-116497340D01*
X110857171Y-116477833D01*
X110953500Y-116497340D01*
X112153500Y-116497340D01*
X112388817Y-116453062D01*
X112604941Y-116313990D01*
X112749931Y-116101790D01*
X112800940Y-115849900D01*
X112800940Y-115082440D01*
X113530000Y-115082440D01*
X113765317Y-115038162D01*
X113981441Y-114899090D01*
X114126431Y-114686890D01*
X114177440Y-114435000D01*
X114177440Y-113785100D01*
X118495588Y-113785100D01*
X119576244Y-114865756D01*
X119835815Y-115039196D01*
X120142000Y-115100100D01*
X124206000Y-115100100D01*
X124512185Y-115039196D01*
X124771756Y-114865756D01*
X126401113Y-113236399D01*
X134451251Y-113236399D01*
X134379752Y-113433030D01*
X134405942Y-114028635D01*
X134583484Y-114457259D01*
X134836195Y-114539200D01*
X135710395Y-113665000D01*
X135696253Y-113650858D01*
X135875858Y-113471253D01*
X135890000Y-113485395D01*
X135904143Y-113471253D01*
X136083748Y-113650858D01*
X136069605Y-113665000D01*
X136943805Y-114539200D01*
X137196516Y-114457259D01*
X137400248Y-113896970D01*
X137374058Y-113301365D01*
X137347148Y-113236399D01*
X137836299Y-113236399D01*
X138142484Y-113175495D01*
X138402055Y-113002055D01*
X141535756Y-109868354D01*
X141709196Y-109608783D01*
X141734411Y-109482018D01*
X141770100Y-109302598D01*
X141770100Y-107335893D01*
X141817780Y-107316192D01*
X142239710Y-106894997D01*
X142240095Y-106894069D01*
X142660003Y-107314710D01*
X143210602Y-107543339D01*
X143806782Y-107543859D01*
X144357780Y-107316192D01*
X144779710Y-106894997D01*
X144780095Y-106894069D01*
X145200003Y-107314710D01*
X145750602Y-107543339D01*
X146346782Y-107543859D01*
X146897780Y-107316192D01*
X147319710Y-106894997D01*
X147320095Y-106894069D01*
X147740003Y-107314710D01*
X148290602Y-107543339D01*
X148886782Y-107543859D01*
X149437780Y-107316192D01*
X149859710Y-106894997D01*
X149860095Y-106894069D01*
X150280003Y-107314710D01*
X150830602Y-107543339D01*
X151039966Y-107543522D01*
X139175543Y-119407945D01*
X139002103Y-119667516D01*
X138959406Y-119882169D01*
X138729398Y-119786661D01*
X138133218Y-119786141D01*
X138083285Y-119806773D01*
X137684457Y-119407945D01*
X137424886Y-119234505D01*
X137318211Y-119213286D01*
X137388339Y-119044398D01*
X137388859Y-118448218D01*
X137161192Y-117897220D01*
X136739997Y-117475290D01*
X136739069Y-117474905D01*
X137159710Y-117054997D01*
X137388339Y-116504398D01*
X137388859Y-115908218D01*
X137161192Y-115357220D01*
X136739997Y-114935290D01*
X136699463Y-114918459D01*
X136764200Y-114718805D01*
X135890000Y-113844605D01*
X135015800Y-114718805D01*
X135080399Y-114918033D01*
X135042220Y-114933808D01*
X134620290Y-115355003D01*
X134391661Y-115905602D01*
X134391141Y-116501782D01*
X134618808Y-117052780D01*
X135040003Y-117474710D01*
X135040931Y-117475095D01*
X134620290Y-117895003D01*
X134541877Y-118083843D01*
X131948067Y-115490033D01*
X131688496Y-115316593D01*
X131382311Y-115255689D01*
X115755405Y-115255689D01*
X115449220Y-115316593D01*
X115189649Y-115490033D01*
X111318594Y-119361088D01*
X111002666Y-119361088D01*
X110767349Y-119405366D01*
X110652688Y-119479148D01*
X110554556Y-119412097D01*
X110302666Y-119361088D01*
X109502666Y-119361088D01*
X109267349Y-119405366D01*
X109051225Y-119544438D01*
X109024584Y-119583428D01*
X107549040Y-119583428D01*
X107532090Y-119557087D01*
X107319890Y-119412097D01*
X107068000Y-119361088D01*
X106268000Y-119361088D01*
X106032683Y-119405366D01*
X105929354Y-119471857D01*
X105927698Y-119470201D01*
X105694309Y-119373528D01*
X105453750Y-119373528D01*
X105295000Y-119532278D01*
X105295000Y-120256528D01*
X105315000Y-120256528D01*
X105315000Y-120510528D01*
X105295000Y-120510528D01*
X105295000Y-121234778D01*
X105453750Y-121393528D01*
X105694309Y-121393528D01*
X105927698Y-121296855D01*
X105929068Y-121295485D01*
X106016110Y-121354959D01*
X106268000Y-121405968D01*
X107068000Y-121405968D01*
X107303317Y-121361690D01*
X107519441Y-121222618D01*
X107546082Y-121183628D01*
X109021626Y-121183628D01*
X109038576Y-121209969D01*
X109250776Y-121354959D01*
X109502666Y-121405968D01*
X110302666Y-121405968D01*
X110537983Y-121361690D01*
X110652644Y-121287908D01*
X110750776Y-121354959D01*
X111002666Y-121405968D01*
X111802666Y-121405968D01*
X112037983Y-121361690D01*
X112254107Y-121222618D01*
X112399097Y-121010418D01*
X112450106Y-120758528D01*
X112450106Y-120492600D01*
X116086817Y-116855889D01*
X117538593Y-116855889D01*
X110836910Y-123557572D01*
X110663470Y-123817143D01*
X110643442Y-123917830D01*
X110554556Y-123857097D01*
X110302666Y-123806088D01*
X109502666Y-123806088D01*
X109267349Y-123850366D01*
X109051225Y-123989438D01*
X109024584Y-124028428D01*
X107608706Y-124028428D01*
X107591756Y-124002087D01*
X107379556Y-123857097D01*
X107127666Y-123806088D01*
X106327666Y-123806088D01*
X106092349Y-123850366D01*
X105989020Y-123916857D01*
X105987364Y-123915201D01*
X105753975Y-123818528D01*
X105513416Y-123818528D01*
X105354666Y-123977278D01*
X105354666Y-124701528D01*
X105374666Y-124701528D01*
X105374666Y-124955528D01*
X105354666Y-124955528D01*
X105354666Y-125679778D01*
X105513416Y-125838528D01*
X105753975Y-125838528D01*
X105987364Y-125741855D01*
X105988734Y-125740485D01*
X106075776Y-125799959D01*
X106327666Y-125850968D01*
X107127666Y-125850968D01*
X107362983Y-125806690D01*
X107579107Y-125667618D01*
X107605748Y-125628628D01*
X109021626Y-125628628D01*
X109038576Y-125654969D01*
X109250776Y-125799959D01*
X109502666Y-125850968D01*
X110302666Y-125850968D01*
X110537983Y-125806690D01*
X110652644Y-125732908D01*
X110750776Y-125799959D01*
X111002666Y-125850968D01*
X111802666Y-125850968D01*
X112037983Y-125806690D01*
X112254107Y-125667618D01*
X112399097Y-125455418D01*
X112450106Y-125203528D01*
X112450106Y-124453528D01*
X112411128Y-124246378D01*
X119271406Y-117386100D01*
X123190103Y-117386100D01*
X123189824Y-117706328D01*
X123317000Y-118014117D01*
X123317000Y-119888000D01*
X118259255Y-119888000D01*
X118104000Y-119856560D01*
X117354000Y-119856560D01*
X117118683Y-119900838D01*
X116902559Y-120039910D01*
X116757569Y-120252110D01*
X116706560Y-120504000D01*
X116706560Y-121304000D01*
X116750838Y-121539317D01*
X116824620Y-121653978D01*
X116757569Y-121752110D01*
X116706560Y-122004000D01*
X116706560Y-122804000D01*
X116750838Y-123039317D01*
X116889910Y-123255441D01*
X116928900Y-123282082D01*
X116928900Y-124301560D01*
X116879000Y-124301560D01*
X116643683Y-124345838D01*
X116427559Y-124484910D01*
X116282569Y-124697110D01*
X116231560Y-124949000D01*
X116231560Y-125749000D01*
X116275838Y-125984317D01*
X116414910Y-126200441D01*
X116627110Y-126345431D01*
X116879000Y-126396440D01*
X118579000Y-126396440D01*
X118814317Y-126352162D01*
X119030441Y-126213090D01*
X119175431Y-126000890D01*
X119226440Y-125749000D01*
X119226440Y-124949000D01*
X119182162Y-124713683D01*
X119043090Y-124497559D01*
X118830890Y-124352569D01*
X118579000Y-124301560D01*
X118529100Y-124301560D01*
X118529100Y-123285040D01*
X118555441Y-123268090D01*
X118599163Y-123204100D01*
X119258414Y-123204100D01*
X119280175Y-123256766D01*
X119565731Y-123542821D01*
X119939018Y-123697824D01*
X120343208Y-123698176D01*
X120716766Y-123543825D01*
X121002821Y-123258269D01*
X121157824Y-122884982D01*
X121158176Y-122480792D01*
X121003825Y-122107234D01*
X120816918Y-121920000D01*
X123205431Y-121920000D01*
X123183560Y-122028000D01*
X123183560Y-122828000D01*
X123227838Y-123063317D01*
X123313899Y-123197060D01*
X123190176Y-123495018D01*
X123189824Y-123899208D01*
X123344175Y-124272766D01*
X123372919Y-124301560D01*
X123356000Y-124301560D01*
X123120683Y-124345838D01*
X122904559Y-124484910D01*
X122759569Y-124697110D01*
X122708560Y-124949000D01*
X122708560Y-125749000D01*
X122752838Y-125984317D01*
X122891910Y-126200441D01*
X123104110Y-126345431D01*
X123356000Y-126396440D01*
X125056000Y-126396440D01*
X125291317Y-126352162D01*
X125507441Y-126213090D01*
X125652431Y-126000890D01*
X125703440Y-125749000D01*
X125703440Y-124949000D01*
X125659162Y-124713683D01*
X125520090Y-124497559D01*
X125307890Y-124352569D01*
X125056000Y-124301560D01*
X125039482Y-124301560D01*
X125066821Y-124274269D01*
X125221824Y-123900982D01*
X125222176Y-123496792D01*
X125097969Y-123196187D01*
X125177431Y-123079890D01*
X125228440Y-122828000D01*
X125228440Y-122028000D01*
X125208118Y-121920000D01*
X129423570Y-121920000D01*
X129406560Y-122004000D01*
X129406560Y-122804000D01*
X129450838Y-123039317D01*
X129589910Y-123255441D01*
X129628900Y-123282082D01*
X129628900Y-124301560D01*
X129579000Y-124301560D01*
X129343683Y-124345838D01*
X129127559Y-124484910D01*
X128982569Y-124697110D01*
X128931560Y-124949000D01*
X128931560Y-125749000D01*
X128975838Y-125984317D01*
X129114910Y-126200441D01*
X129327110Y-126345431D01*
X129579000Y-126396440D01*
X131279000Y-126396440D01*
X131514317Y-126352162D01*
X131730441Y-126213090D01*
X131805809Y-126102785D01*
X132131018Y-126237824D01*
X132535208Y-126238176D01*
X132908766Y-126083825D01*
X133194821Y-125798269D01*
X133349824Y-125424982D01*
X133350176Y-125020792D01*
X133195825Y-124647234D01*
X132910269Y-124361179D01*
X132536982Y-124206176D01*
X132132792Y-124205824D01*
X131759234Y-124360175D01*
X131697401Y-124421900D01*
X131632359Y-124421900D01*
X131530890Y-124352569D01*
X131279000Y-124301560D01*
X131229100Y-124301560D01*
X131229100Y-123285040D01*
X131255441Y-123268090D01*
X131400431Y-123055890D01*
X131451440Y-122804000D01*
X131451440Y-122004000D01*
X131407162Y-121768683D01*
X131333380Y-121654022D01*
X131400431Y-121555890D01*
X131451440Y-121304000D01*
X131451440Y-120504000D01*
X131407162Y-120268683D01*
X131268090Y-120052559D01*
X131055890Y-119907569D01*
X130804000Y-119856560D01*
X130054000Y-119856560D01*
X129886911Y-119888000D01*
X125095000Y-119888000D01*
X125095000Y-118013527D01*
X125221824Y-117708102D01*
X125222104Y-117386100D01*
X130224588Y-117386100D01*
X133057900Y-120219412D01*
X133057900Y-121071478D01*
X133118804Y-121377663D01*
X133292244Y-121637234D01*
X135664766Y-124009756D01*
X135924337Y-124183196D01*
X136230522Y-124244100D01*
X139192000Y-124244100D01*
X139498185Y-124183196D01*
X139757756Y-124009756D01*
X140307055Y-123460457D01*
X140480495Y-123200886D01*
X140541399Y-122894701D01*
X140541399Y-122729689D01*
X140670602Y-122783339D01*
X141266782Y-122783859D01*
X141817780Y-122556192D01*
X142239710Y-122134997D01*
X142240095Y-122134069D01*
X142660003Y-122554710D01*
X143210602Y-122783339D01*
X143806782Y-122783859D01*
X144357780Y-122556192D01*
X144779710Y-122134997D01*
X144780095Y-122134069D01*
X145200003Y-122554710D01*
X145750602Y-122783339D01*
X146346782Y-122783859D01*
X146897780Y-122556192D01*
X147319710Y-122134997D01*
X147320095Y-122134069D01*
X147740003Y-122554710D01*
X147789900Y-122575429D01*
X147789900Y-124053600D01*
X147850804Y-124359785D01*
X148024244Y-124619356D01*
X149007888Y-125603000D01*
X148970998Y-125603000D01*
X148970998Y-125767782D01*
X148738974Y-125646642D01*
X148723209Y-125649291D01*
X148195964Y-125903268D01*
X147806046Y-126339680D01*
X147612816Y-126892087D01*
X147757076Y-127127000D01*
X148971000Y-127127000D01*
X148971000Y-127107000D01*
X149225000Y-127107000D01*
X149225000Y-127127000D01*
X149245000Y-127127000D01*
X149245000Y-127381000D01*
X149225000Y-127381000D01*
X149225000Y-128740217D01*
X149457026Y-128861358D01*
X149472791Y-128858709D01*
X150000036Y-128604732D01*
X150371539Y-128188931D01*
X150578330Y-128498415D01*
X151064511Y-128823271D01*
X151638000Y-128937345D01*
X152211489Y-128823271D01*
X152697670Y-128498415D01*
X152908000Y-128183634D01*
X153118330Y-128498415D01*
X153604511Y-128823271D01*
X154178000Y-128937345D01*
X154751489Y-128823271D01*
X155237670Y-128498415D01*
X155448000Y-128183634D01*
X155658330Y-128498415D01*
X156144511Y-128823271D01*
X156718000Y-128937345D01*
X157291489Y-128823271D01*
X157777670Y-128498415D01*
X157988000Y-128183634D01*
X158198330Y-128498415D01*
X158684511Y-128823271D01*
X159258000Y-128937345D01*
X159831489Y-128823271D01*
X160317670Y-128498415D01*
X160327243Y-128484087D01*
X160331238Y-128505317D01*
X160470310Y-128721441D01*
X160682510Y-128866431D01*
X160934400Y-128917440D01*
X162661600Y-128917440D01*
X162896917Y-128873162D01*
X163113041Y-128734090D01*
X163258031Y-128521890D01*
X163309040Y-128270000D01*
X163423600Y-128270000D01*
X163747900Y-128205493D01*
X163812407Y-128192662D01*
X164142020Y-127972420D01*
X169417753Y-122696688D01*
X169757780Y-122556192D01*
X170179710Y-122134997D01*
X170408339Y-121584398D01*
X170408654Y-121223186D01*
X172168420Y-119463421D01*
X172362072Y-119173601D01*
X172388662Y-119133806D01*
X172466000Y-118745000D01*
X172466000Y-104902000D01*
X172388662Y-104513194D01*
X172388662Y-104513193D01*
X172168421Y-104183580D01*
X170390420Y-102405580D01*
X170060807Y-102185338D01*
X169996300Y-102172507D01*
X169672000Y-102108000D01*
X168889361Y-102108000D01*
X168277540Y-101496180D01*
X168277540Y-101424716D01*
X168346949Y-101378338D01*
X168537732Y-101092810D01*
X168805934Y-101430232D01*
X169331454Y-101721776D01*
X169436800Y-101746056D01*
X169674540Y-101625398D01*
X169674540Y-99982020D01*
X169928540Y-99982020D01*
X169928540Y-101625398D01*
X170166280Y-101746056D01*
X170271626Y-101721776D01*
X170797146Y-101430232D01*
X171171094Y-100959772D01*
X171336540Y-100382020D01*
X171336540Y-99982020D01*
X169928540Y-99982020D01*
X169674540Y-99982020D01*
X169654540Y-99982020D01*
X169654540Y-99728020D01*
X169674540Y-99728020D01*
X169674540Y-98084642D01*
X169928540Y-98084642D01*
X169928540Y-99728020D01*
X171336540Y-99728020D01*
X171336540Y-99328020D01*
X171171094Y-98750268D01*
X170797146Y-98279808D01*
X170271626Y-97988264D01*
X170166280Y-97963984D01*
X169928540Y-98084642D01*
X169674540Y-98084642D01*
X169436800Y-97963984D01*
X169331454Y-97988264D01*
X168805934Y-98279808D01*
X168537732Y-98617230D01*
X168346949Y-98331702D01*
X167848959Y-97998956D01*
X167261540Y-97882111D01*
X166674121Y-97998956D01*
X166176131Y-98331702D01*
X165991540Y-98607962D01*
X165806949Y-98331702D01*
X165308959Y-97998956D01*
X164721540Y-97882111D01*
X164353376Y-97955344D01*
X164263032Y-97865000D01*
X174526052Y-97865000D01*
X174092840Y-98044000D01*
X173491731Y-98644061D01*
X173166012Y-99428479D01*
X173165270Y-100277835D01*
X173489620Y-101062820D01*
X174089681Y-101663929D01*
X174874099Y-101989648D01*
X175723455Y-101990390D01*
X176508440Y-101666040D01*
X177090000Y-101085494D01*
X177090000Y-129626222D01*
X176511599Y-129046811D01*
X175727181Y-128721092D01*
X174877825Y-128720350D01*
X174092840Y-129044700D01*
X173491731Y-129644761D01*
X173166012Y-130429179D01*
X173165270Y-131278535D01*
X173489620Y-132063520D01*
X174065095Y-132640000D01*
X101536647Y-132640000D01*
X102110969Y-132066679D01*
X102436688Y-131282261D01*
X102437430Y-130432905D01*
X102113080Y-129647920D01*
X101513019Y-129046811D01*
X101483973Y-129034750D01*
X116244000Y-129034750D01*
X116244000Y-129275309D01*
X116340673Y-129508698D01*
X116519301Y-129687327D01*
X116752690Y-129784000D01*
X117443250Y-129784000D01*
X117602000Y-129625250D01*
X117602000Y-128876000D01*
X117856000Y-128876000D01*
X117856000Y-129625250D01*
X118014750Y-129784000D01*
X118705310Y-129784000D01*
X118938699Y-129687327D01*
X119117327Y-129508698D01*
X119214000Y-129275309D01*
X119214000Y-129034750D01*
X122721000Y-129034750D01*
X122721000Y-129275309D01*
X122817673Y-129508698D01*
X122996301Y-129687327D01*
X123229690Y-129784000D01*
X123920250Y-129784000D01*
X124079000Y-129625250D01*
X124079000Y-128876000D01*
X124333000Y-128876000D01*
X124333000Y-129625250D01*
X124491750Y-129784000D01*
X125182310Y-129784000D01*
X125415699Y-129687327D01*
X125594327Y-129508698D01*
X125691000Y-129275309D01*
X125691000Y-129034750D01*
X128944000Y-129034750D01*
X128944000Y-129275309D01*
X129040673Y-129508698D01*
X129219301Y-129687327D01*
X129452690Y-129784000D01*
X130143250Y-129784000D01*
X130302000Y-129625250D01*
X130302000Y-128876000D01*
X130556000Y-128876000D01*
X130556000Y-129625250D01*
X130714750Y-129784000D01*
X131405310Y-129784000D01*
X131638699Y-129687327D01*
X131817327Y-129508698D01*
X131914000Y-129275309D01*
X131914000Y-129034750D01*
X131755250Y-128876000D01*
X130556000Y-128876000D01*
X130302000Y-128876000D01*
X129102750Y-128876000D01*
X128944000Y-129034750D01*
X125691000Y-129034750D01*
X125532250Y-128876000D01*
X124333000Y-128876000D01*
X124079000Y-128876000D01*
X122879750Y-128876000D01*
X122721000Y-129034750D01*
X119214000Y-129034750D01*
X119055250Y-128876000D01*
X117856000Y-128876000D01*
X117602000Y-128876000D01*
X116402750Y-128876000D01*
X116244000Y-129034750D01*
X101483973Y-129034750D01*
X100728601Y-128721092D01*
X99879245Y-128720350D01*
X99094260Y-129044700D01*
X98500000Y-129637924D01*
X98500000Y-128222691D01*
X116244000Y-128222691D01*
X116244000Y-128463250D01*
X116402750Y-128622000D01*
X117602000Y-128622000D01*
X117602000Y-127872750D01*
X117856000Y-127872750D01*
X117856000Y-128622000D01*
X119055250Y-128622000D01*
X119214000Y-128463250D01*
X119214000Y-128222691D01*
X122721000Y-128222691D01*
X122721000Y-128463250D01*
X122879750Y-128622000D01*
X124079000Y-128622000D01*
X124079000Y-127872750D01*
X124333000Y-127872750D01*
X124333000Y-128622000D01*
X125532250Y-128622000D01*
X125691000Y-128463250D01*
X125691000Y-128222691D01*
X128944000Y-128222691D01*
X128944000Y-128463250D01*
X129102750Y-128622000D01*
X130302000Y-128622000D01*
X130302000Y-127872750D01*
X130556000Y-127872750D01*
X130556000Y-128622000D01*
X131755250Y-128622000D01*
X131914000Y-128463250D01*
X131914000Y-128222691D01*
X131817327Y-127989302D01*
X131638699Y-127810673D01*
X131405310Y-127714000D01*
X130714750Y-127714000D01*
X130556000Y-127872750D01*
X130302000Y-127872750D01*
X130143250Y-127714000D01*
X129452690Y-127714000D01*
X129219301Y-127810673D01*
X129040673Y-127989302D01*
X128944000Y-128222691D01*
X125691000Y-128222691D01*
X125594327Y-127989302D01*
X125415699Y-127810673D01*
X125182310Y-127714000D01*
X124491750Y-127714000D01*
X124333000Y-127872750D01*
X124079000Y-127872750D01*
X123920250Y-127714000D01*
X123229690Y-127714000D01*
X122996301Y-127810673D01*
X122817673Y-127989302D01*
X122721000Y-128222691D01*
X119214000Y-128222691D01*
X119117327Y-127989302D01*
X118938699Y-127810673D01*
X118705310Y-127714000D01*
X118014750Y-127714000D01*
X117856000Y-127872750D01*
X117602000Y-127872750D01*
X117443250Y-127714000D01*
X116752690Y-127714000D01*
X116519301Y-127810673D01*
X116340673Y-127989302D01*
X116244000Y-128222691D01*
X98500000Y-128222691D01*
X98500000Y-127615913D01*
X147612816Y-127615913D01*
X147806046Y-128168320D01*
X148195964Y-128604732D01*
X148723209Y-128858709D01*
X148738974Y-128861358D01*
X148971000Y-128740217D01*
X148971000Y-127381000D01*
X147757076Y-127381000D01*
X147612816Y-127615913D01*
X98500000Y-127615913D01*
X98500000Y-125114278D01*
X104192666Y-125114278D01*
X104192666Y-125329838D01*
X104289339Y-125563227D01*
X104467968Y-125741855D01*
X104701357Y-125838528D01*
X104941916Y-125838528D01*
X105100666Y-125679778D01*
X105100666Y-124955528D01*
X104351416Y-124955528D01*
X104192666Y-125114278D01*
X98500000Y-125114278D01*
X98500000Y-124327218D01*
X104192666Y-124327218D01*
X104192666Y-124542778D01*
X104351416Y-124701528D01*
X105100666Y-124701528D01*
X105100666Y-123977278D01*
X104941916Y-123818528D01*
X104701357Y-123818528D01*
X104467968Y-123915201D01*
X104289339Y-124093829D01*
X104192666Y-124327218D01*
X98500000Y-124327218D01*
X98500000Y-120669278D01*
X104133000Y-120669278D01*
X104133000Y-120884838D01*
X104229673Y-121118227D01*
X104408302Y-121296855D01*
X104641691Y-121393528D01*
X104882250Y-121393528D01*
X105041000Y-121234778D01*
X105041000Y-120510528D01*
X104291750Y-120510528D01*
X104133000Y-120669278D01*
X98500000Y-120669278D01*
X98500000Y-119882218D01*
X104133000Y-119882218D01*
X104133000Y-120097778D01*
X104291750Y-120256528D01*
X105041000Y-120256528D01*
X105041000Y-119532278D01*
X104882250Y-119373528D01*
X104641691Y-119373528D01*
X104408302Y-119470201D01*
X104229673Y-119648829D01*
X104133000Y-119882218D01*
X98500000Y-119882218D01*
X98500000Y-104285000D01*
X108167560Y-104285000D01*
X108167560Y-105485000D01*
X108211838Y-105720317D01*
X108350910Y-105936441D01*
X108563110Y-106081431D01*
X108815000Y-106132440D01*
X109965000Y-106132440D01*
X110200317Y-106088162D01*
X110416441Y-105949090D01*
X110561431Y-105736890D01*
X110612440Y-105485000D01*
X110612440Y-104285000D01*
X110568162Y-104049683D01*
X110429090Y-103833559D01*
X110216890Y-103688569D01*
X109965000Y-103637560D01*
X108815000Y-103637560D01*
X108579683Y-103681838D01*
X108363559Y-103820910D01*
X108218569Y-104033110D01*
X108167560Y-104285000D01*
X98500000Y-104285000D01*
X98500000Y-101071796D01*
X99091101Y-101663929D01*
X99875519Y-101989648D01*
X100724875Y-101990390D01*
X101509860Y-101666040D01*
X102110969Y-101065979D01*
X102436688Y-100281561D01*
X102437430Y-99432205D01*
X102136992Y-98705090D01*
X121285000Y-98705090D01*
X121285000Y-99409250D01*
X121443750Y-99568000D01*
X122809000Y-99568000D01*
X122809000Y-98355150D01*
X123063000Y-98355150D01*
X123063000Y-99568000D01*
X124428250Y-99568000D01*
X124587000Y-99409250D01*
X124587000Y-98705090D01*
X124490327Y-98471701D01*
X124311698Y-98293073D01*
X124078309Y-98196400D01*
X123221750Y-98196400D01*
X123063000Y-98355150D01*
X122809000Y-98355150D01*
X122650250Y-98196400D01*
X121793691Y-98196400D01*
X121560302Y-98293073D01*
X121381673Y-98471701D01*
X121285000Y-98705090D01*
X102136992Y-98705090D01*
X102113080Y-98647220D01*
X101513019Y-98046111D01*
X101076856Y-97865000D01*
X128485888Y-97865000D01*
X124915988Y-101434900D01*
X124915988Y-101434900D01*
G37*
X124915988Y-101434900D02*
X124353854Y-101434900D01*
X124180415Y-101175330D01*
X124158220Y-101160500D01*
X124311698Y-101096927D01*
X124490327Y-100918299D01*
X124587000Y-100684910D01*
X124587000Y-99980750D01*
X124428250Y-99822000D01*
X123063000Y-99822000D01*
X123063000Y-99842000D01*
X122809000Y-99842000D01*
X122809000Y-99822000D01*
X121443750Y-99822000D01*
X121285000Y-99980750D01*
X121285000Y-100684910D01*
X121381673Y-100918299D01*
X121560302Y-101096927D01*
X121713780Y-101160500D01*
X121691585Y-101175330D01*
X121366729Y-101661511D01*
X121252655Y-102235000D01*
X121366729Y-102808489D01*
X121691585Y-103294670D01*
X122006366Y-103505000D01*
X121691585Y-103715330D01*
X121366729Y-104201511D01*
X121252655Y-104775000D01*
X121366729Y-105348489D01*
X121691585Y-105834670D01*
X122177766Y-106159526D01*
X122751255Y-106273600D01*
X123120745Y-106273600D01*
X123694234Y-106159526D01*
X124180415Y-105834670D01*
X124209594Y-105791000D01*
X131383560Y-105791000D01*
X131738909Y-105720317D01*
X131772367Y-105713662D01*
X132101980Y-105493420D01*
X134959960Y-102635441D01*
X135180202Y-102305827D01*
X135215016Y-102130804D01*
X135257540Y-101917020D01*
X135257540Y-101424716D01*
X135326949Y-101378338D01*
X135511540Y-101102078D01*
X135696131Y-101378338D01*
X136194121Y-101711084D01*
X136781540Y-101827929D01*
X137149704Y-101754696D01*
X139084764Y-103689756D01*
X139344335Y-103863196D01*
X139650520Y-103924100D01*
X140257588Y-103924100D01*
X140879809Y-104546321D01*
X140673218Y-104546141D01*
X140122220Y-104773808D01*
X139700290Y-105195003D01*
X139699905Y-105195931D01*
X139279997Y-104775290D01*
X138729398Y-104546661D01*
X138133218Y-104546141D01*
X137582220Y-104773808D01*
X137160290Y-105195003D01*
X137159905Y-105195931D01*
X136739997Y-104775290D01*
X136189398Y-104546661D01*
X135593218Y-104546141D01*
X135042220Y-104773808D01*
X134620290Y-105195003D01*
X134391661Y-105745602D01*
X134391141Y-106341782D01*
X134411773Y-106391715D01*
X134118588Y-106684900D01*
X114177440Y-106684900D01*
X114177440Y-106035000D01*
X114133162Y-105799683D01*
X113994090Y-105583559D01*
X113781890Y-105438569D01*
X113530000Y-105387560D01*
X113212440Y-105387560D01*
X113212440Y-104285000D01*
X113168162Y-104049683D01*
X113029090Y-103833559D01*
X112816890Y-103688569D01*
X112565000Y-103637560D01*
X111415000Y-103637560D01*
X111179683Y-103681838D01*
X110963559Y-103820910D01*
X110818569Y-104033110D01*
X110767560Y-104285000D01*
X110767560Y-105485000D01*
X110811838Y-105720317D01*
X110950910Y-105936441D01*
X111163110Y-106081431D01*
X111415000Y-106132440D01*
X111882560Y-106132440D01*
X111882560Y-106735000D01*
X111921574Y-106942342D01*
X111882560Y-107135000D01*
X111882560Y-107835000D01*
X111921858Y-108043850D01*
X111895000Y-108108691D01*
X111895000Y-108299250D01*
X112053750Y-108458000D01*
X112409312Y-108458000D01*
X112530000Y-108482440D01*
X113530000Y-108482440D01*
X113659887Y-108458000D01*
X114006250Y-108458000D01*
X114165000Y-108299250D01*
X114165000Y-108285100D01*
X134391869Y-108285100D01*
X134391661Y-108285602D01*
X134391141Y-108881782D01*
X134479736Y-109096199D01*
X124291701Y-109096199D01*
X123985516Y-109157103D01*
X123725945Y-109330543D01*
X121542651Y-111513837D01*
X121511825Y-111439234D01*
X121226269Y-111153179D01*
X120918701Y-111025465D01*
X120049618Y-110156382D01*
X119969274Y-110102698D01*
X119802060Y-109990969D01*
X119844824Y-109887982D01*
X119845176Y-109483792D01*
X119690825Y-109110234D01*
X119405269Y-108824179D01*
X119031982Y-108669176D01*
X118627792Y-108668824D01*
X118320003Y-108796000D01*
X114090250Y-108796000D01*
X114006250Y-108712000D01*
X113650688Y-108712000D01*
X113530000Y-108687560D01*
X112530000Y-108687560D01*
X112400113Y-108712000D01*
X112053750Y-108712000D01*
X111895000Y-108870750D01*
X111895000Y-109061309D01*
X111923870Y-109131007D01*
X111882560Y-109335000D01*
X111882560Y-110035000D01*
X111921574Y-110242342D01*
X111882560Y-110435000D01*
X111882560Y-111135000D01*
X111921574Y-111342342D01*
X111882560Y-111535000D01*
X111882560Y-112235000D01*
X111921574Y-112442342D01*
X111882560Y-112635000D01*
X111882560Y-113335000D01*
X111921574Y-113542342D01*
X111882560Y-113735000D01*
X111882560Y-113752460D01*
X110953500Y-113752460D01*
X110718183Y-113796738D01*
X110502059Y-113935810D01*
X110357069Y-114148010D01*
X110346043Y-114202460D01*
X110298861Y-114202460D01*
X110167590Y-113998459D01*
X109955390Y-113853469D01*
X109703500Y-113802460D01*
X108803500Y-113802460D01*
X108568183Y-113846738D01*
X108352059Y-113985810D01*
X108207069Y-114198010D01*
X108156060Y-114449900D01*
X108156060Y-115849900D01*
X108200338Y-116085217D01*
X108339410Y-116301341D01*
X108551610Y-116446331D01*
X108803500Y-116497340D01*
X109703500Y-116497340D01*
X109884924Y-116463203D01*
X110053500Y-116497340D01*
X110753500Y-116497340D01*
X110857171Y-116477833D01*
X110953500Y-116497340D01*
X112153500Y-116497340D01*
X112388817Y-116453062D01*
X112604941Y-116313990D01*
X112749931Y-116101790D01*
X112800940Y-115849900D01*
X112800940Y-115082440D01*
X113530000Y-115082440D01*
X113765317Y-115038162D01*
X113981441Y-114899090D01*
X114126431Y-114686890D01*
X114177440Y-114435000D01*
X114177440Y-113785100D01*
X118495588Y-113785100D01*
X119576244Y-114865756D01*
X119835815Y-115039196D01*
X120142000Y-115100100D01*
X124206000Y-115100100D01*
X124512185Y-115039196D01*
X124771756Y-114865756D01*
X126401113Y-113236399D01*
X134451251Y-113236399D01*
X134379752Y-113433030D01*
X134405942Y-114028635D01*
X134583484Y-114457259D01*
X134836195Y-114539200D01*
X135710395Y-113665000D01*
X135696253Y-113650858D01*
X135875858Y-113471253D01*
X135890000Y-113485395D01*
X135904143Y-113471253D01*
X136083748Y-113650858D01*
X136069605Y-113665000D01*
X136943805Y-114539200D01*
X137196516Y-114457259D01*
X137400248Y-113896970D01*
X137374058Y-113301365D01*
X137347148Y-113236399D01*
X137836299Y-113236399D01*
X138142484Y-113175495D01*
X138402055Y-113002055D01*
X141535756Y-109868354D01*
X141709196Y-109608783D01*
X141734411Y-109482018D01*
X141770100Y-109302598D01*
X141770100Y-107335893D01*
X141817780Y-107316192D01*
X142239710Y-106894997D01*
X142240095Y-106894069D01*
X142660003Y-107314710D01*
X143210602Y-107543339D01*
X143806782Y-107543859D01*
X144357780Y-107316192D01*
X144779710Y-106894997D01*
X144780095Y-106894069D01*
X145200003Y-107314710D01*
X145750602Y-107543339D01*
X146346782Y-107543859D01*
X146897780Y-107316192D01*
X147319710Y-106894997D01*
X147320095Y-106894069D01*
X147740003Y-107314710D01*
X148290602Y-107543339D01*
X148886782Y-107543859D01*
X149437780Y-107316192D01*
X149859710Y-106894997D01*
X149860095Y-106894069D01*
X150280003Y-107314710D01*
X150830602Y-107543339D01*
X151039966Y-107543522D01*
X139175543Y-119407945D01*
X139002103Y-119667516D01*
X138959406Y-119882169D01*
X138729398Y-119786661D01*
X138133218Y-119786141D01*
X138083285Y-119806773D01*
X137684457Y-119407945D01*
X137424886Y-119234505D01*
X137318211Y-119213286D01*
X137388339Y-119044398D01*
X137388859Y-118448218D01*
X137161192Y-117897220D01*
X136739997Y-117475290D01*
X136739069Y-117474905D01*
X137159710Y-117054997D01*
X137388339Y-116504398D01*
X137388859Y-115908218D01*
X137161192Y-115357220D01*
X136739997Y-114935290D01*
X136699463Y-114918459D01*
X136764200Y-114718805D01*
X135890000Y-113844605D01*
X135015800Y-114718805D01*
X135080399Y-114918033D01*
X135042220Y-114933808D01*
X134620290Y-115355003D01*
X134391661Y-115905602D01*
X134391141Y-116501782D01*
X134618808Y-117052780D01*
X135040003Y-117474710D01*
X135040931Y-117475095D01*
X134620290Y-117895003D01*
X134541877Y-118083843D01*
X131948067Y-115490033D01*
X131688496Y-115316593D01*
X131382311Y-115255689D01*
X115755405Y-115255689D01*
X115449220Y-115316593D01*
X115189649Y-115490033D01*
X111318594Y-119361088D01*
X111002666Y-119361088D01*
X110767349Y-119405366D01*
X110652688Y-119479148D01*
X110554556Y-119412097D01*
X110302666Y-119361088D01*
X109502666Y-119361088D01*
X109267349Y-119405366D01*
X109051225Y-119544438D01*
X109024584Y-119583428D01*
X107549040Y-119583428D01*
X107532090Y-119557087D01*
X107319890Y-119412097D01*
X107068000Y-119361088D01*
X106268000Y-119361088D01*
X106032683Y-119405366D01*
X105929354Y-119471857D01*
X105927698Y-119470201D01*
X105694309Y-119373528D01*
X105453750Y-119373528D01*
X105295000Y-119532278D01*
X105295000Y-120256528D01*
X105315000Y-120256528D01*
X105315000Y-120510528D01*
X105295000Y-120510528D01*
X105295000Y-121234778D01*
X105453750Y-121393528D01*
X105694309Y-121393528D01*
X105927698Y-121296855D01*
X105929068Y-121295485D01*
X106016110Y-121354959D01*
X106268000Y-121405968D01*
X107068000Y-121405968D01*
X107303317Y-121361690D01*
X107519441Y-121222618D01*
X107546082Y-121183628D01*
X109021626Y-121183628D01*
X109038576Y-121209969D01*
X109250776Y-121354959D01*
X109502666Y-121405968D01*
X110302666Y-121405968D01*
X110537983Y-121361690D01*
X110652644Y-121287908D01*
X110750776Y-121354959D01*
X111002666Y-121405968D01*
X111802666Y-121405968D01*
X112037983Y-121361690D01*
X112254107Y-121222618D01*
X112399097Y-121010418D01*
X112450106Y-120758528D01*
X112450106Y-120492600D01*
X116086817Y-116855889D01*
X117538593Y-116855889D01*
X110836910Y-123557572D01*
X110663470Y-123817143D01*
X110643442Y-123917830D01*
X110554556Y-123857097D01*
X110302666Y-123806088D01*
X109502666Y-123806088D01*
X109267349Y-123850366D01*
X109051225Y-123989438D01*
X109024584Y-124028428D01*
X107608706Y-124028428D01*
X107591756Y-124002087D01*
X107379556Y-123857097D01*
X107127666Y-123806088D01*
X106327666Y-123806088D01*
X106092349Y-123850366D01*
X105989020Y-123916857D01*
X105987364Y-123915201D01*
X105753975Y-123818528D01*
X105513416Y-123818528D01*
X105354666Y-123977278D01*
X105354666Y-124701528D01*
X105374666Y-124701528D01*
X105374666Y-124955528D01*
X105354666Y-124955528D01*
X105354666Y-125679778D01*
X105513416Y-125838528D01*
X105753975Y-125838528D01*
X105987364Y-125741855D01*
X105988734Y-125740485D01*
X106075776Y-125799959D01*
X106327666Y-125850968D01*
X107127666Y-125850968D01*
X107362983Y-125806690D01*
X107579107Y-125667618D01*
X107605748Y-125628628D01*
X109021626Y-125628628D01*
X109038576Y-125654969D01*
X109250776Y-125799959D01*
X109502666Y-125850968D01*
X110302666Y-125850968D01*
X110537983Y-125806690D01*
X110652644Y-125732908D01*
X110750776Y-125799959D01*
X111002666Y-125850968D01*
X111802666Y-125850968D01*
X112037983Y-125806690D01*
X112254107Y-125667618D01*
X112399097Y-125455418D01*
X112450106Y-125203528D01*
X112450106Y-124453528D01*
X112411128Y-124246378D01*
X119271406Y-117386100D01*
X123190103Y-117386100D01*
X123189824Y-117706328D01*
X123317000Y-118014117D01*
X123317000Y-119888000D01*
X118259255Y-119888000D01*
X118104000Y-119856560D01*
X117354000Y-119856560D01*
X117118683Y-119900838D01*
X116902559Y-120039910D01*
X116757569Y-120252110D01*
X116706560Y-120504000D01*
X116706560Y-121304000D01*
X116750838Y-121539317D01*
X116824620Y-121653978D01*
X116757569Y-121752110D01*
X116706560Y-122004000D01*
X116706560Y-122804000D01*
X116750838Y-123039317D01*
X116889910Y-123255441D01*
X116928900Y-123282082D01*
X116928900Y-124301560D01*
X116879000Y-124301560D01*
X116643683Y-124345838D01*
X116427559Y-124484910D01*
X116282569Y-124697110D01*
X116231560Y-124949000D01*
X116231560Y-125749000D01*
X116275838Y-125984317D01*
X116414910Y-126200441D01*
X116627110Y-126345431D01*
X116879000Y-126396440D01*
X118579000Y-126396440D01*
X118814317Y-126352162D01*
X119030441Y-126213090D01*
X119175431Y-126000890D01*
X119226440Y-125749000D01*
X119226440Y-124949000D01*
X119182162Y-124713683D01*
X119043090Y-124497559D01*
X118830890Y-124352569D01*
X118579000Y-124301560D01*
X118529100Y-124301560D01*
X118529100Y-123285040D01*
X118555441Y-123268090D01*
X118599163Y-123204100D01*
X119258414Y-123204100D01*
X119280175Y-123256766D01*
X119565731Y-123542821D01*
X119939018Y-123697824D01*
X120343208Y-123698176D01*
X120716766Y-123543825D01*
X121002821Y-123258269D01*
X121157824Y-122884982D01*
X121158176Y-122480792D01*
X121003825Y-122107234D01*
X120816918Y-121920000D01*
X123205431Y-121920000D01*
X123183560Y-122028000D01*
X123183560Y-122828000D01*
X123227838Y-123063317D01*
X123313899Y-123197060D01*
X123190176Y-123495018D01*
X123189824Y-123899208D01*
X123344175Y-124272766D01*
X123372919Y-124301560D01*
X123356000Y-124301560D01*
X123120683Y-124345838D01*
X122904559Y-124484910D01*
X122759569Y-124697110D01*
X122708560Y-124949000D01*
X122708560Y-125749000D01*
X122752838Y-125984317D01*
X122891910Y-126200441D01*
X123104110Y-126345431D01*
X123356000Y-126396440D01*
X125056000Y-126396440D01*
X125291317Y-126352162D01*
X125507441Y-126213090D01*
X125652431Y-126000890D01*
X125703440Y-125749000D01*
X125703440Y-124949000D01*
X125659162Y-124713683D01*
X125520090Y-124497559D01*
X125307890Y-124352569D01*
X125056000Y-124301560D01*
X125039482Y-124301560D01*
X125066821Y-124274269D01*
X125221824Y-123900982D01*
X125222176Y-123496792D01*
X125097969Y-123196187D01*
X125177431Y-123079890D01*
X125228440Y-122828000D01*
X125228440Y-122028000D01*
X125208118Y-121920000D01*
X129423570Y-121920000D01*
X129406560Y-122004000D01*
X129406560Y-122804000D01*
X129450838Y-123039317D01*
X129589910Y-123255441D01*
X129628900Y-123282082D01*
X129628900Y-124301560D01*
X129579000Y-124301560D01*
X129343683Y-124345838D01*
X129127559Y-124484910D01*
X128982569Y-124697110D01*
X128931560Y-124949000D01*
X128931560Y-125749000D01*
X128975838Y-125984317D01*
X129114910Y-126200441D01*
X129327110Y-126345431D01*
X129579000Y-126396440D01*
X131279000Y-126396440D01*
X131514317Y-126352162D01*
X131730441Y-126213090D01*
X131805809Y-126102785D01*
X132131018Y-126237824D01*
X132535208Y-126238176D01*
X132908766Y-126083825D01*
X133194821Y-125798269D01*
X133349824Y-125424982D01*
X133350176Y-125020792D01*
X133195825Y-124647234D01*
X132910269Y-124361179D01*
X132536982Y-124206176D01*
X132132792Y-124205824D01*
X131759234Y-124360175D01*
X131697401Y-124421900D01*
X131632359Y-124421900D01*
X131530890Y-124352569D01*
X131279000Y-124301560D01*
X131229100Y-124301560D01*
X131229100Y-123285040D01*
X131255441Y-123268090D01*
X131400431Y-123055890D01*
X131451440Y-122804000D01*
X131451440Y-122004000D01*
X131407162Y-121768683D01*
X131333380Y-121654022D01*
X131400431Y-121555890D01*
X131451440Y-121304000D01*
X131451440Y-120504000D01*
X131407162Y-120268683D01*
X131268090Y-120052559D01*
X131055890Y-119907569D01*
X130804000Y-119856560D01*
X130054000Y-119856560D01*
X129886911Y-119888000D01*
X125095000Y-119888000D01*
X125095000Y-118013527D01*
X125221824Y-117708102D01*
X125222104Y-117386100D01*
X130224588Y-117386100D01*
X133057900Y-120219412D01*
X133057900Y-121071478D01*
X133118804Y-121377663D01*
X133292244Y-121637234D01*
X135664766Y-124009756D01*
X135924337Y-124183196D01*
X136230522Y-124244100D01*
X139192000Y-124244100D01*
X139498185Y-124183196D01*
X139757756Y-124009756D01*
X140307055Y-123460457D01*
X140480495Y-123200886D01*
X140541399Y-122894701D01*
X140541399Y-122729689D01*
X140670602Y-122783339D01*
X141266782Y-122783859D01*
X141817780Y-122556192D01*
X142239710Y-122134997D01*
X142240095Y-122134069D01*
X142660003Y-122554710D01*
X143210602Y-122783339D01*
X143806782Y-122783859D01*
X144357780Y-122556192D01*
X144779710Y-122134997D01*
X144780095Y-122134069D01*
X145200003Y-122554710D01*
X145750602Y-122783339D01*
X146346782Y-122783859D01*
X146897780Y-122556192D01*
X147319710Y-122134997D01*
X147320095Y-122134069D01*
X147740003Y-122554710D01*
X147789900Y-122575429D01*
X147789900Y-124053600D01*
X147850804Y-124359785D01*
X148024244Y-124619356D01*
X149007888Y-125603000D01*
X148970998Y-125603000D01*
X148970998Y-125767782D01*
X148738974Y-125646642D01*
X148723209Y-125649291D01*
X148195964Y-125903268D01*
X147806046Y-126339680D01*
X147612816Y-126892087D01*
X147757076Y-127127000D01*
X148971000Y-127127000D01*
X148971000Y-127107000D01*
X149225000Y-127107000D01*
X149225000Y-127127000D01*
X149245000Y-127127000D01*
X149245000Y-127381000D01*
X149225000Y-127381000D01*
X149225000Y-128740217D01*
X149457026Y-128861358D01*
X149472791Y-128858709D01*
X150000036Y-128604732D01*
X150371539Y-128188931D01*
X150578330Y-128498415D01*
X151064511Y-128823271D01*
X151638000Y-128937345D01*
X152211489Y-128823271D01*
X152697670Y-128498415D01*
X152908000Y-128183634D01*
X153118330Y-128498415D01*
X153604511Y-128823271D01*
X154178000Y-128937345D01*
X154751489Y-128823271D01*
X155237670Y-128498415D01*
X155448000Y-128183634D01*
X155658330Y-128498415D01*
X156144511Y-128823271D01*
X156718000Y-128937345D01*
X157291489Y-128823271D01*
X157777670Y-128498415D01*
X157988000Y-128183634D01*
X158198330Y-128498415D01*
X158684511Y-128823271D01*
X159258000Y-128937345D01*
X159831489Y-128823271D01*
X160317670Y-128498415D01*
X160327243Y-128484087D01*
X160331238Y-128505317D01*
X160470310Y-128721441D01*
X160682510Y-128866431D01*
X160934400Y-128917440D01*
X162661600Y-128917440D01*
X162896917Y-128873162D01*
X163113041Y-128734090D01*
X163258031Y-128521890D01*
X163309040Y-128270000D01*
X163423600Y-128270000D01*
X163747900Y-128205493D01*
X163812407Y-128192662D01*
X164142020Y-127972420D01*
X169417753Y-122696688D01*
X169757780Y-122556192D01*
X170179710Y-122134997D01*
X170408339Y-121584398D01*
X170408654Y-121223186D01*
X172168420Y-119463421D01*
X172362072Y-119173601D01*
X172388662Y-119133806D01*
X172466000Y-118745000D01*
X172466000Y-104902000D01*
X172388662Y-104513194D01*
X172388662Y-104513193D01*
X172168421Y-104183580D01*
X170390420Y-102405580D01*
X170060807Y-102185338D01*
X169996300Y-102172507D01*
X169672000Y-102108000D01*
X168889361Y-102108000D01*
X168277540Y-101496180D01*
X168277540Y-101424716D01*
X168346949Y-101378338D01*
X168537732Y-101092810D01*
X168805934Y-101430232D01*
X169331454Y-101721776D01*
X169436800Y-101746056D01*
X169674540Y-101625398D01*
X169674540Y-99982020D01*
X169928540Y-99982020D01*
X169928540Y-101625398D01*
X170166280Y-101746056D01*
X170271626Y-101721776D01*
X170797146Y-101430232D01*
X171171094Y-100959772D01*
X171336540Y-100382020D01*
X171336540Y-99982020D01*
X169928540Y-99982020D01*
X169674540Y-99982020D01*
X169654540Y-99982020D01*
X169654540Y-99728020D01*
X169674540Y-99728020D01*
X169674540Y-98084642D01*
X169928540Y-98084642D01*
X169928540Y-99728020D01*
X171336540Y-99728020D01*
X171336540Y-99328020D01*
X171171094Y-98750268D01*
X170797146Y-98279808D01*
X170271626Y-97988264D01*
X170166280Y-97963984D01*
X169928540Y-98084642D01*
X169674540Y-98084642D01*
X169436800Y-97963984D01*
X169331454Y-97988264D01*
X168805934Y-98279808D01*
X168537732Y-98617230D01*
X168346949Y-98331702D01*
X167848959Y-97998956D01*
X167261540Y-97882111D01*
X166674121Y-97998956D01*
X166176131Y-98331702D01*
X165991540Y-98607962D01*
X165806949Y-98331702D01*
X165308959Y-97998956D01*
X164721540Y-97882111D01*
X164353376Y-97955344D01*
X164263032Y-97865000D01*
X174526052Y-97865000D01*
X174092840Y-98044000D01*
X173491731Y-98644061D01*
X173166012Y-99428479D01*
X173165270Y-100277835D01*
X173489620Y-101062820D01*
X174089681Y-101663929D01*
X174874099Y-101989648D01*
X175723455Y-101990390D01*
X176508440Y-101666040D01*
X177090000Y-101085494D01*
X177090000Y-129626222D01*
X176511599Y-129046811D01*
X175727181Y-128721092D01*
X174877825Y-128720350D01*
X174092840Y-129044700D01*
X173491731Y-129644761D01*
X173166012Y-130429179D01*
X173165270Y-131278535D01*
X173489620Y-132063520D01*
X174065095Y-132640000D01*
X101536647Y-132640000D01*
X102110969Y-132066679D01*
X102436688Y-131282261D01*
X102437430Y-130432905D01*
X102113080Y-129647920D01*
X101513019Y-129046811D01*
X101483973Y-129034750D01*
X116244000Y-129034750D01*
X116244000Y-129275309D01*
X116340673Y-129508698D01*
X116519301Y-129687327D01*
X116752690Y-129784000D01*
X117443250Y-129784000D01*
X117602000Y-129625250D01*
X117602000Y-128876000D01*
X117856000Y-128876000D01*
X117856000Y-129625250D01*
X118014750Y-129784000D01*
X118705310Y-129784000D01*
X118938699Y-129687327D01*
X119117327Y-129508698D01*
X119214000Y-129275309D01*
X119214000Y-129034750D01*
X122721000Y-129034750D01*
X122721000Y-129275309D01*
X122817673Y-129508698D01*
X122996301Y-129687327D01*
X123229690Y-129784000D01*
X123920250Y-129784000D01*
X124079000Y-129625250D01*
X124079000Y-128876000D01*
X124333000Y-128876000D01*
X124333000Y-129625250D01*
X124491750Y-129784000D01*
X125182310Y-129784000D01*
X125415699Y-129687327D01*
X125594327Y-129508698D01*
X125691000Y-129275309D01*
X125691000Y-129034750D01*
X128944000Y-129034750D01*
X128944000Y-129275309D01*
X129040673Y-129508698D01*
X129219301Y-129687327D01*
X129452690Y-129784000D01*
X130143250Y-129784000D01*
X130302000Y-129625250D01*
X130302000Y-128876000D01*
X130556000Y-128876000D01*
X130556000Y-129625250D01*
X130714750Y-129784000D01*
X131405310Y-129784000D01*
X131638699Y-129687327D01*
X131817327Y-129508698D01*
X131914000Y-129275309D01*
X131914000Y-129034750D01*
X131755250Y-128876000D01*
X130556000Y-128876000D01*
X130302000Y-128876000D01*
X129102750Y-128876000D01*
X128944000Y-129034750D01*
X125691000Y-129034750D01*
X125532250Y-128876000D01*
X124333000Y-128876000D01*
X124079000Y-128876000D01*
X122879750Y-128876000D01*
X122721000Y-129034750D01*
X119214000Y-129034750D01*
X119055250Y-128876000D01*
X117856000Y-128876000D01*
X117602000Y-128876000D01*
X116402750Y-128876000D01*
X116244000Y-129034750D01*
X101483973Y-129034750D01*
X100728601Y-128721092D01*
X99879245Y-128720350D01*
X99094260Y-129044700D01*
X98500000Y-129637924D01*
X98500000Y-128222691D01*
X116244000Y-128222691D01*
X116244000Y-128463250D01*
X116402750Y-128622000D01*
X117602000Y-128622000D01*
X117602000Y-127872750D01*
X117856000Y-127872750D01*
X117856000Y-128622000D01*
X119055250Y-128622000D01*
X119214000Y-128463250D01*
X119214000Y-128222691D01*
X122721000Y-128222691D01*
X122721000Y-128463250D01*
X122879750Y-128622000D01*
X124079000Y-128622000D01*
X124079000Y-127872750D01*
X124333000Y-127872750D01*
X124333000Y-128622000D01*
X125532250Y-128622000D01*
X125691000Y-128463250D01*
X125691000Y-128222691D01*
X128944000Y-128222691D01*
X128944000Y-128463250D01*
X129102750Y-128622000D01*
X130302000Y-128622000D01*
X130302000Y-127872750D01*
X130556000Y-127872750D01*
X130556000Y-128622000D01*
X131755250Y-128622000D01*
X131914000Y-128463250D01*
X131914000Y-128222691D01*
X131817327Y-127989302D01*
X131638699Y-127810673D01*
X131405310Y-127714000D01*
X130714750Y-127714000D01*
X130556000Y-127872750D01*
X130302000Y-127872750D01*
X130143250Y-127714000D01*
X129452690Y-127714000D01*
X129219301Y-127810673D01*
X129040673Y-127989302D01*
X128944000Y-128222691D01*
X125691000Y-128222691D01*
X125594327Y-127989302D01*
X125415699Y-127810673D01*
X125182310Y-127714000D01*
X124491750Y-127714000D01*
X124333000Y-127872750D01*
X124079000Y-127872750D01*
X123920250Y-127714000D01*
X123229690Y-127714000D01*
X122996301Y-127810673D01*
X122817673Y-127989302D01*
X122721000Y-128222691D01*
X119214000Y-128222691D01*
X119117327Y-127989302D01*
X118938699Y-127810673D01*
X118705310Y-127714000D01*
X118014750Y-127714000D01*
X117856000Y-127872750D01*
X117602000Y-127872750D01*
X117443250Y-127714000D01*
X116752690Y-127714000D01*
X116519301Y-127810673D01*
X116340673Y-127989302D01*
X116244000Y-128222691D01*
X98500000Y-128222691D01*
X98500000Y-127615913D01*
X147612816Y-127615913D01*
X147806046Y-128168320D01*
X148195964Y-128604732D01*
X148723209Y-128858709D01*
X148738974Y-128861358D01*
X148971000Y-128740217D01*
X148971000Y-127381000D01*
X147757076Y-127381000D01*
X147612816Y-127615913D01*
X98500000Y-127615913D01*
X98500000Y-125114278D01*
X104192666Y-125114278D01*
X104192666Y-125329838D01*
X104289339Y-125563227D01*
X104467968Y-125741855D01*
X104701357Y-125838528D01*
X104941916Y-125838528D01*
X105100666Y-125679778D01*
X105100666Y-124955528D01*
X104351416Y-124955528D01*
X104192666Y-125114278D01*
X98500000Y-125114278D01*
X98500000Y-124327218D01*
X104192666Y-124327218D01*
X104192666Y-124542778D01*
X104351416Y-124701528D01*
X105100666Y-124701528D01*
X105100666Y-123977278D01*
X104941916Y-123818528D01*
X104701357Y-123818528D01*
X104467968Y-123915201D01*
X104289339Y-124093829D01*
X104192666Y-124327218D01*
X98500000Y-124327218D01*
X98500000Y-120669278D01*
X104133000Y-120669278D01*
X104133000Y-120884838D01*
X104229673Y-121118227D01*
X104408302Y-121296855D01*
X104641691Y-121393528D01*
X104882250Y-121393528D01*
X105041000Y-121234778D01*
X105041000Y-120510528D01*
X104291750Y-120510528D01*
X104133000Y-120669278D01*
X98500000Y-120669278D01*
X98500000Y-119882218D01*
X104133000Y-119882218D01*
X104133000Y-120097778D01*
X104291750Y-120256528D01*
X105041000Y-120256528D01*
X105041000Y-119532278D01*
X104882250Y-119373528D01*
X104641691Y-119373528D01*
X104408302Y-119470201D01*
X104229673Y-119648829D01*
X104133000Y-119882218D01*
X98500000Y-119882218D01*
X98500000Y-104285000D01*
X108167560Y-104285000D01*
X108167560Y-105485000D01*
X108211838Y-105720317D01*
X108350910Y-105936441D01*
X108563110Y-106081431D01*
X108815000Y-106132440D01*
X109965000Y-106132440D01*
X110200317Y-106088162D01*
X110416441Y-105949090D01*
X110561431Y-105736890D01*
X110612440Y-105485000D01*
X110612440Y-104285000D01*
X110568162Y-104049683D01*
X110429090Y-103833559D01*
X110216890Y-103688569D01*
X109965000Y-103637560D01*
X108815000Y-103637560D01*
X108579683Y-103681838D01*
X108363559Y-103820910D01*
X108218569Y-104033110D01*
X108167560Y-104285000D01*
X98500000Y-104285000D01*
X98500000Y-101071796D01*
X99091101Y-101663929D01*
X99875519Y-101989648D01*
X100724875Y-101990390D01*
X101509860Y-101666040D01*
X102110969Y-101065979D01*
X102436688Y-100281561D01*
X102437430Y-99432205D01*
X102136992Y-98705090D01*
X121285000Y-98705090D01*
X121285000Y-99409250D01*
X121443750Y-99568000D01*
X122809000Y-99568000D01*
X122809000Y-98355150D01*
X123063000Y-98355150D01*
X123063000Y-99568000D01*
X124428250Y-99568000D01*
X124587000Y-99409250D01*
X124587000Y-98705090D01*
X124490327Y-98471701D01*
X124311698Y-98293073D01*
X124078309Y-98196400D01*
X123221750Y-98196400D01*
X123063000Y-98355150D01*
X122809000Y-98355150D01*
X122650250Y-98196400D01*
X121793691Y-98196400D01*
X121560302Y-98293073D01*
X121381673Y-98471701D01*
X121285000Y-98705090D01*
X102136992Y-98705090D01*
X102113080Y-98647220D01*
X101513019Y-98046111D01*
X101076856Y-97865000D01*
X128485888Y-97865000D01*
X124915988Y-101434900D01*
G36*
X166176131Y-101378338D02*
X166245540Y-101424716D01*
X166245540Y-101917020D01*
X166288064Y-102130804D01*
X166322878Y-102305827D01*
X166543120Y-102635440D01*
X167750099Y-103842420D01*
X167931066Y-103963338D01*
X168079714Y-104062662D01*
X168468520Y-104140000D01*
X169251160Y-104140000D01*
X170434000Y-105322841D01*
X170434000Y-118324159D01*
X168971706Y-119786454D01*
X168613218Y-119786141D01*
X168062220Y-120013808D01*
X167640290Y-120435003D01*
X167623459Y-120475537D01*
X167423805Y-120410800D01*
X166549605Y-121285000D01*
X166563748Y-121299143D01*
X166384143Y-121478748D01*
X166370000Y-121464605D01*
X165495800Y-122338805D01*
X165577741Y-122591516D01*
X166138030Y-122795248D01*
X166459654Y-122781106D01*
X163254314Y-125986446D01*
X163125690Y-125786559D01*
X162913490Y-125641569D01*
X162661600Y-125590560D01*
X160934400Y-125590560D01*
X160699083Y-125634838D01*
X160482959Y-125773910D01*
X160337969Y-125986110D01*
X160329600Y-126027439D01*
X160317670Y-126009585D01*
X159831489Y-125684729D01*
X159258000Y-125570655D01*
X159226485Y-125576924D01*
X159272100Y-125347600D01*
X159272100Y-125078127D01*
X159323441Y-125045090D01*
X159468431Y-124832890D01*
X159519440Y-124581000D01*
X159519440Y-124082138D01*
X159550100Y-123928000D01*
X159550100Y-122575893D01*
X159597780Y-122556192D01*
X160019710Y-122134997D01*
X160020095Y-122134069D01*
X160440003Y-122554710D01*
X160990602Y-122783339D01*
X161586782Y-122783859D01*
X162137780Y-122556192D01*
X162559710Y-122134997D01*
X162560095Y-122134069D01*
X162980003Y-122554710D01*
X163530602Y-122783339D01*
X164126782Y-122783859D01*
X164677780Y-122556192D01*
X165099710Y-122134997D01*
X165116541Y-122094463D01*
X165316195Y-122159200D01*
X166190395Y-121285000D01*
X165316195Y-120410800D01*
X165116967Y-120475399D01*
X165101192Y-120437220D01*
X164895526Y-120231195D01*
X165495800Y-120231195D01*
X166370000Y-121105395D01*
X167244200Y-120231195D01*
X167162259Y-119978484D01*
X166601970Y-119774752D01*
X166006365Y-119800942D01*
X165577741Y-119978484D01*
X165495800Y-120231195D01*
X164895526Y-120231195D01*
X164679997Y-120015290D01*
X164129398Y-119786661D01*
X163533218Y-119786141D01*
X162982220Y-120013808D01*
X162560290Y-120435003D01*
X162559905Y-120435931D01*
X162139997Y-120015290D01*
X161589398Y-119786661D01*
X160993218Y-119786141D01*
X160442220Y-120013808D01*
X160020290Y-120435003D01*
X160019905Y-120435931D01*
X159599997Y-120015290D01*
X159049398Y-119786661D01*
X158453218Y-119786141D01*
X157902220Y-120013808D01*
X157480290Y-120435003D01*
X157479905Y-120435931D01*
X157059997Y-120015290D01*
X156509398Y-119786661D01*
X155913218Y-119786141D01*
X155362220Y-120013808D01*
X154940290Y-120435003D01*
X154939905Y-120435931D01*
X154519997Y-120015290D01*
X153969398Y-119786661D01*
X153373218Y-119786141D01*
X152822220Y-120013808D01*
X152400290Y-120435003D01*
X152399905Y-120435931D01*
X151979997Y-120015290D01*
X151429398Y-119786661D01*
X150833218Y-119786141D01*
X150282220Y-120013808D01*
X149860290Y-120435003D01*
X149859905Y-120435931D01*
X149439997Y-120015290D01*
X148889398Y-119786661D01*
X148293218Y-119786141D01*
X147742220Y-120013808D01*
X147320290Y-120435003D01*
X147319905Y-120435931D01*
X146899997Y-120015290D01*
X146349398Y-119786661D01*
X145753218Y-119786141D01*
X145202220Y-120013808D01*
X144780290Y-120435003D01*
X144779905Y-120435931D01*
X144359997Y-120015290D01*
X143809398Y-119786661D01*
X143213218Y-119786141D01*
X142662220Y-120013808D01*
X142240290Y-120435003D01*
X142239905Y-120435931D01*
X141819997Y-120015290D01*
X141269398Y-119786661D01*
X141060034Y-119786478D01*
X153322957Y-107523555D01*
X153370602Y-107543339D01*
X153966782Y-107543859D01*
X154517780Y-107316192D01*
X154939710Y-106894997D01*
X154940095Y-106894069D01*
X155360003Y-107314710D01*
X155910602Y-107543339D01*
X156506782Y-107543859D01*
X157057780Y-107316192D01*
X157479710Y-106894997D01*
X157480095Y-106894069D01*
X157900003Y-107314710D01*
X158450602Y-107543339D01*
X159046782Y-107543859D01*
X159597780Y-107316192D01*
X160019710Y-106894997D01*
X160020095Y-106894069D01*
X160440003Y-107314710D01*
X160990602Y-107543339D01*
X161586782Y-107543859D01*
X162137780Y-107316192D01*
X162559710Y-106894997D01*
X162560095Y-106894069D01*
X162980003Y-107314710D01*
X163530602Y-107543339D01*
X164126782Y-107543859D01*
X164677780Y-107316192D01*
X165099710Y-106894997D01*
X165100095Y-106894069D01*
X165520003Y-107314710D01*
X166070602Y-107543339D01*
X166666782Y-107543859D01*
X167217780Y-107316192D01*
X167435546Y-107098805D01*
X168035800Y-107098805D01*
X168117741Y-107351516D01*
X168678030Y-107555248D01*
X169273635Y-107529058D01*
X169702259Y-107351516D01*
X169784200Y-107098805D01*
X168910000Y-106224605D01*
X168035800Y-107098805D01*
X167435546Y-107098805D01*
X167639710Y-106894997D01*
X167656541Y-106854463D01*
X167856195Y-106919200D01*
X168730395Y-106045000D01*
X169089605Y-106045000D01*
X169963805Y-106919200D01*
X170216516Y-106837259D01*
X170420248Y-106276970D01*
X170394058Y-105681365D01*
X170216516Y-105252741D01*
X169963805Y-105170800D01*
X169089605Y-106045000D01*
X168730395Y-106045000D01*
X167856195Y-105170800D01*
X167656967Y-105235399D01*
X167641192Y-105197220D01*
X167435526Y-104991195D01*
X168035800Y-104991195D01*
X168910000Y-105865395D01*
X169784200Y-104991195D01*
X169702259Y-104738484D01*
X169141970Y-104534752D01*
X168546365Y-104560942D01*
X168117741Y-104738484D01*
X168035800Y-104991195D01*
X167435526Y-104991195D01*
X167219997Y-104775290D01*
X166669398Y-104546661D01*
X166073218Y-104546141D01*
X165522220Y-104773808D01*
X165100290Y-105195003D01*
X165099905Y-105195931D01*
X164679997Y-104775290D01*
X164129398Y-104546661D01*
X163533218Y-104546141D01*
X162982220Y-104773808D01*
X162560290Y-105195003D01*
X162559905Y-105195931D01*
X162139997Y-104775290D01*
X162090100Y-104754571D01*
X162090100Y-104471412D01*
X162747296Y-103814216D01*
X162920736Y-103554645D01*
X162981640Y-103248460D01*
X162981640Y-101568975D01*
X163266949Y-101378338D01*
X163451540Y-101102078D01*
X163636131Y-101378338D01*
X164134121Y-101711084D01*
X164721540Y-101827929D01*
X165308959Y-101711084D01*
X165806949Y-101378338D01*
X165991540Y-101102078D01*
X166176131Y-101378338D01*
X166176131Y-101378338D01*
G37*
X166176131Y-101378338D02*
X166245540Y-101424716D01*
X166245540Y-101917020D01*
X166288064Y-102130804D01*
X166322878Y-102305827D01*
X166543120Y-102635440D01*
X167750099Y-103842420D01*
X167931066Y-103963338D01*
X168079714Y-104062662D01*
X168468520Y-104140000D01*
X169251160Y-104140000D01*
X170434000Y-105322841D01*
X170434000Y-118324159D01*
X168971706Y-119786454D01*
X168613218Y-119786141D01*
X168062220Y-120013808D01*
X167640290Y-120435003D01*
X167623459Y-120475537D01*
X167423805Y-120410800D01*
X166549605Y-121285000D01*
X166563748Y-121299143D01*
X166384143Y-121478748D01*
X166370000Y-121464605D01*
X165495800Y-122338805D01*
X165577741Y-122591516D01*
X166138030Y-122795248D01*
X166459654Y-122781106D01*
X163254314Y-125986446D01*
X163125690Y-125786559D01*
X162913490Y-125641569D01*
X162661600Y-125590560D01*
X160934400Y-125590560D01*
X160699083Y-125634838D01*
X160482959Y-125773910D01*
X160337969Y-125986110D01*
X160329600Y-126027439D01*
X160317670Y-126009585D01*
X159831489Y-125684729D01*
X159258000Y-125570655D01*
X159226485Y-125576924D01*
X159272100Y-125347600D01*
X159272100Y-125078127D01*
X159323441Y-125045090D01*
X159468431Y-124832890D01*
X159519440Y-124581000D01*
X159519440Y-124082138D01*
X159550100Y-123928000D01*
X159550100Y-122575893D01*
X159597780Y-122556192D01*
X160019710Y-122134997D01*
X160020095Y-122134069D01*
X160440003Y-122554710D01*
X160990602Y-122783339D01*
X161586782Y-122783859D01*
X162137780Y-122556192D01*
X162559710Y-122134997D01*
X162560095Y-122134069D01*
X162980003Y-122554710D01*
X163530602Y-122783339D01*
X164126782Y-122783859D01*
X164677780Y-122556192D01*
X165099710Y-122134997D01*
X165116541Y-122094463D01*
X165316195Y-122159200D01*
X166190395Y-121285000D01*
X165316195Y-120410800D01*
X165116967Y-120475399D01*
X165101192Y-120437220D01*
X164895526Y-120231195D01*
X165495800Y-120231195D01*
X166370000Y-121105395D01*
X167244200Y-120231195D01*
X167162259Y-119978484D01*
X166601970Y-119774752D01*
X166006365Y-119800942D01*
X165577741Y-119978484D01*
X165495800Y-120231195D01*
X164895526Y-120231195D01*
X164679997Y-120015290D01*
X164129398Y-119786661D01*
X163533218Y-119786141D01*
X162982220Y-120013808D01*
X162560290Y-120435003D01*
X162559905Y-120435931D01*
X162139997Y-120015290D01*
X161589398Y-119786661D01*
X160993218Y-119786141D01*
X160442220Y-120013808D01*
X160020290Y-120435003D01*
X160019905Y-120435931D01*
X159599997Y-120015290D01*
X159049398Y-119786661D01*
X158453218Y-119786141D01*
X157902220Y-120013808D01*
X157480290Y-120435003D01*
X157479905Y-120435931D01*
X157059997Y-120015290D01*
X156509398Y-119786661D01*
X155913218Y-119786141D01*
X155362220Y-120013808D01*
X154940290Y-120435003D01*
X154939905Y-120435931D01*
X154519997Y-120015290D01*
X153969398Y-119786661D01*
X153373218Y-119786141D01*
X152822220Y-120013808D01*
X152400290Y-120435003D01*
X152399905Y-120435931D01*
X151979997Y-120015290D01*
X151429398Y-119786661D01*
X150833218Y-119786141D01*
X150282220Y-120013808D01*
X149860290Y-120435003D01*
X149859905Y-120435931D01*
X149439997Y-120015290D01*
X148889398Y-119786661D01*
X148293218Y-119786141D01*
X147742220Y-120013808D01*
X147320290Y-120435003D01*
X147319905Y-120435931D01*
X146899997Y-120015290D01*
X146349398Y-119786661D01*
X145753218Y-119786141D01*
X145202220Y-120013808D01*
X144780290Y-120435003D01*
X144779905Y-120435931D01*
X144359997Y-120015290D01*
X143809398Y-119786661D01*
X143213218Y-119786141D01*
X142662220Y-120013808D01*
X142240290Y-120435003D01*
X142239905Y-120435931D01*
X141819997Y-120015290D01*
X141269398Y-119786661D01*
X141060034Y-119786478D01*
X153322957Y-107523555D01*
X153370602Y-107543339D01*
X153966782Y-107543859D01*
X154517780Y-107316192D01*
X154939710Y-106894997D01*
X154940095Y-106894069D01*
X155360003Y-107314710D01*
X155910602Y-107543339D01*
X156506782Y-107543859D01*
X157057780Y-107316192D01*
X157479710Y-106894997D01*
X157480095Y-106894069D01*
X157900003Y-107314710D01*
X158450602Y-107543339D01*
X159046782Y-107543859D01*
X159597780Y-107316192D01*
X160019710Y-106894997D01*
X160020095Y-106894069D01*
X160440003Y-107314710D01*
X160990602Y-107543339D01*
X161586782Y-107543859D01*
X162137780Y-107316192D01*
X162559710Y-106894997D01*
X162560095Y-106894069D01*
X162980003Y-107314710D01*
X163530602Y-107543339D01*
X164126782Y-107543859D01*
X164677780Y-107316192D01*
X165099710Y-106894997D01*
X165100095Y-106894069D01*
X165520003Y-107314710D01*
X166070602Y-107543339D01*
X166666782Y-107543859D01*
X167217780Y-107316192D01*
X167435546Y-107098805D01*
X168035800Y-107098805D01*
X168117741Y-107351516D01*
X168678030Y-107555248D01*
X169273635Y-107529058D01*
X169702259Y-107351516D01*
X169784200Y-107098805D01*
X168910000Y-106224605D01*
X168035800Y-107098805D01*
X167435546Y-107098805D01*
X167639710Y-106894997D01*
X167656541Y-106854463D01*
X167856195Y-106919200D01*
X168730395Y-106045000D01*
X169089605Y-106045000D01*
X169963805Y-106919200D01*
X170216516Y-106837259D01*
X170420248Y-106276970D01*
X170394058Y-105681365D01*
X170216516Y-105252741D01*
X169963805Y-105170800D01*
X169089605Y-106045000D01*
X168730395Y-106045000D01*
X167856195Y-105170800D01*
X167656967Y-105235399D01*
X167641192Y-105197220D01*
X167435526Y-104991195D01*
X168035800Y-104991195D01*
X168910000Y-105865395D01*
X169784200Y-104991195D01*
X169702259Y-104738484D01*
X169141970Y-104534752D01*
X168546365Y-104560942D01*
X168117741Y-104738484D01*
X168035800Y-104991195D01*
X167435526Y-104991195D01*
X167219997Y-104775290D01*
X166669398Y-104546661D01*
X166073218Y-104546141D01*
X165522220Y-104773808D01*
X165100290Y-105195003D01*
X165099905Y-105195931D01*
X164679997Y-104775290D01*
X164129398Y-104546661D01*
X163533218Y-104546141D01*
X162982220Y-104773808D01*
X162560290Y-105195003D01*
X162559905Y-105195931D01*
X162139997Y-104775290D01*
X162090100Y-104754571D01*
X162090100Y-104471412D01*
X162747296Y-103814216D01*
X162920736Y-103554645D01*
X162981640Y-103248460D01*
X162981640Y-101568975D01*
X163266949Y-101378338D01*
X163451540Y-101102078D01*
X163636131Y-101378338D01*
X164134121Y-101711084D01*
X164721540Y-101827929D01*
X165308959Y-101711084D01*
X165806949Y-101378338D01*
X165991540Y-101102078D01*
X166176131Y-101378338D01*
G36*
X130331986Y-98750268D02*
X130166540Y-99328020D01*
X130166540Y-99728020D01*
X131574540Y-99728020D01*
X131574540Y-99708020D01*
X131828540Y-99708020D01*
X131828540Y-99728020D01*
X131848540Y-99728020D01*
X131848540Y-99982020D01*
X131828540Y-99982020D01*
X131828540Y-101625398D01*
X132066280Y-101746056D01*
X132171626Y-101721776D01*
X132697146Y-101430232D01*
X132965348Y-101092810D01*
X133156131Y-101378338D01*
X133225540Y-101424716D01*
X133225540Y-101496179D01*
X130962720Y-103759000D01*
X124209594Y-103759000D01*
X124180415Y-103715330D01*
X123865634Y-103505000D01*
X124180415Y-103294670D01*
X124353854Y-103035100D01*
X125247400Y-103035100D01*
X125553585Y-102974196D01*
X125813156Y-102800756D01*
X128631892Y-99982020D01*
X130166540Y-99982020D01*
X130166540Y-100382020D01*
X130331986Y-100959772D01*
X130705934Y-101430232D01*
X131231454Y-101721776D01*
X131336800Y-101746056D01*
X131574540Y-101625398D01*
X131574540Y-99982020D01*
X130166540Y-99982020D01*
X128631892Y-99982020D01*
X130023812Y-98590100D01*
X130459297Y-98590100D01*
X130331986Y-98750268D01*
X130331986Y-98750268D01*
G37*
X130331986Y-98750268D02*
X130166540Y-99328020D01*
X130166540Y-99728020D01*
X131574540Y-99728020D01*
X131574540Y-99708020D01*
X131828540Y-99708020D01*
X131828540Y-99728020D01*
X131848540Y-99728020D01*
X131848540Y-99982020D01*
X131828540Y-99982020D01*
X131828540Y-101625398D01*
X132066280Y-101746056D01*
X132171626Y-101721776D01*
X132697146Y-101430232D01*
X132965348Y-101092810D01*
X133156131Y-101378338D01*
X133225540Y-101424716D01*
X133225540Y-101496179D01*
X130962720Y-103759000D01*
X124209594Y-103759000D01*
X124180415Y-103715330D01*
X123865634Y-103505000D01*
X124180415Y-103294670D01*
X124353854Y-103035100D01*
X125247400Y-103035100D01*
X125553585Y-102974196D01*
X125813156Y-102800756D01*
X128631892Y-99982020D01*
X130166540Y-99982020D01*
X130166540Y-100382020D01*
X130331986Y-100959772D01*
X130705934Y-101430232D01*
X131231454Y-101721776D01*
X131336800Y-101746056D01*
X131574540Y-101625398D01*
X131574540Y-99982020D01*
X130166540Y-99982020D01*
X128631892Y-99982020D01*
X130023812Y-98590100D01*
X130459297Y-98590100D01*
X130331986Y-98750268D01*
M02*
