G04 #@! TF.FileFunction,Other,Fab,Top*
%FSLAX46Y46*%
G04 Gerber Fmt 4.6, Leading zero omitted, Abs format (unit mm)*
G04 Created by KiCad (PCBNEW 4.0.1-3.201512221402+6198~38~ubuntu14.04.1-stable) date Tue 23 Aug 2016 07:58:39 PM PDT*
%MOMM*%
G01*
G04 APERTURE LIST*
%ADD10C,0.100000*%
%ADD11C,0.300000*%
%ADD12C,0.200000*%
%ADD13C,0.050000*%
%ADD14C,0.150000*%
G04 APERTURE END LIST*
D10*
D11*
X167577144Y-136346429D02*
X167434286Y-136275000D01*
X167362858Y-136203571D01*
X167291429Y-136060714D01*
X167291429Y-135989286D01*
X167362858Y-135846429D01*
X167434286Y-135775000D01*
X167577144Y-135703571D01*
X167862858Y-135703571D01*
X168005715Y-135775000D01*
X168077144Y-135846429D01*
X168148572Y-135989286D01*
X168148572Y-136060714D01*
X168077144Y-136203571D01*
X168005715Y-136275000D01*
X167862858Y-136346429D01*
X167577144Y-136346429D01*
X167434286Y-136417857D01*
X167362858Y-136489286D01*
X167291429Y-136632143D01*
X167291429Y-136917857D01*
X167362858Y-137060714D01*
X167434286Y-137132143D01*
X167577144Y-137203571D01*
X167862858Y-137203571D01*
X168005715Y-137132143D01*
X168077144Y-137060714D01*
X168148572Y-136917857D01*
X168148572Y-136632143D01*
X168077144Y-136489286D01*
X168005715Y-136417857D01*
X167862858Y-136346429D01*
X169862857Y-135632143D02*
X168577143Y-137560714D01*
X171148572Y-137203571D02*
X170291429Y-137203571D01*
X170720001Y-137203571D02*
X170720001Y-135703571D01*
X170577144Y-135917857D01*
X170434286Y-136060714D01*
X170291429Y-136132143D01*
X171648572Y-135703571D02*
X172577143Y-135703571D01*
X172077143Y-136275000D01*
X172291429Y-136275000D01*
X172434286Y-136346429D01*
X172505715Y-136417857D01*
X172577143Y-136560714D01*
X172577143Y-136917857D01*
X172505715Y-137060714D01*
X172434286Y-137132143D01*
X172291429Y-137203571D01*
X171862857Y-137203571D01*
X171720000Y-137132143D01*
X171648572Y-137060714D01*
X174291428Y-135632143D02*
X173005714Y-137560714D01*
X175577143Y-137203571D02*
X174720000Y-137203571D01*
X175148572Y-137203571D02*
X175148572Y-135703571D01*
X175005715Y-135917857D01*
X174862857Y-136060714D01*
X174720000Y-136132143D01*
X176862857Y-135703571D02*
X176577143Y-135703571D01*
X176434286Y-135775000D01*
X176362857Y-135846429D01*
X176220000Y-136060714D01*
X176148571Y-136346429D01*
X176148571Y-136917857D01*
X176220000Y-137060714D01*
X176291428Y-137132143D01*
X176434286Y-137203571D01*
X176720000Y-137203571D01*
X176862857Y-137132143D01*
X176934286Y-137060714D01*
X177005714Y-136917857D01*
X177005714Y-136560714D01*
X176934286Y-136417857D01*
X176862857Y-136346429D01*
X176720000Y-136275000D01*
X176434286Y-136275000D01*
X176291428Y-136346429D01*
X176220000Y-136417857D01*
X176148571Y-136560714D01*
X141607144Y-94023571D02*
X140892858Y-94023571D01*
X140892858Y-92523571D01*
X142964287Y-93880714D02*
X142892858Y-93952143D01*
X142678572Y-94023571D01*
X142535715Y-94023571D01*
X142321430Y-93952143D01*
X142178572Y-93809286D01*
X142107144Y-93666429D01*
X142035715Y-93380714D01*
X142035715Y-93166429D01*
X142107144Y-92880714D01*
X142178572Y-92737857D01*
X142321430Y-92595000D01*
X142535715Y-92523571D01*
X142678572Y-92523571D01*
X142892858Y-92595000D01*
X142964287Y-92666429D01*
X143607144Y-94023571D02*
X143607144Y-92523571D01*
X143964287Y-92523571D01*
X144178572Y-92595000D01*
X144321430Y-92737857D01*
X144392858Y-92880714D01*
X144464287Y-93166429D01*
X144464287Y-93380714D01*
X144392858Y-93666429D01*
X144321430Y-93809286D01*
X144178572Y-93952143D01*
X143964287Y-94023571D01*
X143607144Y-94023571D01*
X145107144Y-93452143D02*
X146250001Y-93452143D01*
X147678573Y-94023571D02*
X146964287Y-94023571D01*
X146964287Y-92523571D01*
X148178573Y-94023571D02*
X148178573Y-93023571D01*
X148178573Y-92523571D02*
X148107144Y-92595000D01*
X148178573Y-92666429D01*
X148250001Y-92595000D01*
X148178573Y-92523571D01*
X148178573Y-92666429D01*
X148892859Y-94023571D02*
X148892859Y-92523571D01*
X149250002Y-92523571D01*
X149464287Y-92595000D01*
X149607145Y-92737857D01*
X149678573Y-92880714D01*
X149750002Y-93166429D01*
X149750002Y-93380714D01*
X149678573Y-93666429D01*
X149607145Y-93809286D01*
X149464287Y-93952143D01*
X149250002Y-94023571D01*
X148892859Y-94023571D01*
X150321430Y-93595000D02*
X151035716Y-93595000D01*
X150178573Y-94023571D02*
X150678573Y-92523571D01*
X151178573Y-94023571D01*
X152535716Y-94023571D02*
X152035716Y-93309286D01*
X151678573Y-94023571D02*
X151678573Y-92523571D01*
X152250001Y-92523571D01*
X152392859Y-92595000D01*
X152464287Y-92666429D01*
X152535716Y-92809286D01*
X152535716Y-93023571D01*
X152464287Y-93166429D01*
X152392859Y-93237857D01*
X152250001Y-93309286D01*
X151678573Y-93309286D01*
X153178573Y-93452143D02*
X154321430Y-93452143D01*
X154964287Y-93952143D02*
X155178573Y-94023571D01*
X155535716Y-94023571D01*
X155678573Y-93952143D01*
X155750002Y-93880714D01*
X155821430Y-93737857D01*
X155821430Y-93595000D01*
X155750002Y-93452143D01*
X155678573Y-93380714D01*
X155535716Y-93309286D01*
X155250002Y-93237857D01*
X155107144Y-93166429D01*
X155035716Y-93095000D01*
X154964287Y-92952143D01*
X154964287Y-92809286D01*
X155035716Y-92666429D01*
X155107144Y-92595000D01*
X155250002Y-92523571D01*
X155607144Y-92523571D01*
X155821430Y-92595000D01*
X156464287Y-94023571D02*
X156464287Y-92523571D01*
X156821430Y-92523571D01*
X157035715Y-92595000D01*
X157178573Y-92737857D01*
X157250001Y-92880714D01*
X157321430Y-93166429D01*
X157321430Y-93380714D01*
X157250001Y-93666429D01*
X157178573Y-93809286D01*
X157035715Y-93952143D01*
X156821430Y-94023571D01*
X156464287Y-94023571D01*
X158892858Y-92523571D02*
X159750001Y-92523571D01*
X159321430Y-94023571D02*
X159321430Y-92523571D01*
X160821429Y-93952143D02*
X160678572Y-94023571D01*
X160392858Y-94023571D01*
X160250001Y-93952143D01*
X160178572Y-93809286D01*
X160178572Y-93237857D01*
X160250001Y-93095000D01*
X160392858Y-93023571D01*
X160678572Y-93023571D01*
X160821429Y-93095000D01*
X160892858Y-93237857D01*
X160892858Y-93380714D01*
X160178572Y-93523571D01*
X162107143Y-93952143D02*
X161964286Y-94023571D01*
X161678572Y-94023571D01*
X161535715Y-93952143D01*
X161464286Y-93809286D01*
X161464286Y-93237857D01*
X161535715Y-93095000D01*
X161678572Y-93023571D01*
X161964286Y-93023571D01*
X162107143Y-93095000D01*
X162178572Y-93237857D01*
X162178572Y-93380714D01*
X161464286Y-93523571D01*
X162821429Y-93023571D02*
X162821429Y-94023571D01*
X162821429Y-93166429D02*
X162892857Y-93095000D01*
X163035715Y-93023571D01*
X163250000Y-93023571D01*
X163392857Y-93095000D01*
X163464286Y-93237857D01*
X163464286Y-94023571D01*
X164107143Y-93952143D02*
X164250000Y-94023571D01*
X164535715Y-94023571D01*
X164678572Y-93952143D01*
X164750000Y-93809286D01*
X164750000Y-93737857D01*
X164678572Y-93595000D01*
X164535715Y-93523571D01*
X164321429Y-93523571D01*
X164178572Y-93452143D01*
X164107143Y-93309286D01*
X164107143Y-93237857D01*
X164178572Y-93095000D01*
X164321429Y-93023571D01*
X164535715Y-93023571D01*
X164678572Y-93095000D01*
X165250001Y-93023571D02*
X165607144Y-94023571D01*
X165964286Y-93023571D02*
X165607144Y-94023571D01*
X165464286Y-94380714D01*
X165392858Y-94452143D01*
X165250001Y-94523571D01*
X167678572Y-94023571D02*
X167678572Y-92523571D01*
X167678572Y-93237857D02*
X168535715Y-93237857D01*
X168535715Y-94023571D02*
X168535715Y-92523571D01*
X169892858Y-94023571D02*
X169892858Y-93237857D01*
X169821429Y-93095000D01*
X169678572Y-93023571D01*
X169392858Y-93023571D01*
X169250001Y-93095000D01*
X169892858Y-93952143D02*
X169750001Y-94023571D01*
X169392858Y-94023571D01*
X169250001Y-93952143D01*
X169178572Y-93809286D01*
X169178572Y-93666429D01*
X169250001Y-93523571D01*
X169392858Y-93452143D01*
X169750001Y-93452143D01*
X169892858Y-93380714D01*
X170392858Y-93023571D02*
X170964287Y-93023571D01*
X170607144Y-92523571D02*
X170607144Y-93809286D01*
X170678572Y-93952143D01*
X170821430Y-94023571D01*
X170964287Y-94023571D01*
X172464287Y-93023571D02*
X172821430Y-94023571D01*
X173178572Y-93023571D01*
X174535715Y-94023571D02*
X173678572Y-94023571D01*
X174107144Y-94023571D02*
X174107144Y-92523571D01*
X173964287Y-92737857D01*
X173821429Y-92880714D01*
X173678572Y-92952143D01*
X175178572Y-93880714D02*
X175250000Y-93952143D01*
X175178572Y-94023571D01*
X175107143Y-93952143D01*
X175178572Y-93880714D01*
X175178572Y-94023571D01*
X176178572Y-92523571D02*
X176321429Y-92523571D01*
X176464286Y-92595000D01*
X176535715Y-92666429D01*
X176607144Y-92809286D01*
X176678572Y-93095000D01*
X176678572Y-93452143D01*
X176607144Y-93737857D01*
X176535715Y-93880714D01*
X176464286Y-93952143D01*
X176321429Y-94023571D01*
X176178572Y-94023571D01*
X176035715Y-93952143D01*
X175964286Y-93880714D01*
X175892858Y-93737857D01*
X175821429Y-93452143D01*
X175821429Y-93095000D01*
X175892858Y-92809286D01*
X175964286Y-92666429D01*
X176035715Y-92595000D01*
X176178572Y-92523571D01*
D12*
X177800000Y-133985000D02*
X177800000Y-97155000D01*
X97790000Y-133985000D02*
X177800000Y-133985000D01*
X97790000Y-97155000D02*
X97790000Y-133985000D01*
X177800000Y-97155000D02*
X97790000Y-97155000D01*
D13*
X168250000Y-116205000D02*
X170250000Y-116205000D01*
X168250000Y-111705000D02*
X168250000Y-116205000D01*
X170250000Y-111705000D02*
X168250000Y-111705000D01*
X134750000Y-104705000D02*
X134750000Y-122705000D01*
X170250000Y-104705000D02*
X134750000Y-104705000D01*
X170250000Y-122705000D02*
X170250000Y-104705000D01*
X134750000Y-122705000D02*
X170250000Y-122705000D01*
D11*
X162157210Y-127254000D02*
G75*
G03X162157210Y-127254000I-359210J0D01*
G01*
D13*
X163548000Y-125504000D02*
X147348000Y-125504000D01*
X163538000Y-125494000D02*
X163538000Y-128994000D01*
X163558000Y-128984000D02*
X147358000Y-128984000D01*
X147368000Y-125484000D02*
X147368000Y-128984000D01*
X103945666Y-124066528D02*
X103945666Y-125590528D01*
X104199666Y-124066528D02*
X108009666Y-124066528D01*
X104199666Y-124078528D02*
X104199666Y-125578528D01*
X108009666Y-124078528D02*
X108009666Y-125578528D01*
X104199666Y-125590528D02*
X108009666Y-125590528D01*
X103886000Y-119621528D02*
X103886000Y-121145528D01*
X104140000Y-119621528D02*
X107950000Y-119621528D01*
X104140000Y-119633528D02*
X104140000Y-121133528D01*
X107950000Y-119633528D02*
X107950000Y-121133528D01*
X104140000Y-121145528D02*
X107950000Y-121145528D01*
X156272000Y-123456000D02*
X159172000Y-123456000D01*
X156272000Y-123456000D02*
X156272000Y-124956000D01*
X159172000Y-123456000D02*
X159172000Y-124956000D01*
X156272000Y-124956000D02*
X159172000Y-124956000D01*
X112102666Y-125578528D02*
X109202666Y-125578528D01*
X112102666Y-125578528D02*
X112102666Y-124078528D01*
X109202666Y-125578528D02*
X109202666Y-124078528D01*
X112102666Y-124078528D02*
X109202666Y-124078528D01*
X131179000Y-120204000D02*
X131179000Y-123104000D01*
X131179000Y-120204000D02*
X129679000Y-120204000D01*
X131179000Y-123104000D02*
X129679000Y-123104000D01*
X129679000Y-120204000D02*
X129679000Y-123104000D01*
X124956000Y-120228000D02*
X124956000Y-123128000D01*
X124956000Y-120228000D02*
X123456000Y-120228000D01*
X124956000Y-123128000D02*
X123456000Y-123128000D01*
X123456000Y-120228000D02*
X123456000Y-123128000D01*
X118479000Y-120204000D02*
X118479000Y-123104000D01*
X118479000Y-120204000D02*
X116979000Y-120204000D01*
X118479000Y-123104000D02*
X116979000Y-123104000D01*
X116979000Y-120204000D02*
X116979000Y-123104000D01*
D12*
X123295210Y-99695000D02*
G75*
G03X123295210Y-99695000I-359210J0D01*
G01*
D13*
X126492000Y-106045000D02*
X126492000Y-98171000D01*
X119380000Y-106045000D02*
X126492000Y-106045000D01*
X119380000Y-98171000D02*
X119380000Y-106045000D01*
X126492000Y-98171000D02*
X119380000Y-98171000D01*
X112102666Y-121133528D02*
X109202666Y-121133528D01*
X112102666Y-121133528D02*
X112102666Y-119633528D01*
X109202666Y-121133528D02*
X109202666Y-119633528D01*
X112102666Y-119633528D02*
X109202666Y-119633528D01*
X131953000Y-124587000D02*
X131953000Y-129667000D01*
X128905000Y-124587000D02*
X131953000Y-124587000D01*
X128905000Y-129667000D02*
X128905000Y-124587000D01*
X131953000Y-129667000D02*
X128905000Y-129667000D01*
X125730000Y-124587000D02*
X125730000Y-129667000D01*
X122682000Y-124587000D02*
X125730000Y-124587000D01*
X122682000Y-129667000D02*
X122682000Y-124587000D01*
X125730000Y-129667000D02*
X122682000Y-129667000D01*
X119253000Y-124587000D02*
X119253000Y-129667000D01*
X116205000Y-124587000D02*
X119253000Y-124587000D01*
X116205000Y-129667000D02*
X116205000Y-124587000D01*
X119253000Y-129667000D02*
X116205000Y-129667000D01*
X108765500Y-104202500D02*
X108765500Y-115886500D01*
X114328100Y-104202500D02*
X108765500Y-104202500D01*
X114328100Y-115886500D02*
X108765500Y-115886500D01*
X114328100Y-104202500D02*
X114328100Y-115886500D01*
D14*
X158202381Y-114538333D02*
X158916667Y-114538333D01*
X159059524Y-114585953D01*
X159154762Y-114681191D01*
X159202381Y-114824048D01*
X159202381Y-114919286D01*
X159202381Y-113538333D02*
X159202381Y-114109762D01*
X159202381Y-113824048D02*
X158202381Y-113824048D01*
X158345238Y-113919286D01*
X158440476Y-114014524D01*
X158488095Y-114109762D01*
X153074667Y-126876381D02*
X153074667Y-127590667D01*
X153027047Y-127733524D01*
X152931809Y-127828762D01*
X152788952Y-127876381D01*
X152693714Y-127876381D01*
X153503238Y-126971619D02*
X153550857Y-126924000D01*
X153646095Y-126876381D01*
X153884191Y-126876381D01*
X153979429Y-126924000D01*
X154027048Y-126971619D01*
X154074667Y-127066857D01*
X154074667Y-127162095D01*
X154027048Y-127304952D01*
X153455619Y-127876381D01*
X154074667Y-127876381D01*
X105172428Y-125230433D02*
X104791475Y-125230433D01*
X104791475Y-124430433D01*
X105439094Y-124811385D02*
X105705761Y-124811385D01*
X105820047Y-125230433D02*
X105439094Y-125230433D01*
X105439094Y-124430433D01*
X105820047Y-124430433D01*
X106162904Y-125230433D02*
X106162904Y-124430433D01*
X106353380Y-124430433D01*
X106467666Y-124468528D01*
X106543857Y-124544718D01*
X106581952Y-124620909D01*
X106620047Y-124773290D01*
X106620047Y-124887576D01*
X106581952Y-125039957D01*
X106543857Y-125116147D01*
X106467666Y-125192338D01*
X106353380Y-125230433D01*
X106162904Y-125230433D01*
X107381952Y-125230433D02*
X106924809Y-125230433D01*
X107153380Y-125230433D02*
X107153380Y-124430433D01*
X107077190Y-124544718D01*
X107000999Y-124620909D01*
X106924809Y-124659004D01*
X105112762Y-120785433D02*
X104731809Y-120785433D01*
X104731809Y-119985433D01*
X105379428Y-120366385D02*
X105646095Y-120366385D01*
X105760381Y-120785433D02*
X105379428Y-120785433D01*
X105379428Y-119985433D01*
X105760381Y-119985433D01*
X106103238Y-120785433D02*
X106103238Y-119985433D01*
X106293714Y-119985433D01*
X106408000Y-120023528D01*
X106484191Y-120099718D01*
X106522286Y-120175909D01*
X106560381Y-120328290D01*
X106560381Y-120442576D01*
X106522286Y-120594957D01*
X106484191Y-120671147D01*
X106408000Y-120747338D01*
X106293714Y-120785433D01*
X106103238Y-120785433D01*
X106865143Y-120061623D02*
X106903238Y-120023528D01*
X106979429Y-119985433D01*
X107169905Y-119985433D01*
X107246095Y-120023528D01*
X107284191Y-120061623D01*
X107322286Y-120137814D01*
X107322286Y-120214004D01*
X107284191Y-120328290D01*
X106827048Y-120785433D01*
X107322286Y-120785433D01*
X157678667Y-124607905D02*
X157412000Y-124226952D01*
X157221524Y-124607905D02*
X157221524Y-123807905D01*
X157526286Y-123807905D01*
X157602477Y-123846000D01*
X157640572Y-123884095D01*
X157678667Y-123960286D01*
X157678667Y-124074571D01*
X157640572Y-124150762D01*
X157602477Y-124188857D01*
X157526286Y-124226952D01*
X157221524Y-124226952D01*
X158440572Y-124607905D02*
X157983429Y-124607905D01*
X158212000Y-124607905D02*
X158212000Y-123807905D01*
X158135810Y-123922190D01*
X158059619Y-123998381D01*
X157983429Y-124036476D01*
X110429333Y-125150433D02*
X110162666Y-124769480D01*
X109972190Y-125150433D02*
X109972190Y-124350433D01*
X110276952Y-124350433D01*
X110353143Y-124388528D01*
X110391238Y-124426623D01*
X110429333Y-124502814D01*
X110429333Y-124617099D01*
X110391238Y-124693290D01*
X110353143Y-124731385D01*
X110276952Y-124769480D01*
X109972190Y-124769480D01*
X110734095Y-124426623D02*
X110772190Y-124388528D01*
X110848381Y-124350433D01*
X111038857Y-124350433D01*
X111115047Y-124388528D01*
X111153143Y-124426623D01*
X111191238Y-124502814D01*
X111191238Y-124579004D01*
X111153143Y-124693290D01*
X110696000Y-125150433D01*
X111191238Y-125150433D01*
X130750905Y-121877333D02*
X130369952Y-122144000D01*
X130750905Y-122334476D02*
X129950905Y-122334476D01*
X129950905Y-122029714D01*
X129989000Y-121953523D01*
X130027095Y-121915428D01*
X130103286Y-121877333D01*
X130217571Y-121877333D01*
X130293762Y-121915428D01*
X130331857Y-121953523D01*
X130369952Y-122029714D01*
X130369952Y-122334476D01*
X129950905Y-121610666D02*
X129950905Y-121115428D01*
X130255667Y-121382095D01*
X130255667Y-121267809D01*
X130293762Y-121191619D01*
X130331857Y-121153523D01*
X130408048Y-121115428D01*
X130598524Y-121115428D01*
X130674714Y-121153523D01*
X130712810Y-121191619D01*
X130750905Y-121267809D01*
X130750905Y-121496381D01*
X130712810Y-121572571D01*
X130674714Y-121610666D01*
X124527905Y-121901333D02*
X124146952Y-122168000D01*
X124527905Y-122358476D02*
X123727905Y-122358476D01*
X123727905Y-122053714D01*
X123766000Y-121977523D01*
X123804095Y-121939428D01*
X123880286Y-121901333D01*
X123994571Y-121901333D01*
X124070762Y-121939428D01*
X124108857Y-121977523D01*
X124146952Y-122053714D01*
X124146952Y-122358476D01*
X123994571Y-121215619D02*
X124527905Y-121215619D01*
X123689810Y-121406095D02*
X124261238Y-121596571D01*
X124261238Y-121101333D01*
X118050905Y-121877333D02*
X117669952Y-122144000D01*
X118050905Y-122334476D02*
X117250905Y-122334476D01*
X117250905Y-122029714D01*
X117289000Y-121953523D01*
X117327095Y-121915428D01*
X117403286Y-121877333D01*
X117517571Y-121877333D01*
X117593762Y-121915428D01*
X117631857Y-121953523D01*
X117669952Y-122029714D01*
X117669952Y-122334476D01*
X117250905Y-121153523D02*
X117250905Y-121534476D01*
X117631857Y-121572571D01*
X117593762Y-121534476D01*
X117555667Y-121458285D01*
X117555667Y-121267809D01*
X117593762Y-121191619D01*
X117631857Y-121153523D01*
X117708048Y-121115428D01*
X117898524Y-121115428D01*
X117974714Y-121153523D01*
X118012810Y-121191619D01*
X118050905Y-121267809D01*
X118050905Y-121458285D01*
X118012810Y-121534476D01*
X117974714Y-121572571D01*
X123388381Y-102401666D02*
X122912190Y-102735000D01*
X123388381Y-102973095D02*
X122388381Y-102973095D01*
X122388381Y-102592142D01*
X122436000Y-102496904D01*
X122483619Y-102449285D01*
X122578857Y-102401666D01*
X122721714Y-102401666D01*
X122816952Y-102449285D01*
X122864571Y-102496904D01*
X122912190Y-102592142D01*
X122912190Y-102973095D01*
X122388381Y-101544523D02*
X122388381Y-101735000D01*
X122436000Y-101830238D01*
X122483619Y-101877857D01*
X122626476Y-101973095D01*
X122816952Y-102020714D01*
X123197905Y-102020714D01*
X123293143Y-101973095D01*
X123340762Y-101925476D01*
X123388381Y-101830238D01*
X123388381Y-101639761D01*
X123340762Y-101544523D01*
X123293143Y-101496904D01*
X123197905Y-101449285D01*
X122959810Y-101449285D01*
X122864571Y-101496904D01*
X122816952Y-101544523D01*
X122769333Y-101639761D01*
X122769333Y-101830238D01*
X122816952Y-101925476D01*
X122864571Y-101973095D01*
X122959810Y-102020714D01*
X110429333Y-120705433D02*
X110162666Y-120324480D01*
X109972190Y-120705433D02*
X109972190Y-119905433D01*
X110276952Y-119905433D01*
X110353143Y-119943528D01*
X110391238Y-119981623D01*
X110429333Y-120057814D01*
X110429333Y-120172099D01*
X110391238Y-120248290D01*
X110353143Y-120286385D01*
X110276952Y-120324480D01*
X109972190Y-120324480D01*
X110696000Y-119905433D02*
X111229333Y-119905433D01*
X110886476Y-120705433D01*
X130833762Y-127888905D02*
X130881381Y-127746048D01*
X130881381Y-127507952D01*
X130833762Y-127412714D01*
X130786143Y-127365095D01*
X130690905Y-127317476D01*
X130595667Y-127317476D01*
X130500429Y-127365095D01*
X130452810Y-127412714D01*
X130405190Y-127507952D01*
X130357571Y-127698429D01*
X130309952Y-127793667D01*
X130262333Y-127841286D01*
X130167095Y-127888905D01*
X130071857Y-127888905D01*
X129976619Y-127841286D01*
X129929000Y-127793667D01*
X129881381Y-127698429D01*
X129881381Y-127460333D01*
X129929000Y-127317476D01*
X130881381Y-126365095D02*
X130881381Y-126936524D01*
X130881381Y-126650810D02*
X129881381Y-126650810D01*
X130024238Y-126746048D01*
X130119476Y-126841286D01*
X130167095Y-126936524D01*
X124610762Y-127888905D02*
X124658381Y-127746048D01*
X124658381Y-127507952D01*
X124610762Y-127412714D01*
X124563143Y-127365095D01*
X124467905Y-127317476D01*
X124372667Y-127317476D01*
X124277429Y-127365095D01*
X124229810Y-127412714D01*
X124182190Y-127507952D01*
X124134571Y-127698429D01*
X124086952Y-127793667D01*
X124039333Y-127841286D01*
X123944095Y-127888905D01*
X123848857Y-127888905D01*
X123753619Y-127841286D01*
X123706000Y-127793667D01*
X123658381Y-127698429D01*
X123658381Y-127460333D01*
X123706000Y-127317476D01*
X123753619Y-126936524D02*
X123706000Y-126888905D01*
X123658381Y-126793667D01*
X123658381Y-126555571D01*
X123706000Y-126460333D01*
X123753619Y-126412714D01*
X123848857Y-126365095D01*
X123944095Y-126365095D01*
X124086952Y-126412714D01*
X124658381Y-126984143D01*
X124658381Y-126365095D01*
X118133762Y-127888905D02*
X118181381Y-127746048D01*
X118181381Y-127507952D01*
X118133762Y-127412714D01*
X118086143Y-127365095D01*
X117990905Y-127317476D01*
X117895667Y-127317476D01*
X117800429Y-127365095D01*
X117752810Y-127412714D01*
X117705190Y-127507952D01*
X117657571Y-127698429D01*
X117609952Y-127793667D01*
X117562333Y-127841286D01*
X117467095Y-127888905D01*
X117371857Y-127888905D01*
X117276619Y-127841286D01*
X117229000Y-127793667D01*
X117181381Y-127698429D01*
X117181381Y-127460333D01*
X117229000Y-127317476D01*
X117181381Y-126984143D02*
X117181381Y-126365095D01*
X117562333Y-126698429D01*
X117562333Y-126555571D01*
X117609952Y-126460333D01*
X117657571Y-126412714D01*
X117752810Y-126365095D01*
X117990905Y-126365095D01*
X118086143Y-126412714D01*
X118133762Y-126460333D01*
X118181381Y-126555571D01*
X118181381Y-126841286D01*
X118133762Y-126936524D01*
X118086143Y-126984143D01*
X110555881Y-110631833D02*
X111270167Y-110631833D01*
X111413024Y-110679453D01*
X111508262Y-110774691D01*
X111555881Y-110917548D01*
X111555881Y-111012786D01*
X110555881Y-110250881D02*
X110555881Y-109631833D01*
X110936833Y-109965167D01*
X110936833Y-109822309D01*
X110984452Y-109727071D01*
X111032071Y-109679452D01*
X111127310Y-109631833D01*
X111365405Y-109631833D01*
X111460643Y-109679452D01*
X111508262Y-109727071D01*
X111555881Y-109822309D01*
X111555881Y-110108024D01*
X111508262Y-110203262D01*
X111460643Y-110250881D01*
M02*
