G04 #@! TF.FileFunction,Legend,Bot*
%FSLAX46Y46*%
G04 Gerber Fmt 4.6, Leading zero omitted, Abs format (unit mm)*
G04 Created by KiCad (PCBNEW 4.0.1-3.201512221402+6198~38~ubuntu14.04.1-stable) date Sat 13 Aug 2016 05:43:18 PM PDT*
%MOMM*%
G01*
G04 APERTURE LIST*
%ADD10C,0.100000*%
%ADD11C,0.381000*%
%ADD12C,0.150000*%
G04 APERTURE END LIST*
D10*
D11*
X175151143Y-113224129D02*
X175876857Y-113224129D01*
X175876857Y-111700129D01*
X173772286Y-113078986D02*
X173844857Y-113151557D01*
X174062571Y-113224129D01*
X174207714Y-113224129D01*
X174425429Y-113151557D01*
X174570571Y-113006414D01*
X174643143Y-112861271D01*
X174715714Y-112570986D01*
X174715714Y-112353271D01*
X174643143Y-112062986D01*
X174570571Y-111917843D01*
X174425429Y-111772700D01*
X174207714Y-111700129D01*
X174062571Y-111700129D01*
X173844857Y-111772700D01*
X173772286Y-111845271D01*
X173119143Y-113224129D02*
X173119143Y-111700129D01*
X172756286Y-111700129D01*
X172538571Y-111772700D01*
X172393429Y-111917843D01*
X172320857Y-112062986D01*
X172248286Y-112353271D01*
X172248286Y-112570986D01*
X172320857Y-112861271D01*
X172393429Y-113006414D01*
X172538571Y-113151557D01*
X172756286Y-113224129D01*
X173119143Y-113224129D01*
X171595143Y-112643557D02*
X170434000Y-112643557D01*
X168982572Y-113224129D02*
X169708286Y-113224129D01*
X169708286Y-111700129D01*
X168474572Y-113224129D02*
X168474572Y-112208129D01*
X168474572Y-111700129D02*
X168547143Y-111772700D01*
X168474572Y-111845271D01*
X168402000Y-111772700D01*
X168474572Y-111700129D01*
X168474572Y-111845271D01*
X167748858Y-113224129D02*
X167748858Y-111700129D01*
X167386001Y-111700129D01*
X167168286Y-111772700D01*
X167023144Y-111917843D01*
X166950572Y-112062986D01*
X166878001Y-112353271D01*
X166878001Y-112570986D01*
X166950572Y-112861271D01*
X167023144Y-113006414D01*
X167168286Y-113151557D01*
X167386001Y-113224129D01*
X167748858Y-113224129D01*
X166297429Y-112788700D02*
X165571715Y-112788700D01*
X166442572Y-113224129D02*
X165934572Y-111700129D01*
X165426572Y-113224129D01*
X164047715Y-113224129D02*
X164555715Y-112498414D01*
X164918572Y-113224129D02*
X164918572Y-111700129D01*
X164338000Y-111700129D01*
X164192858Y-111772700D01*
X164120286Y-111845271D01*
X164047715Y-111990414D01*
X164047715Y-112208129D01*
X164120286Y-112353271D01*
X164192858Y-112425843D01*
X164338000Y-112498414D01*
X164918572Y-112498414D01*
X163394572Y-112643557D02*
X162233429Y-112643557D01*
X161580286Y-113151557D02*
X161362572Y-113224129D01*
X160999715Y-113224129D01*
X160854572Y-113151557D01*
X160782001Y-113078986D01*
X160709429Y-112933843D01*
X160709429Y-112788700D01*
X160782001Y-112643557D01*
X160854572Y-112570986D01*
X160999715Y-112498414D01*
X161290001Y-112425843D01*
X161435143Y-112353271D01*
X161507715Y-112280700D01*
X161580286Y-112135557D01*
X161580286Y-111990414D01*
X161507715Y-111845271D01*
X161435143Y-111772700D01*
X161290001Y-111700129D01*
X160927143Y-111700129D01*
X160709429Y-111772700D01*
X160056286Y-113224129D02*
X160056286Y-111700129D01*
X159693429Y-111700129D01*
X159475714Y-111772700D01*
X159330572Y-111917843D01*
X159258000Y-112062986D01*
X159185429Y-112353271D01*
X159185429Y-112570986D01*
X159258000Y-112861271D01*
X159330572Y-113006414D01*
X159475714Y-113151557D01*
X159693429Y-113224129D01*
X160056286Y-113224129D01*
X157588857Y-111700129D02*
X156718000Y-111700129D01*
X157153429Y-113224129D02*
X157153429Y-111700129D01*
X155629428Y-113151557D02*
X155774571Y-113224129D01*
X156064857Y-113224129D01*
X156210000Y-113151557D01*
X156282571Y-113006414D01*
X156282571Y-112425843D01*
X156210000Y-112280700D01*
X156064857Y-112208129D01*
X155774571Y-112208129D01*
X155629428Y-112280700D01*
X155556857Y-112425843D01*
X155556857Y-112570986D01*
X156282571Y-112716129D01*
X154323142Y-113151557D02*
X154468285Y-113224129D01*
X154758571Y-113224129D01*
X154903714Y-113151557D01*
X154976285Y-113006414D01*
X154976285Y-112425843D01*
X154903714Y-112280700D01*
X154758571Y-112208129D01*
X154468285Y-112208129D01*
X154323142Y-112280700D01*
X154250571Y-112425843D01*
X154250571Y-112570986D01*
X154976285Y-112716129D01*
X153597428Y-112208129D02*
X153597428Y-113224129D01*
X153597428Y-112353271D02*
X153524856Y-112280700D01*
X153379714Y-112208129D01*
X153161999Y-112208129D01*
X153016856Y-112280700D01*
X152944285Y-112425843D01*
X152944285Y-113224129D01*
X152291142Y-113151557D02*
X152145999Y-113224129D01*
X151855714Y-113224129D01*
X151710571Y-113151557D01*
X151637999Y-113006414D01*
X151637999Y-112933843D01*
X151710571Y-112788700D01*
X151855714Y-112716129D01*
X152073428Y-112716129D01*
X152218571Y-112643557D01*
X152291142Y-112498414D01*
X152291142Y-112425843D01*
X152218571Y-112280700D01*
X152073428Y-112208129D01*
X151855714Y-112208129D01*
X151710571Y-112280700D01*
X151130000Y-112208129D02*
X150767143Y-113224129D01*
X150404285Y-112208129D02*
X150767143Y-113224129D01*
X150912285Y-113586986D01*
X150984857Y-113659557D01*
X151130000Y-113732129D01*
X148662571Y-113224129D02*
X148662571Y-111700129D01*
X148662571Y-112425843D02*
X147791714Y-112425843D01*
X147791714Y-113224129D02*
X147791714Y-111700129D01*
X146412857Y-113224129D02*
X146412857Y-112425843D01*
X146485428Y-112280700D01*
X146630571Y-112208129D01*
X146920857Y-112208129D01*
X147066000Y-112280700D01*
X146412857Y-113151557D02*
X146558000Y-113224129D01*
X146920857Y-113224129D01*
X147066000Y-113151557D01*
X147138571Y-113006414D01*
X147138571Y-112861271D01*
X147066000Y-112716129D01*
X146920857Y-112643557D01*
X146558000Y-112643557D01*
X146412857Y-112570986D01*
X145904857Y-112208129D02*
X145324286Y-112208129D01*
X145687143Y-111700129D02*
X145687143Y-113006414D01*
X145614571Y-113151557D01*
X145469429Y-113224129D01*
X145324286Y-113224129D01*
X143800286Y-112208129D02*
X143437429Y-113224129D01*
X143074571Y-112208129D01*
X141695714Y-113224129D02*
X142566571Y-113224129D01*
X142131143Y-113224129D02*
X142131143Y-111700129D01*
X142276286Y-111917843D01*
X142421428Y-112062986D01*
X142566571Y-112135557D01*
X141042571Y-113078986D02*
X140969999Y-113151557D01*
X141042571Y-113224129D01*
X141115142Y-113151557D01*
X141042571Y-113078986D01*
X141042571Y-113224129D01*
X140026571Y-111700129D02*
X139881428Y-111700129D01*
X139736285Y-111772700D01*
X139663714Y-111845271D01*
X139591143Y-111990414D01*
X139518571Y-112280700D01*
X139518571Y-112643557D01*
X139591143Y-112933843D01*
X139663714Y-113078986D01*
X139736285Y-113151557D01*
X139881428Y-113224129D01*
X140026571Y-113224129D01*
X140171714Y-113151557D01*
X140244285Y-113078986D01*
X140316857Y-112933843D01*
X140389428Y-112643557D01*
X140389428Y-112280700D01*
X140316857Y-111990414D01*
X140244285Y-111845271D01*
X140171714Y-111772700D01*
X140026571Y-111700129D01*
X162959144Y-114867871D02*
X163104286Y-114795300D01*
X163176858Y-114722729D01*
X163249429Y-114577586D01*
X163249429Y-114505014D01*
X163176858Y-114359871D01*
X163104286Y-114287300D01*
X162959144Y-114214729D01*
X162668858Y-114214729D01*
X162523715Y-114287300D01*
X162451144Y-114359871D01*
X162378572Y-114505014D01*
X162378572Y-114577586D01*
X162451144Y-114722729D01*
X162523715Y-114795300D01*
X162668858Y-114867871D01*
X162959144Y-114867871D01*
X163104286Y-114940443D01*
X163176858Y-115013014D01*
X163249429Y-115158157D01*
X163249429Y-115448443D01*
X163176858Y-115593586D01*
X163104286Y-115666157D01*
X162959144Y-115738729D01*
X162668858Y-115738729D01*
X162523715Y-115666157D01*
X162451144Y-115593586D01*
X162378572Y-115448443D01*
X162378572Y-115158157D01*
X162451144Y-115013014D01*
X162523715Y-114940443D01*
X162668858Y-114867871D01*
X160636857Y-114142157D02*
X161943143Y-116101586D01*
X159330572Y-115738729D02*
X160201429Y-115738729D01*
X159766001Y-115738729D02*
X159766001Y-114214729D01*
X159911144Y-114432443D01*
X160056286Y-114577586D01*
X160201429Y-114650157D01*
X158822572Y-114214729D02*
X157879143Y-114214729D01*
X158387143Y-114795300D01*
X158169429Y-114795300D01*
X158024286Y-114867871D01*
X157951715Y-114940443D01*
X157879143Y-115085586D01*
X157879143Y-115448443D01*
X157951715Y-115593586D01*
X158024286Y-115666157D01*
X158169429Y-115738729D01*
X158604857Y-115738729D01*
X158750000Y-115666157D01*
X158822572Y-115593586D01*
X156137428Y-114142157D02*
X157443714Y-116101586D01*
X154831143Y-115738729D02*
X155702000Y-115738729D01*
X155266572Y-115738729D02*
X155266572Y-114214729D01*
X155411715Y-114432443D01*
X155556857Y-114577586D01*
X155702000Y-114650157D01*
X153524857Y-114214729D02*
X153815143Y-114214729D01*
X153960286Y-114287300D01*
X154032857Y-114359871D01*
X154178000Y-114577586D01*
X154250571Y-114867871D01*
X154250571Y-115448443D01*
X154178000Y-115593586D01*
X154105428Y-115666157D01*
X153960286Y-115738729D01*
X153670000Y-115738729D01*
X153524857Y-115666157D01*
X153452286Y-115593586D01*
X153379714Y-115448443D01*
X153379714Y-115085586D01*
X153452286Y-114940443D01*
X153524857Y-114867871D01*
X153670000Y-114795300D01*
X153960286Y-114795300D01*
X154105428Y-114867871D01*
X154178000Y-114940443D01*
X154250571Y-115085586D01*
D12*
X102801420Y-99855020D02*
G75*
G03X102801420Y-99855020I-2499360J0D01*
G01*
X102801420Y-130855720D02*
G75*
G03X102801420Y-130855720I-2499360J0D01*
G01*
X177802540Y-130855720D02*
G75*
G03X177802540Y-130855720I-2501900J0D01*
G01*
X177800000Y-99855020D02*
G75*
G03X177800000Y-99855020I-2499360J0D01*
G01*
X177802540Y-97355660D02*
X97802700Y-97355660D01*
X97802700Y-97355660D02*
X97802700Y-133355080D01*
X97802700Y-133355080D02*
X177802540Y-133355080D01*
X177802540Y-133355080D02*
X177802540Y-97355660D01*
M02*
