M48
;DRILL file {KiCad 4.0.1-3.201512221402+6198~38~ubuntu14.04.1-stable} date Sat 13 Aug 2016 05:43:20 PM PDT
;FORMAT={-:-/ absolute / inch / decimal}
FMAT,2
INCH,TZ
T1C0.016
T2C0.040
T3C0.047
T4C0.098
%
G90
G05
M72
T1
X4.6783Y-4.3183
X4.73Y-4.83
X4.75Y-4.41
X4.89Y-4.6262
X4.89Y-4.87
X5.04Y-4.38
X5.21Y-4.93
T2
X4.84Y-3.925
X4.84Y-4.025
X4.84Y-4.125
X5.35Y-4.175
X5.35Y-4.275
X5.35Y-4.375
X5.35Y-4.475
X5.35Y-4.575
X5.35Y-4.675
X5.35Y-4.775
X5.45Y-4.175
X5.45Y-4.775
X5.55Y-4.175
X5.55Y-4.775
X5.65Y-4.175
X5.65Y-4.775
X5.75Y-4.175
X5.75Y-4.775
X5.85Y-4.175
X5.85Y-4.775
X5.87Y-5.01
X5.95Y-4.175
X5.95Y-4.775
X5.97Y-5.01
X6.05Y-4.175
X6.05Y-4.775
X6.07Y-5.01
X6.15Y-4.175
X6.15Y-4.775
X6.17Y-5.01
X6.25Y-4.175
X6.25Y-4.775
X6.27Y-5.01
X6.35Y-4.175
X6.35Y-4.775
X6.37Y-5.01
X6.45Y-4.175
X6.45Y-4.775
X6.55Y-4.175
X6.55Y-4.775
X6.65Y-4.175
X6.65Y-4.775
T3
X5.1851Y-3.9313
X5.2851Y-3.9313
X5.3851Y-3.9313
X5.4851Y-3.9313
X5.5851Y-3.9313
X5.6851Y-3.9313
X5.7851Y-3.9313
X5.8851Y-3.9313
X5.9851Y-3.9313
X6.0851Y-3.9313
X6.1851Y-3.9313
X6.2851Y-3.9313
X6.3851Y-3.9313
X6.4851Y-3.9313
X6.5851Y-3.9313
X6.6851Y-3.9313
T4
X3.9489Y-3.9313
X3.9489Y-5.1518
X6.9016Y-3.9313
X6.9016Y-5.1518
T0
M30
