M48
;DRILL file {KiCad 4.0.1-3.201512221402+6198~38~ubuntu14.04.1-stable} date Sat 30 Jul 2016 09:56:51 PM PDT
;FORMAT={-:-/ absolute / inch / decimal}
FMAT,2
INCH,TZ
T1C0.013
T2C0.040
T3C0.047
T4C0.098
%
G90
G05
M72
T1
X4.04Y-4.04
X4.22Y-4.24
X5.12Y-3.3
X5.14Y-4.14
X6.44Y-3.24
X6.56Y-3.72
X6.8Y-3.76
T2
X4.84Y-3.2
X4.84Y-3.3
X4.84Y-3.4
X4.88Y-3.64
X4.88Y-3.74
X4.88Y-3.84
X4.88Y-3.94
X4.88Y-4.04
X4.88Y-4.14
X4.88Y-4.24
X4.98Y-3.64
X4.98Y-4.24
X5.08Y-3.64
X5.08Y-4.24
X5.18Y-3.64
X5.18Y-4.24
X5.28Y-3.64
X5.28Y-4.24
X5.38Y-3.64
X5.38Y-4.24
X5.48Y-3.64
X5.48Y-4.24
X5.58Y-3.64
X5.58Y-4.24
X5.68Y-3.64
X5.68Y-4.24
X5.78Y-3.64
X5.78Y-4.24
X5.88Y-3.64
X5.88Y-4.24
X5.98Y-3.64
X5.98Y-4.24
X6.08Y-3.64
X6.08Y-4.24
X6.18Y-3.64
X6.18Y-4.24
X6.56Y-4.18
X6.66Y-4.18
T3
X5.2Y-3.14
X5.3Y-3.14
X5.4Y-3.14
X5.5Y-3.14
X5.6Y-3.14
X5.7Y-3.14
X5.8Y-3.14
X5.9Y-3.14
X6.Y-3.14
X6.1Y-3.14
X6.2Y-3.14
X6.3Y-3.14
X6.4Y-3.14
X6.5Y-3.14
X6.6Y-3.14
X6.7Y-3.14
T4
X3.9638Y-3.14
X3.9638Y-4.3605
X6.9165Y-3.14
X6.9165Y-4.3605
T0
M30
