G04 #@! TF.FileFunction,Legend,Bot*
%FSLAX46Y46*%
G04 Gerber Fmt 4.6, Leading zero omitted, Abs format (unit mm)*
G04 Created by KiCad (PCBNEW 4.0.1-3.201512221402+6198~38~ubuntu14.04.1-stable) date Sat 30 Jul 2016 10:01:43 PM PDT*
%MOMM*%
G01*
G04 APERTURE LIST*
%ADD10C,0.100000*%
%ADD11C,0.300000*%
%ADD12C,0.150000*%
G04 APERTURE END LIST*
D10*
D11*
X100186371Y-87257857D02*
X101186371Y-87543571D01*
X100472086Y-87829285D01*
X101186371Y-88115000D01*
X100186371Y-88400714D01*
X101186371Y-88972143D02*
X100186371Y-88972143D01*
X99686371Y-88972143D02*
X99757800Y-88900714D01*
X99829229Y-88972143D01*
X99757800Y-89043571D01*
X99686371Y-88972143D01*
X99829229Y-88972143D01*
X101114943Y-90329286D02*
X101186371Y-90186429D01*
X101186371Y-89900715D01*
X101114943Y-89757857D01*
X101043514Y-89686429D01*
X100900657Y-89615000D01*
X100472086Y-89615000D01*
X100329229Y-89686429D01*
X100257800Y-89757857D01*
X100186371Y-89900715D01*
X100186371Y-90186429D01*
X100257800Y-90329286D01*
X101186371Y-90972143D02*
X99686371Y-90972143D01*
X100614943Y-91115000D02*
X101186371Y-91543571D01*
X100186371Y-91543571D02*
X100757800Y-90972143D01*
X101114943Y-92757857D02*
X101186371Y-92615000D01*
X101186371Y-92329286D01*
X101114943Y-92186429D01*
X100972086Y-92115000D01*
X100400657Y-92115000D01*
X100257800Y-92186429D01*
X100186371Y-92329286D01*
X100186371Y-92615000D01*
X100257800Y-92757857D01*
X100400657Y-92829286D01*
X100543514Y-92829286D01*
X100686371Y-92115000D01*
X101186371Y-93472143D02*
X100186371Y-93472143D01*
X100472086Y-93472143D02*
X100329229Y-93543571D01*
X100257800Y-93615000D01*
X100186371Y-93757857D01*
X100186371Y-93900714D01*
X101186371Y-94400714D02*
X99686371Y-94400714D01*
X100257800Y-94400714D02*
X100186371Y-94543571D01*
X100186371Y-94829285D01*
X100257800Y-94972142D01*
X100329229Y-95043571D01*
X100472086Y-95115000D01*
X100900657Y-95115000D01*
X101043514Y-95043571D01*
X101114943Y-94972142D01*
X101186371Y-94829285D01*
X101186371Y-94543571D01*
X101114943Y-94400714D01*
X101186371Y-95972143D02*
X101114943Y-95829285D01*
X101043514Y-95757857D01*
X100900657Y-95686428D01*
X100472086Y-95686428D01*
X100329229Y-95757857D01*
X100257800Y-95829285D01*
X100186371Y-95972143D01*
X100186371Y-96186428D01*
X100257800Y-96329285D01*
X100329229Y-96400714D01*
X100472086Y-96472143D01*
X100900657Y-96472143D01*
X101043514Y-96400714D01*
X101114943Y-96329285D01*
X101186371Y-96186428D01*
X101186371Y-95972143D01*
X101186371Y-96972143D02*
X100186371Y-97757857D01*
X100186371Y-96972143D02*
X101186371Y-97757857D01*
X101043514Y-98329286D02*
X101114943Y-98400714D01*
X101186371Y-98329286D01*
X101114943Y-98257857D01*
X101043514Y-98329286D01*
X101186371Y-98329286D01*
X100186371Y-99043572D02*
X101186371Y-99043572D01*
X100329229Y-99043572D02*
X100257800Y-99115000D01*
X100186371Y-99257858D01*
X100186371Y-99472143D01*
X100257800Y-99615000D01*
X100400657Y-99686429D01*
X101186371Y-99686429D01*
X101114943Y-100972143D02*
X101186371Y-100829286D01*
X101186371Y-100543572D01*
X101114943Y-100400715D01*
X100972086Y-100329286D01*
X100400657Y-100329286D01*
X100257800Y-100400715D01*
X100186371Y-100543572D01*
X100186371Y-100829286D01*
X100257800Y-100972143D01*
X100400657Y-101043572D01*
X100543514Y-101043572D01*
X100686371Y-100329286D01*
X100186371Y-101472143D02*
X100186371Y-102043572D01*
X99686371Y-101686429D02*
X100972086Y-101686429D01*
X101114943Y-101757857D01*
X101186371Y-101900715D01*
X101186371Y-102043572D01*
X168086914Y-97902171D02*
X167229771Y-97902171D01*
X167658342Y-99402171D02*
X167658342Y-97902171D01*
X166158343Y-99330743D02*
X166301200Y-99402171D01*
X166586914Y-99402171D01*
X166729771Y-99330743D01*
X166801200Y-99187886D01*
X166801200Y-98616457D01*
X166729771Y-98473600D01*
X166586914Y-98402171D01*
X166301200Y-98402171D01*
X166158343Y-98473600D01*
X166086914Y-98616457D01*
X166086914Y-98759314D01*
X166801200Y-98902171D01*
X165444057Y-99402171D02*
X165444057Y-98402171D01*
X165444057Y-98545029D02*
X165372629Y-98473600D01*
X165229771Y-98402171D01*
X165015486Y-98402171D01*
X164872629Y-98473600D01*
X164801200Y-98616457D01*
X164801200Y-99402171D01*
X164801200Y-98616457D02*
X164729771Y-98473600D01*
X164586914Y-98402171D01*
X164372629Y-98402171D01*
X164229771Y-98473600D01*
X164158343Y-98616457D01*
X164158343Y-99402171D01*
X163444057Y-98402171D02*
X163444057Y-99902171D01*
X163444057Y-98473600D02*
X163301200Y-98402171D01*
X163015486Y-98402171D01*
X162872629Y-98473600D01*
X162801200Y-98545029D01*
X162729771Y-98687886D01*
X162729771Y-99116457D01*
X162801200Y-99259314D01*
X162872629Y-99330743D01*
X163015486Y-99402171D01*
X163301200Y-99402171D01*
X163444057Y-99330743D01*
X161515486Y-99330743D02*
X161658343Y-99402171D01*
X161944057Y-99402171D01*
X162086914Y-99330743D01*
X162158343Y-99187886D01*
X162158343Y-98616457D01*
X162086914Y-98473600D01*
X161944057Y-98402171D01*
X161658343Y-98402171D01*
X161515486Y-98473600D01*
X161444057Y-98616457D01*
X161444057Y-98759314D01*
X162158343Y-98902171D01*
X160801200Y-99402171D02*
X160801200Y-98402171D01*
X160801200Y-98687886D02*
X160729772Y-98545029D01*
X160658343Y-98473600D01*
X160515486Y-98402171D01*
X160372629Y-98402171D01*
X159229772Y-99402171D02*
X159229772Y-98616457D01*
X159301201Y-98473600D01*
X159444058Y-98402171D01*
X159729772Y-98402171D01*
X159872629Y-98473600D01*
X159229772Y-99330743D02*
X159372629Y-99402171D01*
X159729772Y-99402171D01*
X159872629Y-99330743D01*
X159944058Y-99187886D01*
X159944058Y-99045029D01*
X159872629Y-98902171D01*
X159729772Y-98830743D01*
X159372629Y-98830743D01*
X159229772Y-98759314D01*
X158729772Y-98402171D02*
X158158343Y-98402171D01*
X158515486Y-97902171D02*
X158515486Y-99187886D01*
X158444058Y-99330743D01*
X158301200Y-99402171D01*
X158158343Y-99402171D01*
X157015486Y-98402171D02*
X157015486Y-99402171D01*
X157658343Y-98402171D02*
X157658343Y-99187886D01*
X157586915Y-99330743D01*
X157444057Y-99402171D01*
X157229772Y-99402171D01*
X157086915Y-99330743D01*
X157015486Y-99259314D01*
X156301200Y-99402171D02*
X156301200Y-98402171D01*
X156301200Y-98687886D02*
X156229772Y-98545029D01*
X156158343Y-98473600D01*
X156015486Y-98402171D01*
X155872629Y-98402171D01*
X154801201Y-99330743D02*
X154944058Y-99402171D01*
X155229772Y-99402171D01*
X155372629Y-99330743D01*
X155444058Y-99187886D01*
X155444058Y-98616457D01*
X155372629Y-98473600D01*
X155229772Y-98402171D01*
X154944058Y-98402171D01*
X154801201Y-98473600D01*
X154729772Y-98616457D01*
X154729772Y-98759314D01*
X155444058Y-98902171D01*
X152944058Y-99402171D02*
X152944058Y-97902171D01*
X152444058Y-98973600D01*
X151944058Y-97902171D01*
X151944058Y-99402171D01*
X151015486Y-99402171D02*
X151158344Y-99330743D01*
X151229772Y-99259314D01*
X151301201Y-99116457D01*
X151301201Y-98687886D01*
X151229772Y-98545029D01*
X151158344Y-98473600D01*
X151015486Y-98402171D01*
X150801201Y-98402171D01*
X150658344Y-98473600D01*
X150586915Y-98545029D01*
X150515486Y-98687886D01*
X150515486Y-99116457D01*
X150586915Y-99259314D01*
X150658344Y-99330743D01*
X150801201Y-99402171D01*
X151015486Y-99402171D01*
X149872629Y-98402171D02*
X149872629Y-99402171D01*
X149872629Y-98545029D02*
X149801201Y-98473600D01*
X149658343Y-98402171D01*
X149444058Y-98402171D01*
X149301201Y-98473600D01*
X149229772Y-98616457D01*
X149229772Y-99402171D01*
X148515486Y-99402171D02*
X148515486Y-98402171D01*
X148515486Y-97902171D02*
X148586915Y-97973600D01*
X148515486Y-98045029D01*
X148444058Y-97973600D01*
X148515486Y-97902171D01*
X148515486Y-98045029D01*
X148015486Y-98402171D02*
X147444057Y-98402171D01*
X147801200Y-97902171D02*
X147801200Y-99187886D01*
X147729772Y-99330743D01*
X147586914Y-99402171D01*
X147444057Y-99402171D01*
X146729771Y-99402171D02*
X146872629Y-99330743D01*
X146944057Y-99259314D01*
X147015486Y-99116457D01*
X147015486Y-98687886D01*
X146944057Y-98545029D01*
X146872629Y-98473600D01*
X146729771Y-98402171D01*
X146515486Y-98402171D01*
X146372629Y-98473600D01*
X146301200Y-98545029D01*
X146229771Y-98687886D01*
X146229771Y-99116457D01*
X146301200Y-99259314D01*
X146372629Y-99330743D01*
X146515486Y-99402171D01*
X146729771Y-99402171D01*
X145586914Y-99402171D02*
X145586914Y-98402171D01*
X145586914Y-98687886D02*
X145515486Y-98545029D01*
X145444057Y-98473600D01*
X145301200Y-98402171D01*
X145158343Y-98402171D01*
X143729772Y-97902171D02*
X142872629Y-97902171D01*
X143301200Y-99402171D02*
X143301200Y-97902171D01*
X141801201Y-99330743D02*
X141944058Y-99402171D01*
X142229772Y-99402171D01*
X142372629Y-99330743D01*
X142444058Y-99187886D01*
X142444058Y-98616457D01*
X142372629Y-98473600D01*
X142229772Y-98402171D01*
X141944058Y-98402171D01*
X141801201Y-98473600D01*
X141729772Y-98616457D01*
X141729772Y-98759314D01*
X142444058Y-98902171D01*
X140515487Y-99330743D02*
X140658344Y-99402171D01*
X140944058Y-99402171D01*
X141086915Y-99330743D01*
X141158344Y-99187886D01*
X141158344Y-98616457D01*
X141086915Y-98473600D01*
X140944058Y-98402171D01*
X140658344Y-98402171D01*
X140515487Y-98473600D01*
X140444058Y-98616457D01*
X140444058Y-98759314D01*
X141158344Y-98902171D01*
X139801201Y-98402171D02*
X139801201Y-99402171D01*
X139801201Y-98545029D02*
X139729773Y-98473600D01*
X139586915Y-98402171D01*
X139372630Y-98402171D01*
X139229773Y-98473600D01*
X139158344Y-98616457D01*
X139158344Y-99402171D01*
X138515487Y-99330743D02*
X138372630Y-99402171D01*
X138086915Y-99402171D01*
X137944058Y-99330743D01*
X137872630Y-99187886D01*
X137872630Y-99116457D01*
X137944058Y-98973600D01*
X138086915Y-98902171D01*
X138301201Y-98902171D01*
X138444058Y-98830743D01*
X138515487Y-98687886D01*
X138515487Y-98616457D01*
X138444058Y-98473600D01*
X138301201Y-98402171D01*
X138086915Y-98402171D01*
X137944058Y-98473600D01*
X137372629Y-98402171D02*
X137015486Y-99402171D01*
X136658344Y-98402171D02*
X137015486Y-99402171D01*
X137158344Y-99759314D01*
X137229772Y-99830743D01*
X137372629Y-99902171D01*
X134944058Y-99402171D02*
X134944058Y-97902171D01*
X134944058Y-98616457D02*
X134086915Y-98616457D01*
X134086915Y-99402171D02*
X134086915Y-97902171D01*
X132729772Y-99402171D02*
X132729772Y-98616457D01*
X132801201Y-98473600D01*
X132944058Y-98402171D01*
X133229772Y-98402171D01*
X133372629Y-98473600D01*
X132729772Y-99330743D02*
X132872629Y-99402171D01*
X133229772Y-99402171D01*
X133372629Y-99330743D01*
X133444058Y-99187886D01*
X133444058Y-99045029D01*
X133372629Y-98902171D01*
X133229772Y-98830743D01*
X132872629Y-98830743D01*
X132729772Y-98759314D01*
X132229772Y-98402171D02*
X131658343Y-98402171D01*
X132015486Y-97902171D02*
X132015486Y-99187886D01*
X131944058Y-99330743D01*
X131801200Y-99402171D01*
X131658343Y-99402171D01*
X155658341Y-100302171D02*
X154658341Y-100302171D01*
X155301198Y-101802171D01*
X153015485Y-100230743D02*
X154301199Y-102159314D01*
X152658341Y-100302171D02*
X151729770Y-100302171D01*
X152229770Y-100873600D01*
X152015484Y-100873600D01*
X151872627Y-100945029D01*
X151801198Y-101016457D01*
X151729770Y-101159314D01*
X151729770Y-101516457D01*
X151801198Y-101659314D01*
X151872627Y-101730743D01*
X152015484Y-101802171D01*
X152444056Y-101802171D01*
X152586913Y-101730743D01*
X152658341Y-101659314D01*
X150801199Y-100302171D02*
X150658342Y-100302171D01*
X150515485Y-100373600D01*
X150444056Y-100445029D01*
X150372627Y-100587886D01*
X150301199Y-100873600D01*
X150301199Y-101230743D01*
X150372627Y-101516457D01*
X150444056Y-101659314D01*
X150515485Y-101730743D01*
X150658342Y-101802171D01*
X150801199Y-101802171D01*
X150944056Y-101730743D01*
X151015485Y-101659314D01*
X151086913Y-101516457D01*
X151158342Y-101230743D01*
X151158342Y-100873600D01*
X151086913Y-100587886D01*
X151015485Y-100445029D01*
X150944056Y-100373600D01*
X150801199Y-100302171D01*
X148586914Y-100230743D02*
X149872628Y-102159314D01*
X148158342Y-100445029D02*
X148086913Y-100373600D01*
X147944056Y-100302171D01*
X147586913Y-100302171D01*
X147444056Y-100373600D01*
X147372627Y-100445029D01*
X147301199Y-100587886D01*
X147301199Y-100730743D01*
X147372627Y-100945029D01*
X148229770Y-101802171D01*
X147301199Y-101802171D01*
X146372628Y-100302171D02*
X146229771Y-100302171D01*
X146086914Y-100373600D01*
X146015485Y-100445029D01*
X145944056Y-100587886D01*
X145872628Y-100873600D01*
X145872628Y-101230743D01*
X145944056Y-101516457D01*
X146015485Y-101659314D01*
X146086914Y-101730743D01*
X146229771Y-101802171D01*
X146372628Y-101802171D01*
X146515485Y-101730743D01*
X146586914Y-101659314D01*
X146658342Y-101516457D01*
X146729771Y-101230743D01*
X146729771Y-100873600D01*
X146658342Y-100587886D01*
X146586914Y-100445029D01*
X146515485Y-100373600D01*
X146372628Y-100302171D01*
X144444057Y-101802171D02*
X145301200Y-101802171D01*
X144872628Y-101802171D02*
X144872628Y-100302171D01*
X145015485Y-100516457D01*
X145158343Y-100659314D01*
X145301200Y-100730743D01*
X143158343Y-100302171D02*
X143444057Y-100302171D01*
X143586914Y-100373600D01*
X143658343Y-100445029D01*
X143801200Y-100659314D01*
X143872629Y-100945029D01*
X143872629Y-101516457D01*
X143801200Y-101659314D01*
X143729772Y-101730743D01*
X143586914Y-101802171D01*
X143301200Y-101802171D01*
X143158343Y-101730743D01*
X143086914Y-101659314D01*
X143015486Y-101516457D01*
X143015486Y-101159314D01*
X143086914Y-101016457D01*
X143158343Y-100945029D01*
X143301200Y-100873600D01*
X143586914Y-100873600D01*
X143729772Y-100945029D01*
X143801200Y-101016457D01*
X143872629Y-101159314D01*
D12*
X103179880Y-79756000D02*
G75*
G03X103179880Y-79756000I-2499360J0D01*
G01*
X103179880Y-110756700D02*
G75*
G03X103179880Y-110756700I-2499360J0D01*
G01*
X178181000Y-110756700D02*
G75*
G03X178181000Y-110756700I-2501900J0D01*
G01*
X178178460Y-79756000D02*
G75*
G03X178178460Y-79756000I-2499360J0D01*
G01*
X178181000Y-77256640D02*
X98181160Y-77256640D01*
X98181160Y-77256640D02*
X98181160Y-113256060D01*
X98181160Y-113256060D02*
X178181000Y-113256060D01*
X178181000Y-113256060D02*
X178181000Y-77256640D01*
M02*
