G04 #@! TF.FileFunction,Other,Fab,Top*
%FSLAX46Y46*%
G04 Gerber Fmt 4.6, Leading zero omitted, Abs format (unit mm)*
G04 Created by KiCad (PCBNEW 4.0.1-3.201512221402+6198~38~ubuntu14.04.1-stable) date Tue 23 Aug 2016 07:56:36 PM PDT*
%MOMM*%
G01*
G04 APERTURE LIST*
%ADD10C,0.100000*%
%ADD11C,0.300000*%
%ADD12C,0.200000*%
%ADD13C,0.050000*%
%ADD14C,0.150000*%
G04 APERTURE END LIST*
D10*
D11*
X177299141Y-115002571D02*
X176299141Y-115002571D01*
X176941998Y-116502571D01*
X174656285Y-114931143D02*
X175941999Y-116859714D01*
X174299141Y-115002571D02*
X173370570Y-115002571D01*
X173870570Y-115574000D01*
X173656284Y-115574000D01*
X173513427Y-115645429D01*
X173441998Y-115716857D01*
X173370570Y-115859714D01*
X173370570Y-116216857D01*
X173441998Y-116359714D01*
X173513427Y-116431143D01*
X173656284Y-116502571D01*
X174084856Y-116502571D01*
X174227713Y-116431143D01*
X174299141Y-116359714D01*
X172441999Y-115002571D02*
X172299142Y-115002571D01*
X172156285Y-115074000D01*
X172084856Y-115145429D01*
X172013427Y-115288286D01*
X171941999Y-115574000D01*
X171941999Y-115931143D01*
X172013427Y-116216857D01*
X172084856Y-116359714D01*
X172156285Y-116431143D01*
X172299142Y-116502571D01*
X172441999Y-116502571D01*
X172584856Y-116431143D01*
X172656285Y-116359714D01*
X172727713Y-116216857D01*
X172799142Y-115931143D01*
X172799142Y-115574000D01*
X172727713Y-115288286D01*
X172656285Y-115145429D01*
X172584856Y-115074000D01*
X172441999Y-115002571D01*
X170227714Y-114931143D02*
X171513428Y-116859714D01*
X169799142Y-115145429D02*
X169727713Y-115074000D01*
X169584856Y-115002571D01*
X169227713Y-115002571D01*
X169084856Y-115074000D01*
X169013427Y-115145429D01*
X168941999Y-115288286D01*
X168941999Y-115431143D01*
X169013427Y-115645429D01*
X169870570Y-116502571D01*
X168941999Y-116502571D01*
X168013428Y-115002571D02*
X167870571Y-115002571D01*
X167727714Y-115074000D01*
X167656285Y-115145429D01*
X167584856Y-115288286D01*
X167513428Y-115574000D01*
X167513428Y-115931143D01*
X167584856Y-116216857D01*
X167656285Y-116359714D01*
X167727714Y-116431143D01*
X167870571Y-116502571D01*
X168013428Y-116502571D01*
X168156285Y-116431143D01*
X168227714Y-116359714D01*
X168299142Y-116216857D01*
X168370571Y-115931143D01*
X168370571Y-115574000D01*
X168299142Y-115288286D01*
X168227714Y-115145429D01*
X168156285Y-115074000D01*
X168013428Y-115002571D01*
X166084857Y-116502571D02*
X166942000Y-116502571D01*
X166513428Y-116502571D02*
X166513428Y-115002571D01*
X166656285Y-115216857D01*
X166799143Y-115359714D01*
X166942000Y-115431143D01*
X164799143Y-115002571D02*
X165084857Y-115002571D01*
X165227714Y-115074000D01*
X165299143Y-115145429D01*
X165442000Y-115359714D01*
X165513429Y-115645429D01*
X165513429Y-116216857D01*
X165442000Y-116359714D01*
X165370572Y-116431143D01*
X165227714Y-116502571D01*
X164942000Y-116502571D01*
X164799143Y-116431143D01*
X164727714Y-116359714D01*
X164656286Y-116216857D01*
X164656286Y-115859714D01*
X164727714Y-115716857D01*
X164799143Y-115645429D01*
X164942000Y-115574000D01*
X165227714Y-115574000D01*
X165370572Y-115645429D01*
X165442000Y-115716857D01*
X165513429Y-115859714D01*
X177416285Y-73600571D02*
X176559142Y-73600571D01*
X176987713Y-75100571D02*
X176987713Y-73600571D01*
X175487714Y-75029143D02*
X175630571Y-75100571D01*
X175916285Y-75100571D01*
X176059142Y-75029143D01*
X176130571Y-74886286D01*
X176130571Y-74314857D01*
X176059142Y-74172000D01*
X175916285Y-74100571D01*
X175630571Y-74100571D01*
X175487714Y-74172000D01*
X175416285Y-74314857D01*
X175416285Y-74457714D01*
X176130571Y-74600571D01*
X174773428Y-75100571D02*
X174773428Y-74100571D01*
X174773428Y-74243429D02*
X174702000Y-74172000D01*
X174559142Y-74100571D01*
X174344857Y-74100571D01*
X174202000Y-74172000D01*
X174130571Y-74314857D01*
X174130571Y-75100571D01*
X174130571Y-74314857D02*
X174059142Y-74172000D01*
X173916285Y-74100571D01*
X173702000Y-74100571D01*
X173559142Y-74172000D01*
X173487714Y-74314857D01*
X173487714Y-75100571D01*
X172773428Y-74100571D02*
X172773428Y-75600571D01*
X172773428Y-74172000D02*
X172630571Y-74100571D01*
X172344857Y-74100571D01*
X172202000Y-74172000D01*
X172130571Y-74243429D01*
X172059142Y-74386286D01*
X172059142Y-74814857D01*
X172130571Y-74957714D01*
X172202000Y-75029143D01*
X172344857Y-75100571D01*
X172630571Y-75100571D01*
X172773428Y-75029143D01*
X170844857Y-75029143D02*
X170987714Y-75100571D01*
X171273428Y-75100571D01*
X171416285Y-75029143D01*
X171487714Y-74886286D01*
X171487714Y-74314857D01*
X171416285Y-74172000D01*
X171273428Y-74100571D01*
X170987714Y-74100571D01*
X170844857Y-74172000D01*
X170773428Y-74314857D01*
X170773428Y-74457714D01*
X171487714Y-74600571D01*
X170130571Y-75100571D02*
X170130571Y-74100571D01*
X170130571Y-74386286D02*
X170059143Y-74243429D01*
X169987714Y-74172000D01*
X169844857Y-74100571D01*
X169702000Y-74100571D01*
X168559143Y-75100571D02*
X168559143Y-74314857D01*
X168630572Y-74172000D01*
X168773429Y-74100571D01*
X169059143Y-74100571D01*
X169202000Y-74172000D01*
X168559143Y-75029143D02*
X168702000Y-75100571D01*
X169059143Y-75100571D01*
X169202000Y-75029143D01*
X169273429Y-74886286D01*
X169273429Y-74743429D01*
X169202000Y-74600571D01*
X169059143Y-74529143D01*
X168702000Y-74529143D01*
X168559143Y-74457714D01*
X168059143Y-74100571D02*
X167487714Y-74100571D01*
X167844857Y-73600571D02*
X167844857Y-74886286D01*
X167773429Y-75029143D01*
X167630571Y-75100571D01*
X167487714Y-75100571D01*
X166344857Y-74100571D02*
X166344857Y-75100571D01*
X166987714Y-74100571D02*
X166987714Y-74886286D01*
X166916286Y-75029143D01*
X166773428Y-75100571D01*
X166559143Y-75100571D01*
X166416286Y-75029143D01*
X166344857Y-74957714D01*
X165630571Y-75100571D02*
X165630571Y-74100571D01*
X165630571Y-74386286D02*
X165559143Y-74243429D01*
X165487714Y-74172000D01*
X165344857Y-74100571D01*
X165202000Y-74100571D01*
X164130572Y-75029143D02*
X164273429Y-75100571D01*
X164559143Y-75100571D01*
X164702000Y-75029143D01*
X164773429Y-74886286D01*
X164773429Y-74314857D01*
X164702000Y-74172000D01*
X164559143Y-74100571D01*
X164273429Y-74100571D01*
X164130572Y-74172000D01*
X164059143Y-74314857D01*
X164059143Y-74457714D01*
X164773429Y-74600571D01*
X162273429Y-75100571D02*
X162273429Y-73600571D01*
X161773429Y-74672000D01*
X161273429Y-73600571D01*
X161273429Y-75100571D01*
X160344857Y-75100571D02*
X160487715Y-75029143D01*
X160559143Y-74957714D01*
X160630572Y-74814857D01*
X160630572Y-74386286D01*
X160559143Y-74243429D01*
X160487715Y-74172000D01*
X160344857Y-74100571D01*
X160130572Y-74100571D01*
X159987715Y-74172000D01*
X159916286Y-74243429D01*
X159844857Y-74386286D01*
X159844857Y-74814857D01*
X159916286Y-74957714D01*
X159987715Y-75029143D01*
X160130572Y-75100571D01*
X160344857Y-75100571D01*
X159202000Y-74100571D02*
X159202000Y-75100571D01*
X159202000Y-74243429D02*
X159130572Y-74172000D01*
X158987714Y-74100571D01*
X158773429Y-74100571D01*
X158630572Y-74172000D01*
X158559143Y-74314857D01*
X158559143Y-75100571D01*
X157844857Y-75100571D02*
X157844857Y-74100571D01*
X157844857Y-73600571D02*
X157916286Y-73672000D01*
X157844857Y-73743429D01*
X157773429Y-73672000D01*
X157844857Y-73600571D01*
X157844857Y-73743429D01*
X157344857Y-74100571D02*
X156773428Y-74100571D01*
X157130571Y-73600571D02*
X157130571Y-74886286D01*
X157059143Y-75029143D01*
X156916285Y-75100571D01*
X156773428Y-75100571D01*
X156059142Y-75100571D02*
X156202000Y-75029143D01*
X156273428Y-74957714D01*
X156344857Y-74814857D01*
X156344857Y-74386286D01*
X156273428Y-74243429D01*
X156202000Y-74172000D01*
X156059142Y-74100571D01*
X155844857Y-74100571D01*
X155702000Y-74172000D01*
X155630571Y-74243429D01*
X155559142Y-74386286D01*
X155559142Y-74814857D01*
X155630571Y-74957714D01*
X155702000Y-75029143D01*
X155844857Y-75100571D01*
X156059142Y-75100571D01*
X154916285Y-75100571D02*
X154916285Y-74100571D01*
X154916285Y-74386286D02*
X154844857Y-74243429D01*
X154773428Y-74172000D01*
X154630571Y-74100571D01*
X154487714Y-74100571D01*
X153059143Y-73600571D02*
X152202000Y-73600571D01*
X152630571Y-75100571D02*
X152630571Y-73600571D01*
X151130572Y-75029143D02*
X151273429Y-75100571D01*
X151559143Y-75100571D01*
X151702000Y-75029143D01*
X151773429Y-74886286D01*
X151773429Y-74314857D01*
X151702000Y-74172000D01*
X151559143Y-74100571D01*
X151273429Y-74100571D01*
X151130572Y-74172000D01*
X151059143Y-74314857D01*
X151059143Y-74457714D01*
X151773429Y-74600571D01*
X149844858Y-75029143D02*
X149987715Y-75100571D01*
X150273429Y-75100571D01*
X150416286Y-75029143D01*
X150487715Y-74886286D01*
X150487715Y-74314857D01*
X150416286Y-74172000D01*
X150273429Y-74100571D01*
X149987715Y-74100571D01*
X149844858Y-74172000D01*
X149773429Y-74314857D01*
X149773429Y-74457714D01*
X150487715Y-74600571D01*
X149130572Y-74100571D02*
X149130572Y-75100571D01*
X149130572Y-74243429D02*
X149059144Y-74172000D01*
X148916286Y-74100571D01*
X148702001Y-74100571D01*
X148559144Y-74172000D01*
X148487715Y-74314857D01*
X148487715Y-75100571D01*
X147844858Y-75029143D02*
X147702001Y-75100571D01*
X147416286Y-75100571D01*
X147273429Y-75029143D01*
X147202001Y-74886286D01*
X147202001Y-74814857D01*
X147273429Y-74672000D01*
X147416286Y-74600571D01*
X147630572Y-74600571D01*
X147773429Y-74529143D01*
X147844858Y-74386286D01*
X147844858Y-74314857D01*
X147773429Y-74172000D01*
X147630572Y-74100571D01*
X147416286Y-74100571D01*
X147273429Y-74172000D01*
X146702000Y-74100571D02*
X146344857Y-75100571D01*
X145987715Y-74100571D02*
X146344857Y-75100571D01*
X146487715Y-75457714D01*
X146559143Y-75529143D01*
X146702000Y-75600571D01*
X144273429Y-75100571D02*
X144273429Y-73600571D01*
X144273429Y-74314857D02*
X143416286Y-74314857D01*
X143416286Y-75100571D02*
X143416286Y-73600571D01*
X142059143Y-75100571D02*
X142059143Y-74314857D01*
X142130572Y-74172000D01*
X142273429Y-74100571D01*
X142559143Y-74100571D01*
X142702000Y-74172000D01*
X142059143Y-75029143D02*
X142202000Y-75100571D01*
X142559143Y-75100571D01*
X142702000Y-75029143D01*
X142773429Y-74886286D01*
X142773429Y-74743429D01*
X142702000Y-74600571D01*
X142559143Y-74529143D01*
X142202000Y-74529143D01*
X142059143Y-74457714D01*
X141559143Y-74100571D02*
X140987714Y-74100571D01*
X141344857Y-73600571D02*
X141344857Y-74886286D01*
X141273429Y-75029143D01*
X141130571Y-75100571D01*
X140987714Y-75100571D01*
X138344857Y-74100571D02*
X137987714Y-75100571D01*
X137630572Y-74100571D01*
X136273429Y-75100571D02*
X137130572Y-75100571D01*
X136702000Y-75100571D02*
X136702000Y-73600571D01*
X136844857Y-73814857D01*
X136987715Y-73957714D01*
X137130572Y-74029143D01*
X135630572Y-74957714D02*
X135559144Y-75029143D01*
X135630572Y-75100571D01*
X135702001Y-75029143D01*
X135630572Y-74957714D01*
X135630572Y-75100571D01*
X134630572Y-73600571D02*
X134487715Y-73600571D01*
X134344858Y-73672000D01*
X134273429Y-73743429D01*
X134202000Y-73886286D01*
X134130572Y-74172000D01*
X134130572Y-74529143D01*
X134202000Y-74814857D01*
X134273429Y-74957714D01*
X134344858Y-75029143D01*
X134487715Y-75100571D01*
X134630572Y-75100571D01*
X134773429Y-75029143D01*
X134844858Y-74957714D01*
X134916286Y-74814857D01*
X134987715Y-74529143D01*
X134987715Y-74172000D01*
X134916286Y-73886286D01*
X134844858Y-73743429D01*
X134773429Y-73672000D01*
X134630572Y-73600571D01*
D12*
X178308000Y-113538000D02*
X178308000Y-77216000D01*
X98044000Y-113538000D02*
X178308000Y-113538000D01*
X98044000Y-77216000D02*
X98044000Y-113538000D01*
X178308000Y-77216000D02*
X98044000Y-77216000D01*
X166878000Y-92456000D02*
G75*
G03X166878000Y-92456000I-254000J0D01*
G01*
D13*
X165906000Y-86166000D02*
X171406000Y-86166000D01*
X165906000Y-93666000D02*
X165906000Y-86166000D01*
X171406000Y-93666000D02*
X171406000Y-86166000D01*
X165906000Y-93666000D02*
X171406000Y-93666000D01*
X170348000Y-100826000D02*
X167448000Y-100826000D01*
X170348000Y-100826000D02*
X170348000Y-99326000D01*
X167448000Y-100826000D02*
X167448000Y-99326000D01*
X170348000Y-99326000D02*
X167448000Y-99326000D01*
X173470000Y-91514000D02*
X173470000Y-94414000D01*
X173470000Y-91514000D02*
X171970000Y-91514000D01*
X173470000Y-94414000D02*
X171970000Y-94414000D01*
X171970000Y-91514000D02*
X171970000Y-94414000D01*
X170914000Y-102872000D02*
X170906440Y-109472000D01*
X170914000Y-102872000D02*
X164864000Y-102872000D01*
X170914000Y-109472000D02*
X164864000Y-109472000D01*
X164864000Y-102872000D02*
X164864000Y-109472000D01*
D12*
X123295210Y-81280000D02*
G75*
G03X123295210Y-81280000I-359210J0D01*
G01*
D13*
X126492000Y-87630000D02*
X126492000Y-79756000D01*
X119380000Y-87630000D02*
X126492000Y-87630000D01*
X119380000Y-79756000D02*
X119380000Y-87630000D01*
X126492000Y-79756000D02*
X119380000Y-79756000D01*
X114688000Y-83996000D02*
X99688000Y-83996000D01*
X114688000Y-105996000D02*
X114688000Y-83996000D01*
X99688000Y-105996000D02*
X114688000Y-105996000D01*
X99688000Y-83996000D02*
X99688000Y-105996000D01*
X156312000Y-102616000D02*
X158312000Y-102616000D01*
X156312000Y-98116000D02*
X156312000Y-102616000D01*
X158312000Y-98116000D02*
X156312000Y-98116000D01*
X122812000Y-91116000D02*
X122812000Y-109116000D01*
X158312000Y-91116000D02*
X122812000Y-91116000D01*
X158312000Y-109116000D02*
X158312000Y-91116000D01*
X122812000Y-109116000D02*
X158312000Y-109116000D01*
D14*
X167600381Y-90677905D02*
X168409905Y-90677905D01*
X168505143Y-90630286D01*
X168552762Y-90582667D01*
X168600381Y-90487429D01*
X168600381Y-90296952D01*
X168552762Y-90201714D01*
X168505143Y-90154095D01*
X168409905Y-90106476D01*
X167600381Y-90106476D01*
X168600381Y-89106476D02*
X168600381Y-89677905D01*
X168600381Y-89392191D02*
X167600381Y-89392191D01*
X167743238Y-89487429D01*
X167838476Y-89582667D01*
X167886095Y-89677905D01*
X168674667Y-100321714D02*
X168636572Y-100359810D01*
X168522286Y-100397905D01*
X168446096Y-100397905D01*
X168331810Y-100359810D01*
X168255619Y-100283619D01*
X168217524Y-100207429D01*
X168179429Y-100055048D01*
X168179429Y-99940762D01*
X168217524Y-99788381D01*
X168255619Y-99712190D01*
X168331810Y-99636000D01*
X168446096Y-99597905D01*
X168522286Y-99597905D01*
X168636572Y-99636000D01*
X168674667Y-99674095D01*
X169436572Y-100397905D02*
X168979429Y-100397905D01*
X169208000Y-100397905D02*
X169208000Y-99597905D01*
X169131810Y-99712190D01*
X169055619Y-99788381D01*
X168979429Y-99826476D01*
X172965714Y-93187333D02*
X173003810Y-93225428D01*
X173041905Y-93339714D01*
X173041905Y-93415904D01*
X173003810Y-93530190D01*
X172927619Y-93606381D01*
X172851429Y-93644476D01*
X172699048Y-93682571D01*
X172584762Y-93682571D01*
X172432381Y-93644476D01*
X172356190Y-93606381D01*
X172280000Y-93530190D01*
X172241905Y-93415904D01*
X172241905Y-93339714D01*
X172280000Y-93225428D01*
X172318095Y-93187333D01*
X172318095Y-92882571D02*
X172280000Y-92844476D01*
X172241905Y-92768285D01*
X172241905Y-92577809D01*
X172280000Y-92501619D01*
X172318095Y-92463523D01*
X172394286Y-92425428D01*
X172470476Y-92425428D01*
X172584762Y-92463523D01*
X173041905Y-92920666D01*
X173041905Y-92425428D01*
X167346381Y-106505333D02*
X168060667Y-106505333D01*
X168203524Y-106552953D01*
X168298762Y-106648191D01*
X168346381Y-106791048D01*
X168346381Y-106886286D01*
X167441619Y-106076762D02*
X167394000Y-106029143D01*
X167346381Y-105933905D01*
X167346381Y-105695809D01*
X167394000Y-105600571D01*
X167441619Y-105552952D01*
X167536857Y-105505333D01*
X167632095Y-105505333D01*
X167774952Y-105552952D01*
X168346381Y-106124381D01*
X168346381Y-105505333D01*
X123388381Y-83986666D02*
X122912190Y-84320000D01*
X123388381Y-84558095D02*
X122388381Y-84558095D01*
X122388381Y-84177142D01*
X122436000Y-84081904D01*
X122483619Y-84034285D01*
X122578857Y-83986666D01*
X122721714Y-83986666D01*
X122816952Y-84034285D01*
X122864571Y-84081904D01*
X122912190Y-84177142D01*
X122912190Y-84558095D01*
X123388381Y-83034285D02*
X123388381Y-83605714D01*
X123388381Y-83320000D02*
X122388381Y-83320000D01*
X122531238Y-83415238D01*
X122626476Y-83510476D01*
X122674095Y-83605714D01*
X107592762Y-96757905D02*
X107640381Y-96615048D01*
X107640381Y-96376952D01*
X107592762Y-96281714D01*
X107545143Y-96234095D01*
X107449905Y-96186476D01*
X107354667Y-96186476D01*
X107259429Y-96234095D01*
X107211810Y-96281714D01*
X107164190Y-96376952D01*
X107116571Y-96567429D01*
X107068952Y-96662667D01*
X107021333Y-96710286D01*
X106926095Y-96757905D01*
X106830857Y-96757905D01*
X106735619Y-96710286D01*
X106688000Y-96662667D01*
X106640381Y-96567429D01*
X106640381Y-96329333D01*
X106688000Y-96186476D01*
X107640381Y-95757905D02*
X106640381Y-95757905D01*
X106640381Y-95376952D01*
X106688000Y-95281714D01*
X106735619Y-95234095D01*
X106830857Y-95186476D01*
X106973714Y-95186476D01*
X107068952Y-95234095D01*
X107116571Y-95281714D01*
X107164190Y-95376952D01*
X107164190Y-95757905D01*
X107640381Y-94757905D02*
X106640381Y-94757905D01*
X107640381Y-94186476D02*
X107068952Y-94615048D01*
X106640381Y-94186476D02*
X107211810Y-94757905D01*
X107640381Y-93234095D02*
X107640381Y-93805524D01*
X107640381Y-93519810D02*
X106640381Y-93519810D01*
X106783238Y-93615048D01*
X106878476Y-93710286D01*
X106926095Y-93805524D01*
X146264381Y-100949333D02*
X146978667Y-100949333D01*
X147121524Y-100996953D01*
X147216762Y-101092191D01*
X147264381Y-101235048D01*
X147264381Y-101330286D01*
X147264381Y-99949333D02*
X147264381Y-100520762D01*
X147264381Y-100235048D02*
X146264381Y-100235048D01*
X146407238Y-100330286D01*
X146502476Y-100425524D01*
X146550095Y-100520762D01*
M02*
