G04 #@! TF.FileFunction,Other,User*
%FSLAX46Y46*%
G04 Gerber Fmt 4.6, Leading zero omitted, Abs format (unit mm)*
G04 Created by KiCad (PCBNEW 4.0.1-3.201512221402+6198~38~ubuntu14.04.1-stable) date Sat 30 Jul 2016 09:56:49 PM PDT*
%MOMM*%
G01*
G04 APERTURE LIST*
%ADD10C,0.100000*%
%ADD11C,0.050000*%
%ADD12C,0.152400*%
G04 APERTURE END LIST*
D10*
D11*
X165906000Y-93666000D02*
X171406000Y-93666000D01*
X165906000Y-86166000D02*
X171406000Y-86166000D01*
X165906000Y-93666000D02*
X165906000Y-86166000D01*
X171406000Y-93666000D02*
X171406000Y-86166000D01*
X170348000Y-99326000D02*
X167448000Y-99326000D01*
X170348000Y-100826000D02*
X170348000Y-99326000D01*
X167448000Y-100826000D02*
X167448000Y-99326000D01*
X170348000Y-100826000D02*
X167448000Y-100826000D01*
X171970000Y-91514000D02*
X171970000Y-94414000D01*
X173470000Y-91514000D02*
X171970000Y-91514000D01*
X173470000Y-94414000D02*
X171970000Y-94414000D01*
X173470000Y-91514000D02*
X173470000Y-94414000D01*
X170914000Y-102872000D02*
X164864000Y-102872000D01*
X170914000Y-109472000D02*
X164864000Y-109472000D01*
X170914000Y-102872000D02*
X170906440Y-109472000D01*
X164864000Y-102872000D02*
X164864000Y-109472000D01*
X115188000Y-106496000D02*
X115188000Y-105996000D01*
X99188000Y-106496000D02*
X115188000Y-106496000D01*
X99188000Y-83496000D02*
X99188000Y-106496000D01*
X115188000Y-83496000D02*
X99188000Y-83496000D01*
X115188000Y-105996000D02*
X115188000Y-83496000D01*
D12*
X122682000Y-91186000D02*
X122682000Y-108966000D01*
X158242000Y-91186000D02*
X122682000Y-91186000D01*
X158242000Y-108966000D02*
X158242000Y-91186000D01*
X122682000Y-108966000D02*
X158242000Y-108966000D01*
M02*
