G04 #@! TF.FileFunction,Soldermask,Bot*
%FSLAX46Y46*%
G04 Gerber Fmt 4.6, Leading zero omitted, Abs format (unit mm)*
G04 Created by KiCad (PCBNEW 4.0.1-3.201512221402+6198~38~ubuntu14.04.1-stable) date Sat 30 Jul 2016 09:56:49 PM PDT*
%MOMM*%
G01*
G04 APERTURE LIST*
%ADD10C,0.100000*%
%ADD11R,2.432000X2.432000*%
%ADD12O,2.432000X2.432000*%
%ADD13O,2.200000X3.000000*%
%ADD14C,3.400000*%
%ADD15R,2.432000X2.127200*%
%ADD16O,2.432000X2.127200*%
%ADD17C,2.127200*%
G04 APERTURE END LIST*
D10*
D11*
X169164000Y-106172000D03*
D12*
X166624000Y-106172000D03*
D13*
X170180000Y-79756000D03*
X167640000Y-79756000D03*
X165100000Y-79756000D03*
X162560000Y-79756000D03*
X160020000Y-79756000D03*
X157480000Y-79756000D03*
X154940000Y-79756000D03*
X152400000Y-79756000D03*
X149860000Y-79756000D03*
X147320000Y-79756000D03*
X144780000Y-79756000D03*
X142240000Y-79756000D03*
X139700000Y-79756000D03*
X137160000Y-79756000D03*
X134620000Y-79756000D03*
X132080000Y-79756000D03*
D14*
X175679100Y-79756000D03*
X175679100Y-110756700D03*
X100680520Y-110756700D03*
X100680520Y-79756000D03*
D15*
X122936000Y-81280000D03*
D16*
X122936000Y-83820000D03*
X122936000Y-86360000D03*
D17*
X156972000Y-92456000D03*
X154432000Y-92456000D03*
X151892000Y-92456000D03*
X149352000Y-92456000D03*
X146812000Y-92456000D03*
X144272000Y-92456000D03*
X141732000Y-92456000D03*
X139192000Y-92456000D03*
X136652000Y-92456000D03*
X134112000Y-92456000D03*
X131572000Y-92456000D03*
X129032000Y-92456000D03*
X126492000Y-92456000D03*
X123952000Y-92456000D03*
X123952000Y-94996000D03*
X123952000Y-97536000D03*
X123952000Y-100076000D03*
X123952000Y-102616000D03*
X123952000Y-105156000D03*
X123952000Y-107696000D03*
X131572000Y-107696000D03*
X151892000Y-107696000D03*
X136652000Y-107696000D03*
X134112000Y-107696000D03*
X154432000Y-107696000D03*
X146812000Y-107696000D03*
X156972000Y-107696000D03*
X144272000Y-107696000D03*
X141732000Y-107696000D03*
X139192000Y-107696000D03*
X149352000Y-107696000D03*
X126492000Y-107696000D03*
X129032000Y-107696000D03*
M02*
