G04 #@! TF.FileFunction,Other,Fab,Top*
%FSLAX46Y46*%
G04 Gerber Fmt 4.6, Leading zero omitted, Abs format (unit mm)*
G04 Created by KiCad (PCBNEW 4.0.1-3.201512221402+6198~38~ubuntu14.04.1-stable) date Sat 30 Jul 2016 10:01:43 PM PDT*
%MOMM*%
G01*
G04 APERTURE LIST*
%ADD10C,0.100000*%
%ADD11C,0.200000*%
%ADD12C,0.050000*%
%ADD13C,0.150000*%
G04 APERTURE END LIST*
D10*
D11*
X166878000Y-92456000D02*
G75*
G03X166878000Y-92456000I-254000J0D01*
G01*
D12*
X165906000Y-86166000D02*
X171406000Y-86166000D01*
X165906000Y-93666000D02*
X165906000Y-86166000D01*
X171406000Y-93666000D02*
X171406000Y-86166000D01*
X165906000Y-93666000D02*
X171406000Y-93666000D01*
X170348000Y-100826000D02*
X167448000Y-100826000D01*
X170348000Y-100826000D02*
X170348000Y-99326000D01*
X167448000Y-100826000D02*
X167448000Y-99326000D01*
X170348000Y-99326000D02*
X167448000Y-99326000D01*
X173470000Y-91514000D02*
X173470000Y-94414000D01*
X173470000Y-91514000D02*
X171970000Y-91514000D01*
X173470000Y-94414000D02*
X171970000Y-94414000D01*
X171970000Y-91514000D02*
X171970000Y-94414000D01*
X170914000Y-102872000D02*
X170906440Y-109472000D01*
X170914000Y-102872000D02*
X164864000Y-102872000D01*
X170914000Y-109472000D02*
X164864000Y-109472000D01*
X164864000Y-102872000D02*
X164864000Y-109472000D01*
D11*
X123295210Y-81280000D02*
G75*
G03X123295210Y-81280000I-359210J0D01*
G01*
D12*
X126492000Y-87630000D02*
X126492000Y-79756000D01*
X119380000Y-87630000D02*
X126492000Y-87630000D01*
X119380000Y-79756000D02*
X119380000Y-87630000D01*
X126492000Y-79756000D02*
X119380000Y-79756000D01*
X114688000Y-83996000D02*
X99688000Y-83996000D01*
X114688000Y-105996000D02*
X114688000Y-83996000D01*
X99688000Y-105996000D02*
X114688000Y-105996000D01*
X99688000Y-83996000D02*
X99688000Y-105996000D01*
X156312000Y-102616000D02*
X158312000Y-102616000D01*
X156312000Y-98116000D02*
X156312000Y-102616000D01*
X158312000Y-98116000D02*
X156312000Y-98116000D01*
X122812000Y-91116000D02*
X122812000Y-109116000D01*
X158312000Y-91116000D02*
X122812000Y-91116000D01*
X158312000Y-109116000D02*
X158312000Y-91116000D01*
X122812000Y-109116000D02*
X158312000Y-109116000D01*
D13*
X167600381Y-90677905D02*
X168409905Y-90677905D01*
X168505143Y-90630286D01*
X168552762Y-90582667D01*
X168600381Y-90487429D01*
X168600381Y-90296952D01*
X168552762Y-90201714D01*
X168505143Y-90154095D01*
X168409905Y-90106476D01*
X167600381Y-90106476D01*
X168600381Y-89106476D02*
X168600381Y-89677905D01*
X168600381Y-89392191D02*
X167600381Y-89392191D01*
X167743238Y-89487429D01*
X167838476Y-89582667D01*
X167886095Y-89677905D01*
X168674667Y-100321714D02*
X168636572Y-100359810D01*
X168522286Y-100397905D01*
X168446096Y-100397905D01*
X168331810Y-100359810D01*
X168255619Y-100283619D01*
X168217524Y-100207429D01*
X168179429Y-100055048D01*
X168179429Y-99940762D01*
X168217524Y-99788381D01*
X168255619Y-99712190D01*
X168331810Y-99636000D01*
X168446096Y-99597905D01*
X168522286Y-99597905D01*
X168636572Y-99636000D01*
X168674667Y-99674095D01*
X169436572Y-100397905D02*
X168979429Y-100397905D01*
X169208000Y-100397905D02*
X169208000Y-99597905D01*
X169131810Y-99712190D01*
X169055619Y-99788381D01*
X168979429Y-99826476D01*
X172965714Y-93187333D02*
X173003810Y-93225428D01*
X173041905Y-93339714D01*
X173041905Y-93415904D01*
X173003810Y-93530190D01*
X172927619Y-93606381D01*
X172851429Y-93644476D01*
X172699048Y-93682571D01*
X172584762Y-93682571D01*
X172432381Y-93644476D01*
X172356190Y-93606381D01*
X172280000Y-93530190D01*
X172241905Y-93415904D01*
X172241905Y-93339714D01*
X172280000Y-93225428D01*
X172318095Y-93187333D01*
X172318095Y-92882571D02*
X172280000Y-92844476D01*
X172241905Y-92768285D01*
X172241905Y-92577809D01*
X172280000Y-92501619D01*
X172318095Y-92463523D01*
X172394286Y-92425428D01*
X172470476Y-92425428D01*
X172584762Y-92463523D01*
X173041905Y-92920666D01*
X173041905Y-92425428D01*
X167346381Y-106505333D02*
X168060667Y-106505333D01*
X168203524Y-106552953D01*
X168298762Y-106648191D01*
X168346381Y-106791048D01*
X168346381Y-106886286D01*
X167441619Y-106076762D02*
X167394000Y-106029143D01*
X167346381Y-105933905D01*
X167346381Y-105695809D01*
X167394000Y-105600571D01*
X167441619Y-105552952D01*
X167536857Y-105505333D01*
X167632095Y-105505333D01*
X167774952Y-105552952D01*
X168346381Y-106124381D01*
X168346381Y-105505333D01*
X123388381Y-83986666D02*
X122912190Y-84320000D01*
X123388381Y-84558095D02*
X122388381Y-84558095D01*
X122388381Y-84177142D01*
X122436000Y-84081904D01*
X122483619Y-84034285D01*
X122578857Y-83986666D01*
X122721714Y-83986666D01*
X122816952Y-84034285D01*
X122864571Y-84081904D01*
X122912190Y-84177142D01*
X122912190Y-84558095D01*
X123388381Y-83034285D02*
X123388381Y-83605714D01*
X123388381Y-83320000D02*
X122388381Y-83320000D01*
X122531238Y-83415238D01*
X122626476Y-83510476D01*
X122674095Y-83605714D01*
X107592762Y-96757905D02*
X107640381Y-96615048D01*
X107640381Y-96376952D01*
X107592762Y-96281714D01*
X107545143Y-96234095D01*
X107449905Y-96186476D01*
X107354667Y-96186476D01*
X107259429Y-96234095D01*
X107211810Y-96281714D01*
X107164190Y-96376952D01*
X107116571Y-96567429D01*
X107068952Y-96662667D01*
X107021333Y-96710286D01*
X106926095Y-96757905D01*
X106830857Y-96757905D01*
X106735619Y-96710286D01*
X106688000Y-96662667D01*
X106640381Y-96567429D01*
X106640381Y-96329333D01*
X106688000Y-96186476D01*
X107640381Y-95757905D02*
X106640381Y-95757905D01*
X106640381Y-95376952D01*
X106688000Y-95281714D01*
X106735619Y-95234095D01*
X106830857Y-95186476D01*
X106973714Y-95186476D01*
X107068952Y-95234095D01*
X107116571Y-95281714D01*
X107164190Y-95376952D01*
X107164190Y-95757905D01*
X107640381Y-94757905D02*
X106640381Y-94757905D01*
X107640381Y-94186476D02*
X107068952Y-94615048D01*
X106640381Y-94186476D02*
X107211810Y-94757905D01*
X107640381Y-93234095D02*
X107640381Y-93805524D01*
X107640381Y-93519810D02*
X106640381Y-93519810D01*
X106783238Y-93615048D01*
X106878476Y-93710286D01*
X106926095Y-93805524D01*
X146264381Y-100949333D02*
X146978667Y-100949333D01*
X147121524Y-100996953D01*
X147216762Y-101092191D01*
X147264381Y-101235048D01*
X147264381Y-101330286D01*
X147264381Y-99949333D02*
X147264381Y-100520762D01*
X147264381Y-100235048D02*
X146264381Y-100235048D01*
X146407238Y-100330286D01*
X146502476Y-100425524D01*
X146550095Y-100520762D01*
M02*
