G04 #@! TF.FileFunction,Copper,L1,Top,Signal*
%FSLAX46Y46*%
G04 Gerber Fmt 4.6, Leading zero omitted, Abs format (unit mm)*
G04 Created by KiCad (PCBNEW 4.0.1-3.201512221402+6198~38~ubuntu14.04.1-stable) date Sat 30 Jul 2016 09:56:49 PM PDT*
%MOMM*%
G01*
G04 APERTURE LIST*
%ADD10C,0.100000*%
%ADD11R,0.600000X1.550000*%
%ADD12R,0.800000X0.750000*%
%ADD13R,0.750000X0.800000*%
%ADD14R,2.032000X2.032000*%
%ADD15O,2.032000X2.032000*%
%ADD16O,1.800000X2.600000*%
%ADD17C,3.000000*%
%ADD18R,2.032000X1.727200*%
%ADD19O,2.032000X1.727200*%
%ADD20R,4.300000X5.700000*%
%ADD21C,1.727200*%
%ADD22C,0.685800*%
%ADD23C,0.508000*%
%ADD24C,0.254000*%
G04 APERTURE END LIST*
D10*
D11*
X166751000Y-92616000D03*
X168021000Y-92616000D03*
X169291000Y-92616000D03*
X170561000Y-92616000D03*
X170561000Y-87216000D03*
X169291000Y-87216000D03*
X168021000Y-87216000D03*
X166751000Y-87216000D03*
D12*
X169648000Y-100076000D03*
X168148000Y-100076000D03*
D13*
X172720000Y-92214000D03*
X172720000Y-93714000D03*
D14*
X169164000Y-106172000D03*
D15*
X166624000Y-106172000D03*
D16*
X170180000Y-79756000D03*
X167640000Y-79756000D03*
X165100000Y-79756000D03*
X162560000Y-79756000D03*
X160020000Y-79756000D03*
X157480000Y-79756000D03*
X154940000Y-79756000D03*
X152400000Y-79756000D03*
X149860000Y-79756000D03*
X147320000Y-79756000D03*
X144780000Y-79756000D03*
X142240000Y-79756000D03*
X139700000Y-79756000D03*
X137160000Y-79756000D03*
X134620000Y-79756000D03*
X132080000Y-79756000D03*
D17*
X175679100Y-79756000D03*
X175679100Y-110756700D03*
X100680520Y-110756700D03*
X100680520Y-79756000D03*
D18*
X122936000Y-81280000D03*
D19*
X122936000Y-83820000D03*
X122936000Y-86360000D03*
D20*
X107188000Y-87346000D03*
X107188000Y-102496000D03*
D21*
X156972000Y-92456000D03*
X154432000Y-92456000D03*
X151892000Y-92456000D03*
X149352000Y-92456000D03*
X146812000Y-92456000D03*
X144272000Y-92456000D03*
X141732000Y-92456000D03*
X139192000Y-92456000D03*
X136652000Y-92456000D03*
X134112000Y-92456000D03*
X131572000Y-92456000D03*
X129032000Y-92456000D03*
X126492000Y-92456000D03*
X123952000Y-92456000D03*
X123952000Y-94996000D03*
X123952000Y-97536000D03*
X123952000Y-100076000D03*
X123952000Y-102616000D03*
X123952000Y-105156000D03*
X123952000Y-107696000D03*
X131572000Y-107696000D03*
X151892000Y-107696000D03*
X136652000Y-107696000D03*
X134112000Y-107696000D03*
X154432000Y-107696000D03*
X146812000Y-107696000D03*
X156972000Y-107696000D03*
X144272000Y-107696000D03*
X141732000Y-107696000D03*
X139192000Y-107696000D03*
X149352000Y-107696000D03*
X126492000Y-107696000D03*
X129032000Y-107696000D03*
D22*
X102616000Y-102616000D03*
X107188000Y-107696000D03*
X166624000Y-94488000D03*
X172720000Y-95504000D03*
X163576000Y-82296000D03*
X130048000Y-83820000D03*
X130556000Y-105156000D03*
D23*
X169291000Y-92616000D02*
X169291000Y-99719000D01*
X169291000Y-99719000D02*
X169648000Y-100076000D01*
X169648000Y-100076000D02*
X169648000Y-105688000D01*
X169648000Y-105688000D02*
X169164000Y-106172000D01*
X168148000Y-100076000D02*
X168148000Y-92743000D01*
X168148000Y-92743000D02*
X168021000Y-92616000D01*
X168148000Y-100076000D02*
X168148000Y-100959000D01*
X168148000Y-100959000D02*
X166624000Y-102483000D01*
X166624000Y-102483000D02*
X166624000Y-104735160D01*
X166624000Y-104735160D02*
X166624000Y-106172000D01*
X172720000Y-92214000D02*
X170963000Y-92214000D01*
X170963000Y-92214000D02*
X170561000Y-92616000D01*
X169672000Y-90424000D02*
X170561000Y-91313000D01*
X170561000Y-91313000D02*
X170561000Y-92616000D01*
X166624000Y-90424000D02*
X169672000Y-90424000D01*
X152755599Y-104292401D02*
X166624000Y-90424000D01*
X151892000Y-107696000D02*
X152755599Y-106832401D01*
X152755599Y-106832401D02*
X152755599Y-104292401D01*
X102736000Y-102496000D02*
X102616000Y-102616000D01*
X107188000Y-102496000D02*
X102736000Y-102496000D01*
X107188000Y-102496000D02*
X107188000Y-107696000D01*
X166751000Y-92616000D02*
X166751000Y-94361000D01*
X166751000Y-94361000D02*
X166624000Y-94488000D01*
X172720000Y-93714000D02*
X172720000Y-95504000D01*
X122936000Y-81280000D02*
X130556000Y-81280000D01*
X130556000Y-81280000D02*
X132080000Y-79756000D01*
X166908000Y-82296000D02*
X163576000Y-82296000D01*
X167640000Y-81564000D02*
X166908000Y-82296000D01*
X170688000Y-110236000D02*
X159512000Y-110236000D01*
X159512000Y-110236000D02*
X156972000Y-107696000D01*
X175768000Y-105156000D02*
X170688000Y-110236000D01*
X175768000Y-88900000D02*
X175768000Y-105156000D01*
X172212000Y-85344000D02*
X175768000Y-88900000D01*
X171420000Y-85344000D02*
X172212000Y-85344000D01*
X167640000Y-79756000D02*
X167640000Y-81564000D01*
X167640000Y-81564000D02*
X171420000Y-85344000D01*
X134620000Y-79756000D02*
X134620000Y-81564000D01*
X134620000Y-81564000D02*
X129824000Y-86360000D01*
X129824000Y-86360000D02*
X124460000Y-86360000D01*
X124460000Y-86360000D02*
X122936000Y-86360000D01*
X122936000Y-83820000D02*
X130048000Y-83820000D01*
X159512000Y-86360000D02*
X162560000Y-83312000D01*
X162560000Y-83312000D02*
X162560000Y-79756000D01*
X150368000Y-86360000D02*
X159512000Y-86360000D01*
X144272000Y-92456000D02*
X150368000Y-86360000D01*
X157480000Y-85344000D02*
X160020000Y-82804000D01*
X160020000Y-82804000D02*
X160020000Y-79756000D01*
X148844000Y-85344000D02*
X157480000Y-85344000D01*
X141732000Y-92456000D02*
X148844000Y-85344000D01*
X156464000Y-83820000D02*
X157480000Y-82804000D01*
X157480000Y-82804000D02*
X157480000Y-79756000D01*
X147828000Y-83820000D02*
X156464000Y-83820000D01*
X139192000Y-92456000D02*
X147828000Y-83820000D01*
X134112000Y-92456000D02*
X144780000Y-81788000D01*
X144780000Y-81788000D02*
X144780000Y-79756000D01*
X131572000Y-92456000D02*
X142240000Y-81788000D01*
X142240000Y-81788000D02*
X142240000Y-79756000D01*
X139700000Y-81788000D02*
X139700000Y-79756000D01*
X129032000Y-92456000D02*
X139700000Y-81788000D01*
X126492000Y-92456000D02*
X137160000Y-81788000D01*
X137160000Y-81788000D02*
X137160000Y-79756000D01*
X140716000Y-110744000D02*
X141732000Y-109728000D01*
X141732000Y-109728000D02*
X141732000Y-107696000D01*
X121920000Y-110744000D02*
X140716000Y-110744000D01*
X119380000Y-108204000D02*
X121920000Y-110744000D01*
X119380000Y-100238000D02*
X119380000Y-108204000D01*
X107188000Y-87346000D02*
X107188000Y-88046000D01*
X107188000Y-88046000D02*
X119380000Y-100238000D01*
X169398011Y-89661989D02*
X170561000Y-88499000D01*
X166308365Y-89661989D02*
X169398011Y-89661989D01*
X130556000Y-105156000D02*
X150814354Y-105156000D01*
X170561000Y-88499000D02*
X170561000Y-87216000D01*
X150814354Y-105156000D02*
X166308365Y-89661989D01*
X168890022Y-88899978D02*
X169291000Y-88499000D01*
X165608022Y-88899978D02*
X168890022Y-88899978D01*
X135636000Y-98552000D02*
X155956000Y-98552000D01*
X126492000Y-107696000D02*
X135636000Y-98552000D01*
X155956000Y-98552000D02*
X165608022Y-88899978D01*
X169291000Y-88499000D02*
X169291000Y-87216000D01*
X165100000Y-85852000D02*
X166116000Y-84836000D01*
X165100000Y-85852000D02*
X165100000Y-87376000D01*
X166924000Y-84836000D02*
X166116000Y-84836000D01*
X168021000Y-87216000D02*
X168021000Y-85933000D01*
X168021000Y-85933000D02*
X166924000Y-84836000D01*
X123952000Y-92456000D02*
X125984000Y-94488000D01*
X125984000Y-94488000D02*
X157988000Y-94488000D01*
X157988000Y-94488000D02*
X165100000Y-87376000D01*
D24*
G36*
X131084394Y-78180788D02*
X130710446Y-78651248D01*
X130545000Y-79229000D01*
X130545000Y-79629000D01*
X131953000Y-79629000D01*
X131953000Y-79609000D01*
X132207000Y-79609000D01*
X132207000Y-79629000D01*
X132227000Y-79629000D01*
X132227000Y-79883000D01*
X132207000Y-79883000D01*
X132207000Y-81526378D01*
X132444740Y-81647036D01*
X132550086Y-81622756D01*
X133075606Y-81331212D01*
X133343808Y-80993790D01*
X133534591Y-81279318D01*
X133602243Y-81324521D01*
X131025830Y-83900934D01*
X131026069Y-83626337D01*
X130877507Y-83266788D01*
X130602659Y-82991460D01*
X130243370Y-82842270D01*
X129854337Y-82841931D01*
X129638773Y-82931000D01*
X124294453Y-82931000D01*
X124180415Y-82760330D01*
X124158220Y-82745500D01*
X124311698Y-82681927D01*
X124490327Y-82503299D01*
X124587000Y-82269910D01*
X124587000Y-81565750D01*
X124428250Y-81407000D01*
X123063000Y-81407000D01*
X123063000Y-81427000D01*
X122809000Y-81427000D01*
X122809000Y-81407000D01*
X121443750Y-81407000D01*
X121285000Y-81565750D01*
X121285000Y-82269910D01*
X121381673Y-82503299D01*
X121560302Y-82681927D01*
X121713780Y-82745500D01*
X121691585Y-82760330D01*
X121366729Y-83246511D01*
X121252655Y-83820000D01*
X121366729Y-84393489D01*
X121691585Y-84879670D01*
X122006366Y-85090000D01*
X121691585Y-85300330D01*
X121366729Y-85786511D01*
X121252655Y-86360000D01*
X121366729Y-86933489D01*
X121691585Y-87419670D01*
X122177766Y-87744526D01*
X122751255Y-87858600D01*
X123120745Y-87858600D01*
X123694234Y-87744526D01*
X124180415Y-87419670D01*
X124294453Y-87249000D01*
X129824000Y-87249000D01*
X130164206Y-87181329D01*
X130452618Y-86988618D01*
X135248618Y-82192618D01*
X135441329Y-81904206D01*
X135509000Y-81564000D01*
X135509000Y-81410554D01*
X135705409Y-81279318D01*
X135890000Y-81003058D01*
X136074591Y-81279318D01*
X136271000Y-81410554D01*
X136271000Y-81419764D01*
X126733154Y-90957610D01*
X126195218Y-90957141D01*
X125644220Y-91184808D01*
X125222290Y-91606003D01*
X125221905Y-91606931D01*
X124801997Y-91186290D01*
X124251398Y-90957661D01*
X123655218Y-90957141D01*
X123104220Y-91184808D01*
X122682290Y-91606003D01*
X122453661Y-92156602D01*
X122453141Y-92752782D01*
X122680808Y-93303780D01*
X123102003Y-93725710D01*
X123102931Y-93726095D01*
X122682290Y-94146003D01*
X122453661Y-94696602D01*
X122453141Y-95292782D01*
X122680808Y-95843780D01*
X123102003Y-96265710D01*
X123102931Y-96266095D01*
X122682290Y-96686003D01*
X122453661Y-97236602D01*
X122453141Y-97832782D01*
X122680808Y-98383780D01*
X123102003Y-98805710D01*
X123142537Y-98822541D01*
X123077800Y-99022195D01*
X123952000Y-99896395D01*
X124826200Y-99022195D01*
X124761601Y-98822967D01*
X124799780Y-98807192D01*
X125221710Y-98385997D01*
X125450339Y-97835398D01*
X125450859Y-97239218D01*
X125223192Y-96688220D01*
X124801997Y-96266290D01*
X124801069Y-96265905D01*
X125221710Y-95845997D01*
X125450339Y-95295398D01*
X125450440Y-95180134D01*
X125643794Y-95309329D01*
X125984000Y-95377000D01*
X157873764Y-95377000D01*
X155587764Y-97663000D01*
X135636000Y-97663000D01*
X135295794Y-97730671D01*
X135007382Y-97923382D01*
X126733154Y-106197610D01*
X126195218Y-106197141D01*
X125644220Y-106424808D01*
X125222290Y-106846003D01*
X125221905Y-106846931D01*
X124801997Y-106426290D01*
X124801069Y-106425905D01*
X125221710Y-106005997D01*
X125450339Y-105455398D01*
X125450859Y-104859218D01*
X125223192Y-104308220D01*
X124801997Y-103886290D01*
X124801069Y-103885905D01*
X125221710Y-103465997D01*
X125450339Y-102915398D01*
X125450859Y-102319218D01*
X125223192Y-101768220D01*
X124801997Y-101346290D01*
X124761463Y-101329459D01*
X124826200Y-101129805D01*
X123952000Y-100255605D01*
X123077800Y-101129805D01*
X123142399Y-101329033D01*
X123104220Y-101344808D01*
X122682290Y-101766003D01*
X122453661Y-102316602D01*
X122453141Y-102912782D01*
X122680808Y-103463780D01*
X123102003Y-103885710D01*
X123102931Y-103886095D01*
X122682290Y-104306003D01*
X122453661Y-104856602D01*
X122453141Y-105452782D01*
X122680808Y-106003780D01*
X123102003Y-106425710D01*
X123102931Y-106426095D01*
X122682290Y-106846003D01*
X122453661Y-107396602D01*
X122453141Y-107992782D01*
X122680808Y-108543780D01*
X123102003Y-108965710D01*
X123652602Y-109194339D01*
X124248782Y-109194859D01*
X124799780Y-108967192D01*
X125221710Y-108545997D01*
X125222095Y-108545069D01*
X125642003Y-108965710D01*
X126192602Y-109194339D01*
X126788782Y-109194859D01*
X127339780Y-108967192D01*
X127761710Y-108545997D01*
X127762095Y-108545069D01*
X128182003Y-108965710D01*
X128732602Y-109194339D01*
X129328782Y-109194859D01*
X129879780Y-108967192D01*
X130301710Y-108545997D01*
X130302095Y-108545069D01*
X130722003Y-108965710D01*
X131272602Y-109194339D01*
X131868782Y-109194859D01*
X132419780Y-108967192D01*
X132841710Y-108545997D01*
X132842095Y-108545069D01*
X133262003Y-108965710D01*
X133812602Y-109194339D01*
X134408782Y-109194859D01*
X134959780Y-108967192D01*
X135381710Y-108545997D01*
X135382095Y-108545069D01*
X135802003Y-108965710D01*
X136352602Y-109194339D01*
X136948782Y-109194859D01*
X137499780Y-108967192D01*
X137921710Y-108545997D01*
X137922095Y-108545069D01*
X138342003Y-108965710D01*
X138892602Y-109194339D01*
X139488782Y-109194859D01*
X140039780Y-108967192D01*
X140461710Y-108545997D01*
X140462095Y-108545069D01*
X140843000Y-108926639D01*
X140843000Y-109359764D01*
X140347764Y-109855000D01*
X122288236Y-109855000D01*
X120269000Y-107835764D01*
X120269000Y-100238000D01*
X120201329Y-99897794D01*
X120165405Y-99844030D01*
X122441752Y-99844030D01*
X122467942Y-100439635D01*
X122645484Y-100868259D01*
X122898195Y-100950200D01*
X123772395Y-100076000D01*
X124131605Y-100076000D01*
X125005805Y-100950200D01*
X125258516Y-100868259D01*
X125462248Y-100307970D01*
X125436058Y-99712365D01*
X125258516Y-99283741D01*
X125005805Y-99201800D01*
X124131605Y-100076000D01*
X123772395Y-100076000D01*
X122898195Y-99201800D01*
X122645484Y-99283741D01*
X122441752Y-99844030D01*
X120165405Y-99844030D01*
X120008618Y-99609382D01*
X109985440Y-89586204D01*
X109985440Y-84496000D01*
X109941162Y-84260683D01*
X109802090Y-84044559D01*
X109589890Y-83899569D01*
X109338000Y-83848560D01*
X105038000Y-83848560D01*
X104802683Y-83892838D01*
X104586559Y-84031910D01*
X104441569Y-84244110D01*
X104390560Y-84496000D01*
X104390560Y-90196000D01*
X104434838Y-90431317D01*
X104573910Y-90647441D01*
X104786110Y-90792431D01*
X105038000Y-90843440D01*
X108728204Y-90843440D01*
X118491000Y-100606236D01*
X118491000Y-108204000D01*
X118558671Y-108544206D01*
X118751382Y-108832618D01*
X121291382Y-111372618D01*
X121579794Y-111565329D01*
X121920000Y-111633000D01*
X140716000Y-111633000D01*
X141056206Y-111565329D01*
X141344618Y-111372618D01*
X142360618Y-110356618D01*
X142441212Y-110236000D01*
X142553329Y-110068206D01*
X142621000Y-109728000D01*
X142621000Y-108926044D01*
X143001710Y-108545997D01*
X143002095Y-108545069D01*
X143422003Y-108965710D01*
X143972602Y-109194339D01*
X144568782Y-109194859D01*
X145119780Y-108967192D01*
X145541710Y-108545997D01*
X145542095Y-108545069D01*
X145962003Y-108965710D01*
X146512602Y-109194339D01*
X147108782Y-109194859D01*
X147659780Y-108967192D01*
X148081710Y-108545997D01*
X148082095Y-108545069D01*
X148502003Y-108965710D01*
X149052602Y-109194339D01*
X149648782Y-109194859D01*
X150199780Y-108967192D01*
X150621710Y-108545997D01*
X150622095Y-108545069D01*
X151042003Y-108965710D01*
X151592602Y-109194339D01*
X152188782Y-109194859D01*
X152739780Y-108967192D01*
X153161710Y-108545997D01*
X153162095Y-108545069D01*
X153582003Y-108965710D01*
X154132602Y-109194339D01*
X154728782Y-109194859D01*
X155279780Y-108967192D01*
X155701710Y-108545997D01*
X155702095Y-108545069D01*
X156122003Y-108965710D01*
X156672602Y-109194339D01*
X157213575Y-109194811D01*
X158883382Y-110864618D01*
X159171794Y-111057329D01*
X159512000Y-111125000D01*
X170688000Y-111125000D01*
X171028206Y-111057329D01*
X171316618Y-110864618D01*
X176396618Y-105784618D01*
X176461176Y-105688000D01*
X176589329Y-105496206D01*
X176657000Y-105156000D01*
X176657000Y-88900000D01*
X176589329Y-88559794D01*
X176396618Y-88271382D01*
X172840618Y-84715382D01*
X172729790Y-84641329D01*
X172552206Y-84522671D01*
X172212000Y-84455000D01*
X171788236Y-84455000D01*
X168657757Y-81324521D01*
X168725409Y-81279318D01*
X168916192Y-80993790D01*
X169184394Y-81331212D01*
X169709914Y-81622756D01*
X169815260Y-81647036D01*
X170053000Y-81526378D01*
X170053000Y-79883000D01*
X170307000Y-79883000D01*
X170307000Y-81526378D01*
X170544740Y-81647036D01*
X170650086Y-81622756D01*
X171175606Y-81331212D01*
X171549554Y-80860752D01*
X171715000Y-80283000D01*
X171715000Y-79883000D01*
X170307000Y-79883000D01*
X170053000Y-79883000D01*
X170033000Y-79883000D01*
X170033000Y-79629000D01*
X170053000Y-79629000D01*
X170053000Y-79609000D01*
X170307000Y-79609000D01*
X170307000Y-79629000D01*
X171715000Y-79629000D01*
X171715000Y-79229000D01*
X171549554Y-78651248D01*
X171175606Y-78180788D01*
X170716340Y-77926000D01*
X174517235Y-77926000D01*
X174471300Y-77944980D01*
X173870191Y-78545041D01*
X173544472Y-79329459D01*
X173543730Y-80178815D01*
X173868080Y-80963800D01*
X174468141Y-81564909D01*
X175252559Y-81890628D01*
X176101915Y-81891370D01*
X176886900Y-81567020D01*
X177488009Y-80966959D01*
X177598000Y-80702071D01*
X177598000Y-109809989D01*
X177490120Y-109548900D01*
X176890059Y-108947791D01*
X176105641Y-108622072D01*
X175256285Y-108621330D01*
X174471300Y-108945680D01*
X173870191Y-109545741D01*
X173544472Y-110330159D01*
X173543730Y-111179515D01*
X173868080Y-111964500D01*
X174468141Y-112565609D01*
X174488349Y-112574000D01*
X101873121Y-112574000D01*
X101888320Y-112567720D01*
X102489429Y-111967659D01*
X102815148Y-111183241D01*
X102815890Y-110333885D01*
X102491540Y-109548900D01*
X101891479Y-108947791D01*
X101107061Y-108622072D01*
X100257705Y-108621330D01*
X99472720Y-108945680D01*
X98871611Y-109545741D01*
X98754000Y-109828980D01*
X98754000Y-102781750D01*
X104403000Y-102781750D01*
X104403000Y-105472309D01*
X104499673Y-105705698D01*
X104678301Y-105884327D01*
X104911690Y-105981000D01*
X106902250Y-105981000D01*
X107061000Y-105822250D01*
X107061000Y-102623000D01*
X107315000Y-102623000D01*
X107315000Y-105822250D01*
X107473750Y-105981000D01*
X109464310Y-105981000D01*
X109697699Y-105884327D01*
X109876327Y-105705698D01*
X109973000Y-105472309D01*
X109973000Y-102781750D01*
X109814250Y-102623000D01*
X107315000Y-102623000D01*
X107061000Y-102623000D01*
X104561750Y-102623000D01*
X104403000Y-102781750D01*
X98754000Y-102781750D01*
X98754000Y-99519691D01*
X104403000Y-99519691D01*
X104403000Y-102210250D01*
X104561750Y-102369000D01*
X107061000Y-102369000D01*
X107061000Y-99169750D01*
X107315000Y-99169750D01*
X107315000Y-102369000D01*
X109814250Y-102369000D01*
X109973000Y-102210250D01*
X109973000Y-99519691D01*
X109876327Y-99286302D01*
X109697699Y-99107673D01*
X109464310Y-99011000D01*
X107473750Y-99011000D01*
X107315000Y-99169750D01*
X107061000Y-99169750D01*
X106902250Y-99011000D01*
X104911690Y-99011000D01*
X104678301Y-99107673D01*
X104499673Y-99286302D01*
X104403000Y-99519691D01*
X98754000Y-99519691D01*
X98754000Y-80684269D01*
X98869500Y-80963800D01*
X99469561Y-81564909D01*
X100253979Y-81890628D01*
X101103335Y-81891370D01*
X101888320Y-81567020D01*
X102489429Y-80966959D01*
X102770489Y-80290090D01*
X121285000Y-80290090D01*
X121285000Y-80994250D01*
X121443750Y-81153000D01*
X122809000Y-81153000D01*
X122809000Y-79940150D01*
X123063000Y-79940150D01*
X123063000Y-81153000D01*
X124428250Y-81153000D01*
X124587000Y-80994250D01*
X124587000Y-80290090D01*
X124490327Y-80056701D01*
X124316626Y-79883000D01*
X130545000Y-79883000D01*
X130545000Y-80283000D01*
X130710446Y-80860752D01*
X131084394Y-81331212D01*
X131609914Y-81622756D01*
X131715260Y-81647036D01*
X131953000Y-81526378D01*
X131953000Y-79883000D01*
X130545000Y-79883000D01*
X124316626Y-79883000D01*
X124311698Y-79878073D01*
X124078309Y-79781400D01*
X123221750Y-79781400D01*
X123063000Y-79940150D01*
X122809000Y-79940150D01*
X122650250Y-79781400D01*
X121793691Y-79781400D01*
X121560302Y-79878073D01*
X121381673Y-80056701D01*
X121285000Y-80290090D01*
X102770489Y-80290090D01*
X102815148Y-80182541D01*
X102815890Y-79333185D01*
X102491540Y-78548200D01*
X101891479Y-77947091D01*
X101840686Y-77926000D01*
X131543660Y-77926000D01*
X131084394Y-78180788D01*
X131084394Y-78180788D01*
G37*
X131084394Y-78180788D02*
X130710446Y-78651248D01*
X130545000Y-79229000D01*
X130545000Y-79629000D01*
X131953000Y-79629000D01*
X131953000Y-79609000D01*
X132207000Y-79609000D01*
X132207000Y-79629000D01*
X132227000Y-79629000D01*
X132227000Y-79883000D01*
X132207000Y-79883000D01*
X132207000Y-81526378D01*
X132444740Y-81647036D01*
X132550086Y-81622756D01*
X133075606Y-81331212D01*
X133343808Y-80993790D01*
X133534591Y-81279318D01*
X133602243Y-81324521D01*
X131025830Y-83900934D01*
X131026069Y-83626337D01*
X130877507Y-83266788D01*
X130602659Y-82991460D01*
X130243370Y-82842270D01*
X129854337Y-82841931D01*
X129638773Y-82931000D01*
X124294453Y-82931000D01*
X124180415Y-82760330D01*
X124158220Y-82745500D01*
X124311698Y-82681927D01*
X124490327Y-82503299D01*
X124587000Y-82269910D01*
X124587000Y-81565750D01*
X124428250Y-81407000D01*
X123063000Y-81407000D01*
X123063000Y-81427000D01*
X122809000Y-81427000D01*
X122809000Y-81407000D01*
X121443750Y-81407000D01*
X121285000Y-81565750D01*
X121285000Y-82269910D01*
X121381673Y-82503299D01*
X121560302Y-82681927D01*
X121713780Y-82745500D01*
X121691585Y-82760330D01*
X121366729Y-83246511D01*
X121252655Y-83820000D01*
X121366729Y-84393489D01*
X121691585Y-84879670D01*
X122006366Y-85090000D01*
X121691585Y-85300330D01*
X121366729Y-85786511D01*
X121252655Y-86360000D01*
X121366729Y-86933489D01*
X121691585Y-87419670D01*
X122177766Y-87744526D01*
X122751255Y-87858600D01*
X123120745Y-87858600D01*
X123694234Y-87744526D01*
X124180415Y-87419670D01*
X124294453Y-87249000D01*
X129824000Y-87249000D01*
X130164206Y-87181329D01*
X130452618Y-86988618D01*
X135248618Y-82192618D01*
X135441329Y-81904206D01*
X135509000Y-81564000D01*
X135509000Y-81410554D01*
X135705409Y-81279318D01*
X135890000Y-81003058D01*
X136074591Y-81279318D01*
X136271000Y-81410554D01*
X136271000Y-81419764D01*
X126733154Y-90957610D01*
X126195218Y-90957141D01*
X125644220Y-91184808D01*
X125222290Y-91606003D01*
X125221905Y-91606931D01*
X124801997Y-91186290D01*
X124251398Y-90957661D01*
X123655218Y-90957141D01*
X123104220Y-91184808D01*
X122682290Y-91606003D01*
X122453661Y-92156602D01*
X122453141Y-92752782D01*
X122680808Y-93303780D01*
X123102003Y-93725710D01*
X123102931Y-93726095D01*
X122682290Y-94146003D01*
X122453661Y-94696602D01*
X122453141Y-95292782D01*
X122680808Y-95843780D01*
X123102003Y-96265710D01*
X123102931Y-96266095D01*
X122682290Y-96686003D01*
X122453661Y-97236602D01*
X122453141Y-97832782D01*
X122680808Y-98383780D01*
X123102003Y-98805710D01*
X123142537Y-98822541D01*
X123077800Y-99022195D01*
X123952000Y-99896395D01*
X124826200Y-99022195D01*
X124761601Y-98822967D01*
X124799780Y-98807192D01*
X125221710Y-98385997D01*
X125450339Y-97835398D01*
X125450859Y-97239218D01*
X125223192Y-96688220D01*
X124801997Y-96266290D01*
X124801069Y-96265905D01*
X125221710Y-95845997D01*
X125450339Y-95295398D01*
X125450440Y-95180134D01*
X125643794Y-95309329D01*
X125984000Y-95377000D01*
X157873764Y-95377000D01*
X155587764Y-97663000D01*
X135636000Y-97663000D01*
X135295794Y-97730671D01*
X135007382Y-97923382D01*
X126733154Y-106197610D01*
X126195218Y-106197141D01*
X125644220Y-106424808D01*
X125222290Y-106846003D01*
X125221905Y-106846931D01*
X124801997Y-106426290D01*
X124801069Y-106425905D01*
X125221710Y-106005997D01*
X125450339Y-105455398D01*
X125450859Y-104859218D01*
X125223192Y-104308220D01*
X124801997Y-103886290D01*
X124801069Y-103885905D01*
X125221710Y-103465997D01*
X125450339Y-102915398D01*
X125450859Y-102319218D01*
X125223192Y-101768220D01*
X124801997Y-101346290D01*
X124761463Y-101329459D01*
X124826200Y-101129805D01*
X123952000Y-100255605D01*
X123077800Y-101129805D01*
X123142399Y-101329033D01*
X123104220Y-101344808D01*
X122682290Y-101766003D01*
X122453661Y-102316602D01*
X122453141Y-102912782D01*
X122680808Y-103463780D01*
X123102003Y-103885710D01*
X123102931Y-103886095D01*
X122682290Y-104306003D01*
X122453661Y-104856602D01*
X122453141Y-105452782D01*
X122680808Y-106003780D01*
X123102003Y-106425710D01*
X123102931Y-106426095D01*
X122682290Y-106846003D01*
X122453661Y-107396602D01*
X122453141Y-107992782D01*
X122680808Y-108543780D01*
X123102003Y-108965710D01*
X123652602Y-109194339D01*
X124248782Y-109194859D01*
X124799780Y-108967192D01*
X125221710Y-108545997D01*
X125222095Y-108545069D01*
X125642003Y-108965710D01*
X126192602Y-109194339D01*
X126788782Y-109194859D01*
X127339780Y-108967192D01*
X127761710Y-108545997D01*
X127762095Y-108545069D01*
X128182003Y-108965710D01*
X128732602Y-109194339D01*
X129328782Y-109194859D01*
X129879780Y-108967192D01*
X130301710Y-108545997D01*
X130302095Y-108545069D01*
X130722003Y-108965710D01*
X131272602Y-109194339D01*
X131868782Y-109194859D01*
X132419780Y-108967192D01*
X132841710Y-108545997D01*
X132842095Y-108545069D01*
X133262003Y-108965710D01*
X133812602Y-109194339D01*
X134408782Y-109194859D01*
X134959780Y-108967192D01*
X135381710Y-108545997D01*
X135382095Y-108545069D01*
X135802003Y-108965710D01*
X136352602Y-109194339D01*
X136948782Y-109194859D01*
X137499780Y-108967192D01*
X137921710Y-108545997D01*
X137922095Y-108545069D01*
X138342003Y-108965710D01*
X138892602Y-109194339D01*
X139488782Y-109194859D01*
X140039780Y-108967192D01*
X140461710Y-108545997D01*
X140462095Y-108545069D01*
X140843000Y-108926639D01*
X140843000Y-109359764D01*
X140347764Y-109855000D01*
X122288236Y-109855000D01*
X120269000Y-107835764D01*
X120269000Y-100238000D01*
X120201329Y-99897794D01*
X120165405Y-99844030D01*
X122441752Y-99844030D01*
X122467942Y-100439635D01*
X122645484Y-100868259D01*
X122898195Y-100950200D01*
X123772395Y-100076000D01*
X124131605Y-100076000D01*
X125005805Y-100950200D01*
X125258516Y-100868259D01*
X125462248Y-100307970D01*
X125436058Y-99712365D01*
X125258516Y-99283741D01*
X125005805Y-99201800D01*
X124131605Y-100076000D01*
X123772395Y-100076000D01*
X122898195Y-99201800D01*
X122645484Y-99283741D01*
X122441752Y-99844030D01*
X120165405Y-99844030D01*
X120008618Y-99609382D01*
X109985440Y-89586204D01*
X109985440Y-84496000D01*
X109941162Y-84260683D01*
X109802090Y-84044559D01*
X109589890Y-83899569D01*
X109338000Y-83848560D01*
X105038000Y-83848560D01*
X104802683Y-83892838D01*
X104586559Y-84031910D01*
X104441569Y-84244110D01*
X104390560Y-84496000D01*
X104390560Y-90196000D01*
X104434838Y-90431317D01*
X104573910Y-90647441D01*
X104786110Y-90792431D01*
X105038000Y-90843440D01*
X108728204Y-90843440D01*
X118491000Y-100606236D01*
X118491000Y-108204000D01*
X118558671Y-108544206D01*
X118751382Y-108832618D01*
X121291382Y-111372618D01*
X121579794Y-111565329D01*
X121920000Y-111633000D01*
X140716000Y-111633000D01*
X141056206Y-111565329D01*
X141344618Y-111372618D01*
X142360618Y-110356618D01*
X142441212Y-110236000D01*
X142553329Y-110068206D01*
X142621000Y-109728000D01*
X142621000Y-108926044D01*
X143001710Y-108545997D01*
X143002095Y-108545069D01*
X143422003Y-108965710D01*
X143972602Y-109194339D01*
X144568782Y-109194859D01*
X145119780Y-108967192D01*
X145541710Y-108545997D01*
X145542095Y-108545069D01*
X145962003Y-108965710D01*
X146512602Y-109194339D01*
X147108782Y-109194859D01*
X147659780Y-108967192D01*
X148081710Y-108545997D01*
X148082095Y-108545069D01*
X148502003Y-108965710D01*
X149052602Y-109194339D01*
X149648782Y-109194859D01*
X150199780Y-108967192D01*
X150621710Y-108545997D01*
X150622095Y-108545069D01*
X151042003Y-108965710D01*
X151592602Y-109194339D01*
X152188782Y-109194859D01*
X152739780Y-108967192D01*
X153161710Y-108545997D01*
X153162095Y-108545069D01*
X153582003Y-108965710D01*
X154132602Y-109194339D01*
X154728782Y-109194859D01*
X155279780Y-108967192D01*
X155701710Y-108545997D01*
X155702095Y-108545069D01*
X156122003Y-108965710D01*
X156672602Y-109194339D01*
X157213575Y-109194811D01*
X158883382Y-110864618D01*
X159171794Y-111057329D01*
X159512000Y-111125000D01*
X170688000Y-111125000D01*
X171028206Y-111057329D01*
X171316618Y-110864618D01*
X176396618Y-105784618D01*
X176461176Y-105688000D01*
X176589329Y-105496206D01*
X176657000Y-105156000D01*
X176657000Y-88900000D01*
X176589329Y-88559794D01*
X176396618Y-88271382D01*
X172840618Y-84715382D01*
X172729790Y-84641329D01*
X172552206Y-84522671D01*
X172212000Y-84455000D01*
X171788236Y-84455000D01*
X168657757Y-81324521D01*
X168725409Y-81279318D01*
X168916192Y-80993790D01*
X169184394Y-81331212D01*
X169709914Y-81622756D01*
X169815260Y-81647036D01*
X170053000Y-81526378D01*
X170053000Y-79883000D01*
X170307000Y-79883000D01*
X170307000Y-81526378D01*
X170544740Y-81647036D01*
X170650086Y-81622756D01*
X171175606Y-81331212D01*
X171549554Y-80860752D01*
X171715000Y-80283000D01*
X171715000Y-79883000D01*
X170307000Y-79883000D01*
X170053000Y-79883000D01*
X170033000Y-79883000D01*
X170033000Y-79629000D01*
X170053000Y-79629000D01*
X170053000Y-79609000D01*
X170307000Y-79609000D01*
X170307000Y-79629000D01*
X171715000Y-79629000D01*
X171715000Y-79229000D01*
X171549554Y-78651248D01*
X171175606Y-78180788D01*
X170716340Y-77926000D01*
X174517235Y-77926000D01*
X174471300Y-77944980D01*
X173870191Y-78545041D01*
X173544472Y-79329459D01*
X173543730Y-80178815D01*
X173868080Y-80963800D01*
X174468141Y-81564909D01*
X175252559Y-81890628D01*
X176101915Y-81891370D01*
X176886900Y-81567020D01*
X177488009Y-80966959D01*
X177598000Y-80702071D01*
X177598000Y-109809989D01*
X177490120Y-109548900D01*
X176890059Y-108947791D01*
X176105641Y-108622072D01*
X175256285Y-108621330D01*
X174471300Y-108945680D01*
X173870191Y-109545741D01*
X173544472Y-110330159D01*
X173543730Y-111179515D01*
X173868080Y-111964500D01*
X174468141Y-112565609D01*
X174488349Y-112574000D01*
X101873121Y-112574000D01*
X101888320Y-112567720D01*
X102489429Y-111967659D01*
X102815148Y-111183241D01*
X102815890Y-110333885D01*
X102491540Y-109548900D01*
X101891479Y-108947791D01*
X101107061Y-108622072D01*
X100257705Y-108621330D01*
X99472720Y-108945680D01*
X98871611Y-109545741D01*
X98754000Y-109828980D01*
X98754000Y-102781750D01*
X104403000Y-102781750D01*
X104403000Y-105472309D01*
X104499673Y-105705698D01*
X104678301Y-105884327D01*
X104911690Y-105981000D01*
X106902250Y-105981000D01*
X107061000Y-105822250D01*
X107061000Y-102623000D01*
X107315000Y-102623000D01*
X107315000Y-105822250D01*
X107473750Y-105981000D01*
X109464310Y-105981000D01*
X109697699Y-105884327D01*
X109876327Y-105705698D01*
X109973000Y-105472309D01*
X109973000Y-102781750D01*
X109814250Y-102623000D01*
X107315000Y-102623000D01*
X107061000Y-102623000D01*
X104561750Y-102623000D01*
X104403000Y-102781750D01*
X98754000Y-102781750D01*
X98754000Y-99519691D01*
X104403000Y-99519691D01*
X104403000Y-102210250D01*
X104561750Y-102369000D01*
X107061000Y-102369000D01*
X107061000Y-99169750D01*
X107315000Y-99169750D01*
X107315000Y-102369000D01*
X109814250Y-102369000D01*
X109973000Y-102210250D01*
X109973000Y-99519691D01*
X109876327Y-99286302D01*
X109697699Y-99107673D01*
X109464310Y-99011000D01*
X107473750Y-99011000D01*
X107315000Y-99169750D01*
X107061000Y-99169750D01*
X106902250Y-99011000D01*
X104911690Y-99011000D01*
X104678301Y-99107673D01*
X104499673Y-99286302D01*
X104403000Y-99519691D01*
X98754000Y-99519691D01*
X98754000Y-80684269D01*
X98869500Y-80963800D01*
X99469561Y-81564909D01*
X100253979Y-81890628D01*
X101103335Y-81891370D01*
X101888320Y-81567020D01*
X102489429Y-80966959D01*
X102770489Y-80290090D01*
X121285000Y-80290090D01*
X121285000Y-80994250D01*
X121443750Y-81153000D01*
X122809000Y-81153000D01*
X122809000Y-79940150D01*
X123063000Y-79940150D01*
X123063000Y-81153000D01*
X124428250Y-81153000D01*
X124587000Y-80994250D01*
X124587000Y-80290090D01*
X124490327Y-80056701D01*
X124316626Y-79883000D01*
X130545000Y-79883000D01*
X130545000Y-80283000D01*
X130710446Y-80860752D01*
X131084394Y-81331212D01*
X131609914Y-81622756D01*
X131715260Y-81647036D01*
X131953000Y-81526378D01*
X131953000Y-79883000D01*
X130545000Y-79883000D01*
X124316626Y-79883000D01*
X124311698Y-79878073D01*
X124078309Y-79781400D01*
X123221750Y-79781400D01*
X123063000Y-79940150D01*
X122809000Y-79940150D01*
X122650250Y-79781400D01*
X121793691Y-79781400D01*
X121560302Y-79878073D01*
X121381673Y-80056701D01*
X121285000Y-80290090D01*
X102770489Y-80290090D01*
X102815148Y-80182541D01*
X102815890Y-79333185D01*
X102491540Y-78548200D01*
X101891479Y-77947091D01*
X101840686Y-77926000D01*
X131543660Y-77926000D01*
X131084394Y-78180788D01*
G36*
X174879000Y-89268236D02*
X174879000Y-104787764D01*
X170319764Y-109347000D01*
X159880236Y-109347000D01*
X158470390Y-107937154D01*
X158470859Y-107399218D01*
X158243192Y-106848220D01*
X157821997Y-106426290D01*
X157271398Y-106197661D01*
X156675218Y-106197141D01*
X156124220Y-106424808D01*
X155702290Y-106846003D01*
X155701905Y-106846931D01*
X155281997Y-106426290D01*
X154731398Y-106197661D01*
X154135218Y-106197141D01*
X153644599Y-106399860D01*
X153644599Y-104660637D01*
X165403486Y-92901750D01*
X165816000Y-92901750D01*
X165816000Y-93517309D01*
X165912673Y-93750698D01*
X166091301Y-93929327D01*
X166324690Y-94026000D01*
X166465250Y-94026000D01*
X166624000Y-93867250D01*
X166624000Y-92743000D01*
X165974750Y-92743000D01*
X165816000Y-92901750D01*
X165403486Y-92901750D01*
X165895493Y-92409743D01*
X165974750Y-92489000D01*
X166624000Y-92489000D01*
X166624000Y-92469000D01*
X166878000Y-92469000D01*
X166878000Y-92489000D01*
X166898000Y-92489000D01*
X166898000Y-92743000D01*
X166878000Y-92743000D01*
X166878000Y-93867250D01*
X167036750Y-94026000D01*
X167177310Y-94026000D01*
X167259000Y-93992163D01*
X167259000Y-99291879D01*
X167151569Y-99449110D01*
X167100560Y-99701000D01*
X167100560Y-100451000D01*
X167144838Y-100686317D01*
X167152124Y-100697640D01*
X165995382Y-101854382D01*
X165802671Y-102142794D01*
X165735000Y-102483000D01*
X165735000Y-104786179D01*
X165456567Y-104972222D01*
X165098675Y-105507845D01*
X164973000Y-106139655D01*
X164973000Y-106204345D01*
X165098675Y-106836155D01*
X165456567Y-107371778D01*
X165992190Y-107729670D01*
X166624000Y-107855345D01*
X167255810Y-107729670D01*
X167595792Y-107502501D01*
X167683910Y-107639441D01*
X167896110Y-107784431D01*
X168148000Y-107835440D01*
X170180000Y-107835440D01*
X170415317Y-107791162D01*
X170631441Y-107652090D01*
X170776431Y-107439890D01*
X170827440Y-107188000D01*
X170827440Y-105156000D01*
X170783162Y-104920683D01*
X170644090Y-104704559D01*
X170537000Y-104631388D01*
X170537000Y-100860121D01*
X170644431Y-100702890D01*
X170695440Y-100451000D01*
X170695440Y-99701000D01*
X170651162Y-99465683D01*
X170512090Y-99249559D01*
X170299890Y-99104569D01*
X170180000Y-99080291D01*
X170180000Y-94022037D01*
X170261000Y-94038440D01*
X170861000Y-94038440D01*
X171066619Y-93999750D01*
X171710000Y-93999750D01*
X171710000Y-94240309D01*
X171806673Y-94473698D01*
X171985301Y-94652327D01*
X172218690Y-94749000D01*
X172434250Y-94749000D01*
X172593000Y-94590250D01*
X172593000Y-93841000D01*
X172847000Y-93841000D01*
X172847000Y-94590250D01*
X173005750Y-94749000D01*
X173221310Y-94749000D01*
X173454699Y-94652327D01*
X173633327Y-94473698D01*
X173730000Y-94240309D01*
X173730000Y-93999750D01*
X173571250Y-93841000D01*
X172847000Y-93841000D01*
X172593000Y-93841000D01*
X171868750Y-93841000D01*
X171710000Y-93999750D01*
X171066619Y-93999750D01*
X171096317Y-93994162D01*
X171312441Y-93855090D01*
X171457431Y-93642890D01*
X171508440Y-93391000D01*
X171508440Y-93103000D01*
X171745080Y-93103000D01*
X171710000Y-93187691D01*
X171710000Y-93428250D01*
X171868750Y-93587000D01*
X172593000Y-93587000D01*
X172593000Y-93567000D01*
X172847000Y-93567000D01*
X172847000Y-93587000D01*
X173571250Y-93587000D01*
X173730000Y-93428250D01*
X173730000Y-93187691D01*
X173633327Y-92954302D01*
X173631957Y-92952932D01*
X173691431Y-92865890D01*
X173742440Y-92614000D01*
X173742440Y-91814000D01*
X173698162Y-91578683D01*
X173559090Y-91362559D01*
X173346890Y-91217569D01*
X173095000Y-91166560D01*
X172345000Y-91166560D01*
X172109683Y-91210838D01*
X171932270Y-91325000D01*
X171450000Y-91325000D01*
X171450000Y-91313000D01*
X171382329Y-90972794D01*
X171189618Y-90684382D01*
X170411236Y-89906000D01*
X171189618Y-89127618D01*
X171318321Y-88935000D01*
X171382329Y-88839206D01*
X171450000Y-88499000D01*
X171450000Y-88253766D01*
X171457431Y-88242890D01*
X171508440Y-87991000D01*
X171508440Y-86441000D01*
X171469302Y-86233000D01*
X171843764Y-86233000D01*
X174879000Y-89268236D01*
X174879000Y-89268236D01*
G37*
X174879000Y-89268236D02*
X174879000Y-104787764D01*
X170319764Y-109347000D01*
X159880236Y-109347000D01*
X158470390Y-107937154D01*
X158470859Y-107399218D01*
X158243192Y-106848220D01*
X157821997Y-106426290D01*
X157271398Y-106197661D01*
X156675218Y-106197141D01*
X156124220Y-106424808D01*
X155702290Y-106846003D01*
X155701905Y-106846931D01*
X155281997Y-106426290D01*
X154731398Y-106197661D01*
X154135218Y-106197141D01*
X153644599Y-106399860D01*
X153644599Y-104660637D01*
X165403486Y-92901750D01*
X165816000Y-92901750D01*
X165816000Y-93517309D01*
X165912673Y-93750698D01*
X166091301Y-93929327D01*
X166324690Y-94026000D01*
X166465250Y-94026000D01*
X166624000Y-93867250D01*
X166624000Y-92743000D01*
X165974750Y-92743000D01*
X165816000Y-92901750D01*
X165403486Y-92901750D01*
X165895493Y-92409743D01*
X165974750Y-92489000D01*
X166624000Y-92489000D01*
X166624000Y-92469000D01*
X166878000Y-92469000D01*
X166878000Y-92489000D01*
X166898000Y-92489000D01*
X166898000Y-92743000D01*
X166878000Y-92743000D01*
X166878000Y-93867250D01*
X167036750Y-94026000D01*
X167177310Y-94026000D01*
X167259000Y-93992163D01*
X167259000Y-99291879D01*
X167151569Y-99449110D01*
X167100560Y-99701000D01*
X167100560Y-100451000D01*
X167144838Y-100686317D01*
X167152124Y-100697640D01*
X165995382Y-101854382D01*
X165802671Y-102142794D01*
X165735000Y-102483000D01*
X165735000Y-104786179D01*
X165456567Y-104972222D01*
X165098675Y-105507845D01*
X164973000Y-106139655D01*
X164973000Y-106204345D01*
X165098675Y-106836155D01*
X165456567Y-107371778D01*
X165992190Y-107729670D01*
X166624000Y-107855345D01*
X167255810Y-107729670D01*
X167595792Y-107502501D01*
X167683910Y-107639441D01*
X167896110Y-107784431D01*
X168148000Y-107835440D01*
X170180000Y-107835440D01*
X170415317Y-107791162D01*
X170631441Y-107652090D01*
X170776431Y-107439890D01*
X170827440Y-107188000D01*
X170827440Y-105156000D01*
X170783162Y-104920683D01*
X170644090Y-104704559D01*
X170537000Y-104631388D01*
X170537000Y-100860121D01*
X170644431Y-100702890D01*
X170695440Y-100451000D01*
X170695440Y-99701000D01*
X170651162Y-99465683D01*
X170512090Y-99249559D01*
X170299890Y-99104569D01*
X170180000Y-99080291D01*
X170180000Y-94022037D01*
X170261000Y-94038440D01*
X170861000Y-94038440D01*
X171066619Y-93999750D01*
X171710000Y-93999750D01*
X171710000Y-94240309D01*
X171806673Y-94473698D01*
X171985301Y-94652327D01*
X172218690Y-94749000D01*
X172434250Y-94749000D01*
X172593000Y-94590250D01*
X172593000Y-93841000D01*
X172847000Y-93841000D01*
X172847000Y-94590250D01*
X173005750Y-94749000D01*
X173221310Y-94749000D01*
X173454699Y-94652327D01*
X173633327Y-94473698D01*
X173730000Y-94240309D01*
X173730000Y-93999750D01*
X173571250Y-93841000D01*
X172847000Y-93841000D01*
X172593000Y-93841000D01*
X171868750Y-93841000D01*
X171710000Y-93999750D01*
X171066619Y-93999750D01*
X171096317Y-93994162D01*
X171312441Y-93855090D01*
X171457431Y-93642890D01*
X171508440Y-93391000D01*
X171508440Y-93103000D01*
X171745080Y-93103000D01*
X171710000Y-93187691D01*
X171710000Y-93428250D01*
X171868750Y-93587000D01*
X172593000Y-93587000D01*
X172593000Y-93567000D01*
X172847000Y-93567000D01*
X172847000Y-93587000D01*
X173571250Y-93587000D01*
X173730000Y-93428250D01*
X173730000Y-93187691D01*
X173633327Y-92954302D01*
X173631957Y-92952932D01*
X173691431Y-92865890D01*
X173742440Y-92614000D01*
X173742440Y-91814000D01*
X173698162Y-91578683D01*
X173559090Y-91362559D01*
X173346890Y-91217569D01*
X173095000Y-91166560D01*
X172345000Y-91166560D01*
X172109683Y-91210838D01*
X171932270Y-91325000D01*
X171450000Y-91325000D01*
X171450000Y-91313000D01*
X171382329Y-90972794D01*
X171189618Y-90684382D01*
X170411236Y-89906000D01*
X171189618Y-89127618D01*
X171318321Y-88935000D01*
X171382329Y-88839206D01*
X171450000Y-88499000D01*
X171450000Y-88253766D01*
X171457431Y-88242890D01*
X171508440Y-87991000D01*
X171508440Y-86441000D01*
X171469302Y-86233000D01*
X171843764Y-86233000D01*
X174879000Y-89268236D01*
G36*
X170612324Y-85793560D02*
X170261000Y-85793560D01*
X170025683Y-85837838D01*
X169926472Y-85901678D01*
X169842890Y-85844569D01*
X169591000Y-85793560D01*
X168991000Y-85793560D01*
X168886187Y-85813282D01*
X168842329Y-85592794D01*
X168649618Y-85304382D01*
X167552618Y-84207382D01*
X167482014Y-84160206D01*
X167264206Y-84014671D01*
X166924000Y-83947000D01*
X166116000Y-83947000D01*
X165775794Y-84014671D01*
X165557986Y-84160206D01*
X165487382Y-84207382D01*
X164471382Y-85223382D01*
X164278671Y-85511794D01*
X164211000Y-85852000D01*
X164211000Y-87007764D01*
X158454509Y-92764255D01*
X158482248Y-92687970D01*
X158456058Y-92092365D01*
X158278516Y-91663741D01*
X158025805Y-91581800D01*
X157151605Y-92456000D01*
X157165748Y-92470143D01*
X156986143Y-92649748D01*
X156972000Y-92635605D01*
X156097800Y-93509805D01*
X156126721Y-93599000D01*
X155408196Y-93599000D01*
X155701710Y-93305997D01*
X155718541Y-93265463D01*
X155918195Y-93330200D01*
X156792395Y-92456000D01*
X155918195Y-91581800D01*
X155718967Y-91646399D01*
X155703192Y-91608220D01*
X155497526Y-91402195D01*
X156097800Y-91402195D01*
X156972000Y-92276395D01*
X157846200Y-91402195D01*
X157764259Y-91149484D01*
X157203970Y-90945752D01*
X156608365Y-90971942D01*
X156179741Y-91149484D01*
X156097800Y-91402195D01*
X155497526Y-91402195D01*
X155281997Y-91186290D01*
X154731398Y-90957661D01*
X154135218Y-90957141D01*
X153584220Y-91184808D01*
X153162290Y-91606003D01*
X153161905Y-91606931D01*
X152741997Y-91186290D01*
X152191398Y-90957661D01*
X151595218Y-90957141D01*
X151044220Y-91184808D01*
X150622290Y-91606003D01*
X150621905Y-91606931D01*
X150201997Y-91186290D01*
X149651398Y-90957661D01*
X149055218Y-90957141D01*
X148504220Y-91184808D01*
X148082290Y-91606003D01*
X148081905Y-91606931D01*
X147661997Y-91186290D01*
X147111398Y-90957661D01*
X147027648Y-90957588D01*
X150736236Y-87249000D01*
X159512000Y-87249000D01*
X159852206Y-87181329D01*
X160140618Y-86988618D01*
X163188618Y-83940618D01*
X163354071Y-83693000D01*
X163381329Y-83652206D01*
X163449000Y-83312000D01*
X163449000Y-83273790D01*
X163769663Y-83274069D01*
X163985227Y-83185000D01*
X166908000Y-83185000D01*
X167248206Y-83117329D01*
X167536618Y-82924618D01*
X167640000Y-82821236D01*
X170612324Y-85793560D01*
X170612324Y-85793560D01*
G37*
X170612324Y-85793560D02*
X170261000Y-85793560D01*
X170025683Y-85837838D01*
X169926472Y-85901678D01*
X169842890Y-85844569D01*
X169591000Y-85793560D01*
X168991000Y-85793560D01*
X168886187Y-85813282D01*
X168842329Y-85592794D01*
X168649618Y-85304382D01*
X167552618Y-84207382D01*
X167482014Y-84160206D01*
X167264206Y-84014671D01*
X166924000Y-83947000D01*
X166116000Y-83947000D01*
X165775794Y-84014671D01*
X165557986Y-84160206D01*
X165487382Y-84207382D01*
X164471382Y-85223382D01*
X164278671Y-85511794D01*
X164211000Y-85852000D01*
X164211000Y-87007764D01*
X158454509Y-92764255D01*
X158482248Y-92687970D01*
X158456058Y-92092365D01*
X158278516Y-91663741D01*
X158025805Y-91581800D01*
X157151605Y-92456000D01*
X157165748Y-92470143D01*
X156986143Y-92649748D01*
X156972000Y-92635605D01*
X156097800Y-93509805D01*
X156126721Y-93599000D01*
X155408196Y-93599000D01*
X155701710Y-93305997D01*
X155718541Y-93265463D01*
X155918195Y-93330200D01*
X156792395Y-92456000D01*
X155918195Y-91581800D01*
X155718967Y-91646399D01*
X155703192Y-91608220D01*
X155497526Y-91402195D01*
X156097800Y-91402195D01*
X156972000Y-92276395D01*
X157846200Y-91402195D01*
X157764259Y-91149484D01*
X157203970Y-90945752D01*
X156608365Y-90971942D01*
X156179741Y-91149484D01*
X156097800Y-91402195D01*
X155497526Y-91402195D01*
X155281997Y-91186290D01*
X154731398Y-90957661D01*
X154135218Y-90957141D01*
X153584220Y-91184808D01*
X153162290Y-91606003D01*
X153161905Y-91606931D01*
X152741997Y-91186290D01*
X152191398Y-90957661D01*
X151595218Y-90957141D01*
X151044220Y-91184808D01*
X150622290Y-91606003D01*
X150621905Y-91606931D01*
X150201997Y-91186290D01*
X149651398Y-90957661D01*
X149055218Y-90957141D01*
X148504220Y-91184808D01*
X148082290Y-91606003D01*
X148081905Y-91606931D01*
X147661997Y-91186290D01*
X147111398Y-90957661D01*
X147027648Y-90957588D01*
X150736236Y-87249000D01*
X159512000Y-87249000D01*
X159852206Y-87181329D01*
X160140618Y-86988618D01*
X163188618Y-83940618D01*
X163354071Y-83693000D01*
X163381329Y-83652206D01*
X163449000Y-83312000D01*
X163449000Y-83273790D01*
X163769663Y-83274069D01*
X163985227Y-83185000D01*
X166908000Y-83185000D01*
X167248206Y-83117329D01*
X167536618Y-82924618D01*
X167640000Y-82821236D01*
X170612324Y-85793560D01*
M02*
