G04 #@! TF.FileFunction,Other,Fab,Top*
%FSLAX46Y46*%
G04 Gerber Fmt 4.6, Leading zero omitted, Abs format (unit mm)*
G04 Created by KiCad (PCBNEW 4.0.1-3.201512221402+6198~38~ubuntu14.04.1-stable) date Tue 23 Aug 2016 07:54:07 PM PDT*
%MOMM*%
G01*
G04 APERTURE LIST*
%ADD10C,0.100000*%
%ADD11C,0.300000*%
%ADD12C,0.050000*%
%ADD13C,0.150000*%
G04 APERTURE END LIST*
D10*
D11*
X118460002Y-94055429D02*
X118317144Y-93984000D01*
X118245716Y-93912571D01*
X118174287Y-93769714D01*
X118174287Y-93698286D01*
X118245716Y-93555429D01*
X118317144Y-93484000D01*
X118460002Y-93412571D01*
X118745716Y-93412571D01*
X118888573Y-93484000D01*
X118960002Y-93555429D01*
X119031430Y-93698286D01*
X119031430Y-93769714D01*
X118960002Y-93912571D01*
X118888573Y-93984000D01*
X118745716Y-94055429D01*
X118460002Y-94055429D01*
X118317144Y-94126857D01*
X118245716Y-94198286D01*
X118174287Y-94341143D01*
X118174287Y-94626857D01*
X118245716Y-94769714D01*
X118317144Y-94841143D01*
X118460002Y-94912571D01*
X118745716Y-94912571D01*
X118888573Y-94841143D01*
X118960002Y-94769714D01*
X119031430Y-94626857D01*
X119031430Y-94341143D01*
X118960002Y-94198286D01*
X118888573Y-94126857D01*
X118745716Y-94055429D01*
X120745715Y-93341143D02*
X119460001Y-95269714D01*
X121174287Y-93555429D02*
X121245716Y-93484000D01*
X121388573Y-93412571D01*
X121745716Y-93412571D01*
X121888573Y-93484000D01*
X121960002Y-93555429D01*
X122031430Y-93698286D01*
X122031430Y-93841143D01*
X121960002Y-94055429D01*
X121102859Y-94912571D01*
X122031430Y-94912571D01*
X122531430Y-93412571D02*
X123460001Y-93412571D01*
X122960001Y-93984000D01*
X123174287Y-93984000D01*
X123317144Y-94055429D01*
X123388573Y-94126857D01*
X123460001Y-94269714D01*
X123460001Y-94626857D01*
X123388573Y-94769714D01*
X123317144Y-94841143D01*
X123174287Y-94912571D01*
X122745715Y-94912571D01*
X122602858Y-94841143D01*
X122531430Y-94769714D01*
X125174286Y-93341143D02*
X123888572Y-95269714D01*
X125602858Y-93555429D02*
X125674287Y-93484000D01*
X125817144Y-93412571D01*
X126174287Y-93412571D01*
X126317144Y-93484000D01*
X126388573Y-93555429D01*
X126460001Y-93698286D01*
X126460001Y-93841143D01*
X126388573Y-94055429D01*
X125531430Y-94912571D01*
X126460001Y-94912571D01*
X127388572Y-93412571D02*
X127531429Y-93412571D01*
X127674286Y-93484000D01*
X127745715Y-93555429D01*
X127817144Y-93698286D01*
X127888572Y-93984000D01*
X127888572Y-94341143D01*
X127817144Y-94626857D01*
X127745715Y-94769714D01*
X127674286Y-94841143D01*
X127531429Y-94912571D01*
X127388572Y-94912571D01*
X127245715Y-94841143D01*
X127174286Y-94769714D01*
X127102858Y-94626857D01*
X127031429Y-94341143D01*
X127031429Y-93984000D01*
X127102858Y-93698286D01*
X127174286Y-93555429D01*
X127245715Y-93484000D01*
X127388572Y-93412571D01*
X129317143Y-94912571D02*
X128460000Y-94912571D01*
X128888572Y-94912571D02*
X128888572Y-93412571D01*
X128745715Y-93626857D01*
X128602857Y-93769714D01*
X128460000Y-93841143D01*
X130602857Y-93412571D02*
X130317143Y-93412571D01*
X130174286Y-93484000D01*
X130102857Y-93555429D01*
X129960000Y-93769714D01*
X129888571Y-94055429D01*
X129888571Y-94626857D01*
X129960000Y-94769714D01*
X130031428Y-94841143D01*
X130174286Y-94912571D01*
X130460000Y-94912571D01*
X130602857Y-94841143D01*
X130674286Y-94769714D01*
X130745714Y-94626857D01*
X130745714Y-94269714D01*
X130674286Y-94126857D01*
X130602857Y-94055429D01*
X130460000Y-93984000D01*
X130174286Y-93984000D01*
X130031428Y-94055429D01*
X129960000Y-94126857D01*
X129888571Y-94269714D01*
X115172001Y-72703429D02*
X115029144Y-72632000D01*
X114886287Y-72489143D01*
X114672001Y-72274857D01*
X114529144Y-72203429D01*
X114386287Y-72203429D01*
X114457715Y-72560571D02*
X114314858Y-72489143D01*
X114172001Y-72346286D01*
X114100572Y-72060571D01*
X114100572Y-71560571D01*
X114172001Y-71274857D01*
X114314858Y-71132000D01*
X114457715Y-71060571D01*
X114743429Y-71060571D01*
X114886287Y-71132000D01*
X115029144Y-71274857D01*
X115100572Y-71560571D01*
X115100572Y-72060571D01*
X115029144Y-72346286D01*
X114886287Y-72489143D01*
X114743429Y-72560571D01*
X114457715Y-72560571D01*
X116386287Y-71560571D02*
X116386287Y-72560571D01*
X115743430Y-71560571D02*
X115743430Y-72346286D01*
X115814858Y-72489143D01*
X115957716Y-72560571D01*
X116172001Y-72560571D01*
X116314858Y-72489143D01*
X116386287Y-72417714D01*
X117743430Y-72560571D02*
X117743430Y-71774857D01*
X117672001Y-71632000D01*
X117529144Y-71560571D01*
X117243430Y-71560571D01*
X117100573Y-71632000D01*
X117743430Y-72489143D02*
X117600573Y-72560571D01*
X117243430Y-72560571D01*
X117100573Y-72489143D01*
X117029144Y-72346286D01*
X117029144Y-72203429D01*
X117100573Y-72060571D01*
X117243430Y-71989143D01*
X117600573Y-71989143D01*
X117743430Y-71917714D01*
X119100573Y-72560571D02*
X119100573Y-71060571D01*
X119100573Y-72489143D02*
X118957716Y-72560571D01*
X118672002Y-72560571D01*
X118529144Y-72489143D01*
X118457716Y-72417714D01*
X118386287Y-72274857D01*
X118386287Y-71846286D01*
X118457716Y-71703429D01*
X118529144Y-71632000D01*
X118672002Y-71560571D01*
X118957716Y-71560571D01*
X119100573Y-71632000D01*
X120814859Y-71060571D02*
X121814859Y-71060571D01*
X121172002Y-72560571D01*
X122386287Y-71989143D02*
X123529144Y-71989143D01*
X124172001Y-72489143D02*
X124386287Y-72560571D01*
X124743430Y-72560571D01*
X124886287Y-72489143D01*
X124957716Y-72417714D01*
X125029144Y-72274857D01*
X125029144Y-72132000D01*
X124957716Y-71989143D01*
X124886287Y-71917714D01*
X124743430Y-71846286D01*
X124457716Y-71774857D01*
X124314858Y-71703429D01*
X124243430Y-71632000D01*
X124172001Y-71489143D01*
X124172001Y-71346286D01*
X124243430Y-71203429D01*
X124314858Y-71132000D01*
X124457716Y-71060571D01*
X124814858Y-71060571D01*
X125029144Y-71132000D01*
X126243429Y-72489143D02*
X126100572Y-72560571D01*
X125814858Y-72560571D01*
X125672001Y-72489143D01*
X125600572Y-72346286D01*
X125600572Y-71774857D01*
X125672001Y-71632000D01*
X125814858Y-71560571D01*
X126100572Y-71560571D01*
X126243429Y-71632000D01*
X126314858Y-71774857D01*
X126314858Y-71917714D01*
X125600572Y-72060571D01*
X127600572Y-71560571D02*
X127600572Y-72774857D01*
X127529143Y-72917714D01*
X127457715Y-72989143D01*
X127314858Y-73060571D01*
X127100572Y-73060571D01*
X126957715Y-72989143D01*
X127600572Y-72489143D02*
X127457715Y-72560571D01*
X127172001Y-72560571D01*
X127029143Y-72489143D01*
X126957715Y-72417714D01*
X126886286Y-72274857D01*
X126886286Y-71846286D01*
X126957715Y-71703429D01*
X127029143Y-71632000D01*
X127172001Y-71560571D01*
X127457715Y-71560571D01*
X127600572Y-71632000D01*
X128314858Y-72560571D02*
X128314858Y-71560571D01*
X128314858Y-71703429D02*
X128386286Y-71632000D01*
X128529144Y-71560571D01*
X128743429Y-71560571D01*
X128886286Y-71632000D01*
X128957715Y-71774857D01*
X128957715Y-72560571D01*
X128957715Y-71774857D02*
X129029144Y-71632000D01*
X129172001Y-71560571D01*
X129386286Y-71560571D01*
X129529144Y-71632000D01*
X129600572Y-71774857D01*
X129600572Y-72560571D01*
X130886286Y-72489143D02*
X130743429Y-72560571D01*
X130457715Y-72560571D01*
X130314858Y-72489143D01*
X130243429Y-72346286D01*
X130243429Y-71774857D01*
X130314858Y-71632000D01*
X130457715Y-71560571D01*
X130743429Y-71560571D01*
X130886286Y-71632000D01*
X130957715Y-71774857D01*
X130957715Y-71917714D01*
X130243429Y-72060571D01*
X131600572Y-71560571D02*
X131600572Y-72560571D01*
X131600572Y-71703429D02*
X131672000Y-71632000D01*
X131814858Y-71560571D01*
X132029143Y-71560571D01*
X132172000Y-71632000D01*
X132243429Y-71774857D01*
X132243429Y-72560571D01*
X132743429Y-71560571D02*
X133314858Y-71560571D01*
X132957715Y-71060571D02*
X132957715Y-72346286D01*
X133029143Y-72489143D01*
X133172001Y-72560571D01*
X133314858Y-72560571D01*
X134957715Y-72560571D02*
X134957715Y-71060571D01*
X135314858Y-71060571D01*
X135529143Y-71132000D01*
X135672001Y-71274857D01*
X135743429Y-71417714D01*
X135814858Y-71703429D01*
X135814858Y-71917714D01*
X135743429Y-72203429D01*
X135672001Y-72346286D01*
X135529143Y-72489143D01*
X135314858Y-72560571D01*
X134957715Y-72560571D01*
X136457715Y-72560571D02*
X136457715Y-71560571D01*
X136457715Y-71060571D02*
X136386286Y-71132000D01*
X136457715Y-71203429D01*
X136529143Y-71132000D01*
X136457715Y-71060571D01*
X136457715Y-71203429D01*
X137100572Y-72489143D02*
X137243429Y-72560571D01*
X137529144Y-72560571D01*
X137672001Y-72489143D01*
X137743429Y-72346286D01*
X137743429Y-72274857D01*
X137672001Y-72132000D01*
X137529144Y-72060571D01*
X137314858Y-72060571D01*
X137172001Y-71989143D01*
X137100572Y-71846286D01*
X137100572Y-71774857D01*
X137172001Y-71632000D01*
X137314858Y-71560571D01*
X137529144Y-71560571D01*
X137672001Y-71632000D01*
X138386287Y-71560571D02*
X138386287Y-73060571D01*
X138386287Y-71632000D02*
X138529144Y-71560571D01*
X138814858Y-71560571D01*
X138957715Y-71632000D01*
X139029144Y-71703429D01*
X139100573Y-71846286D01*
X139100573Y-72274857D01*
X139029144Y-72417714D01*
X138957715Y-72489143D01*
X138814858Y-72560571D01*
X138529144Y-72560571D01*
X138386287Y-72489143D01*
X139957716Y-72560571D02*
X139814858Y-72489143D01*
X139743430Y-72346286D01*
X139743430Y-71060571D01*
X141172001Y-72560571D02*
X141172001Y-71774857D01*
X141100572Y-71632000D01*
X140957715Y-71560571D01*
X140672001Y-71560571D01*
X140529144Y-71632000D01*
X141172001Y-72489143D02*
X141029144Y-72560571D01*
X140672001Y-72560571D01*
X140529144Y-72489143D01*
X140457715Y-72346286D01*
X140457715Y-72203429D01*
X140529144Y-72060571D01*
X140672001Y-71989143D01*
X141029144Y-71989143D01*
X141172001Y-71917714D01*
X141743430Y-71560571D02*
X142100573Y-72560571D01*
X142457715Y-71560571D02*
X142100573Y-72560571D01*
X141957715Y-72917714D01*
X141886287Y-72989143D01*
X141743430Y-73060571D01*
X143957715Y-71060571D02*
X144814858Y-71060571D01*
X144386287Y-72560571D02*
X144386287Y-71060571D01*
X145886286Y-72489143D02*
X145743429Y-72560571D01*
X145457715Y-72560571D01*
X145314858Y-72489143D01*
X145243429Y-72346286D01*
X145243429Y-71774857D01*
X145314858Y-71632000D01*
X145457715Y-71560571D01*
X145743429Y-71560571D01*
X145886286Y-71632000D01*
X145957715Y-71774857D01*
X145957715Y-71917714D01*
X145243429Y-72060571D01*
X147172000Y-72489143D02*
X147029143Y-72560571D01*
X146743429Y-72560571D01*
X146600572Y-72489143D01*
X146529143Y-72346286D01*
X146529143Y-71774857D01*
X146600572Y-71632000D01*
X146743429Y-71560571D01*
X147029143Y-71560571D01*
X147172000Y-71632000D01*
X147243429Y-71774857D01*
X147243429Y-71917714D01*
X146529143Y-72060571D01*
X147886286Y-71560571D02*
X147886286Y-72560571D01*
X147886286Y-71703429D02*
X147957714Y-71632000D01*
X148100572Y-71560571D01*
X148314857Y-71560571D01*
X148457714Y-71632000D01*
X148529143Y-71774857D01*
X148529143Y-72560571D01*
X149172000Y-72489143D02*
X149314857Y-72560571D01*
X149600572Y-72560571D01*
X149743429Y-72489143D01*
X149814857Y-72346286D01*
X149814857Y-72274857D01*
X149743429Y-72132000D01*
X149600572Y-72060571D01*
X149386286Y-72060571D01*
X149243429Y-71989143D01*
X149172000Y-71846286D01*
X149172000Y-71774857D01*
X149243429Y-71632000D01*
X149386286Y-71560571D01*
X149600572Y-71560571D01*
X149743429Y-71632000D01*
X150314858Y-71560571D02*
X150672001Y-72560571D01*
X151029143Y-71560571D02*
X150672001Y-72560571D01*
X150529143Y-72917714D01*
X150457715Y-72989143D01*
X150314858Y-73060571D01*
X152743429Y-72560571D02*
X152743429Y-71060571D01*
X152743429Y-71774857D02*
X153600572Y-71774857D01*
X153600572Y-72560571D02*
X153600572Y-71060571D01*
X154957715Y-72560571D02*
X154957715Y-71774857D01*
X154886286Y-71632000D01*
X154743429Y-71560571D01*
X154457715Y-71560571D01*
X154314858Y-71632000D01*
X154957715Y-72489143D02*
X154814858Y-72560571D01*
X154457715Y-72560571D01*
X154314858Y-72489143D01*
X154243429Y-72346286D01*
X154243429Y-72203429D01*
X154314858Y-72060571D01*
X154457715Y-71989143D01*
X154814858Y-71989143D01*
X154957715Y-71917714D01*
X155457715Y-71560571D02*
X156029144Y-71560571D01*
X155672001Y-71060571D02*
X155672001Y-72346286D01*
X155743429Y-72489143D01*
X155886287Y-72560571D01*
X156029144Y-72560571D01*
X157529144Y-71560571D02*
X157886287Y-72560571D01*
X158243429Y-71560571D01*
X159600572Y-72560571D02*
X158743429Y-72560571D01*
X159172001Y-72560571D02*
X159172001Y-71060571D01*
X159029144Y-71274857D01*
X158886286Y-71417714D01*
X158743429Y-71489143D01*
X160243429Y-72417714D02*
X160314857Y-72489143D01*
X160243429Y-72560571D01*
X160172000Y-72489143D01*
X160243429Y-72417714D01*
X160243429Y-72560571D01*
X161243429Y-71060571D02*
X161386286Y-71060571D01*
X161529143Y-71132000D01*
X161600572Y-71203429D01*
X161672001Y-71346286D01*
X161743429Y-71632000D01*
X161743429Y-71989143D01*
X161672001Y-72274857D01*
X161600572Y-72417714D01*
X161529143Y-72489143D01*
X161386286Y-72560571D01*
X161243429Y-72560571D01*
X161100572Y-72489143D01*
X161029143Y-72417714D01*
X160957715Y-72274857D01*
X160886286Y-71989143D01*
X160886286Y-71632000D01*
X160957715Y-71346286D01*
X161029143Y-71203429D01*
X161100572Y-71132000D01*
X161243429Y-71060571D01*
D12*
X119786000Y-80772000D02*
X117786000Y-80772000D01*
X119786000Y-85272000D02*
X119786000Y-80772000D01*
X117786000Y-85272000D02*
X119786000Y-85272000D01*
X153286000Y-92272000D02*
X153286000Y-74272000D01*
X117786000Y-92272000D02*
X153286000Y-92272000D01*
X117786000Y-74272000D02*
X117786000Y-92272000D01*
X153286000Y-74272000D02*
X117786000Y-74272000D01*
X153396000Y-89179400D02*
X153396000Y-77495400D01*
X147833400Y-89179400D02*
X153396000Y-89179400D01*
X147833400Y-77495400D02*
X153396000Y-77495400D01*
X147833400Y-89179400D02*
X147833400Y-77495400D01*
X122186000Y-89346000D02*
X122186000Y-86446000D01*
X122186000Y-89346000D02*
X123686000Y-89346000D01*
X122186000Y-86446000D02*
X123686000Y-86446000D01*
X123686000Y-89346000D02*
X123686000Y-86446000D01*
X132272000Y-86602000D02*
X129372000Y-86602000D01*
X132272000Y-86602000D02*
X132272000Y-85102000D01*
X129372000Y-86602000D02*
X129372000Y-85102000D01*
X132272000Y-85102000D02*
X129372000Y-85102000D01*
X142662000Y-86602000D02*
X139762000Y-86602000D01*
X142662000Y-86602000D02*
X142662000Y-85102000D01*
X139762000Y-86602000D02*
X139762000Y-85102000D01*
X142662000Y-85102000D02*
X139762000Y-85102000D01*
X145964000Y-86602000D02*
X143064000Y-86602000D01*
X145964000Y-86602000D02*
X145964000Y-85102000D01*
X143064000Y-86602000D02*
X143064000Y-85102000D01*
X145964000Y-85102000D02*
X143064000Y-85102000D01*
D13*
X128738381Y-83105333D02*
X129452667Y-83105333D01*
X129595524Y-83152953D01*
X129690762Y-83248191D01*
X129738381Y-83391048D01*
X129738381Y-83486286D01*
X129738381Y-82105333D02*
X129738381Y-82676762D01*
X129738381Y-82391048D02*
X128738381Y-82391048D01*
X128881238Y-82486286D01*
X128976476Y-82581524D01*
X129024095Y-82676762D01*
X150510381Y-83416733D02*
X151224667Y-83416733D01*
X151367524Y-83464353D01*
X151462762Y-83559591D01*
X151510381Y-83702448D01*
X151510381Y-83797686D01*
X150510381Y-83035781D02*
X150510381Y-82416733D01*
X150891333Y-82750067D01*
X150891333Y-82607209D01*
X150938952Y-82511971D01*
X150986571Y-82464352D01*
X151081810Y-82416733D01*
X151319905Y-82416733D01*
X151415143Y-82464352D01*
X151462762Y-82511971D01*
X151510381Y-82607209D01*
X151510381Y-82892924D01*
X151462762Y-82988162D01*
X151415143Y-83035781D01*
X123337905Y-87939333D02*
X122956952Y-88206000D01*
X123337905Y-88396476D02*
X122537905Y-88396476D01*
X122537905Y-88091714D01*
X122576000Y-88015523D01*
X122614095Y-87977428D01*
X122690286Y-87939333D01*
X122804571Y-87939333D01*
X122880762Y-87977428D01*
X122918857Y-88015523D01*
X122956952Y-88091714D01*
X122956952Y-88396476D01*
X123337905Y-87177428D02*
X123337905Y-87634571D01*
X123337905Y-87406000D02*
X122537905Y-87406000D01*
X122652190Y-87482190D01*
X122728381Y-87558381D01*
X122766476Y-87634571D01*
X130598667Y-86173905D02*
X130332000Y-85792952D01*
X130141524Y-86173905D02*
X130141524Y-85373905D01*
X130446286Y-85373905D01*
X130522477Y-85412000D01*
X130560572Y-85450095D01*
X130598667Y-85526286D01*
X130598667Y-85640571D01*
X130560572Y-85716762D01*
X130522477Y-85754857D01*
X130446286Y-85792952D01*
X130141524Y-85792952D01*
X130903429Y-85450095D02*
X130941524Y-85412000D01*
X131017715Y-85373905D01*
X131208191Y-85373905D01*
X131284381Y-85412000D01*
X131322477Y-85450095D01*
X131360572Y-85526286D01*
X131360572Y-85602476D01*
X131322477Y-85716762D01*
X130865334Y-86173905D01*
X131360572Y-86173905D01*
X140988667Y-86173905D02*
X140722000Y-85792952D01*
X140531524Y-86173905D02*
X140531524Y-85373905D01*
X140836286Y-85373905D01*
X140912477Y-85412000D01*
X140950572Y-85450095D01*
X140988667Y-85526286D01*
X140988667Y-85640571D01*
X140950572Y-85716762D01*
X140912477Y-85754857D01*
X140836286Y-85792952D01*
X140531524Y-85792952D01*
X141255334Y-85373905D02*
X141750572Y-85373905D01*
X141483905Y-85678667D01*
X141598191Y-85678667D01*
X141674381Y-85716762D01*
X141712477Y-85754857D01*
X141750572Y-85831048D01*
X141750572Y-86021524D01*
X141712477Y-86097714D01*
X141674381Y-86135810D01*
X141598191Y-86173905D01*
X141369619Y-86173905D01*
X141293429Y-86135810D01*
X141255334Y-86097714D01*
X144290667Y-86173905D02*
X144024000Y-85792952D01*
X143833524Y-86173905D02*
X143833524Y-85373905D01*
X144138286Y-85373905D01*
X144214477Y-85412000D01*
X144252572Y-85450095D01*
X144290667Y-85526286D01*
X144290667Y-85640571D01*
X144252572Y-85716762D01*
X144214477Y-85754857D01*
X144138286Y-85792952D01*
X143833524Y-85792952D01*
X144976381Y-85640571D02*
X144976381Y-86173905D01*
X144785905Y-85335810D02*
X144595429Y-85907238D01*
X145090667Y-85907238D01*
M02*
