G04 #@! TF.FileFunction,Soldermask,Top*
%FSLAX46Y46*%
G04 Gerber Fmt 4.6, Leading zero omitted, Abs format (unit mm)*
G04 Created by KiCad (PCBNEW 4.0.1-3.201512221402+6198~38~ubuntu14.04.1-stable) date Wed 17 Aug 2016 03:48:48 PM PDT*
%MOMM*%
G01*
G04 APERTURE LIST*
%ADD10C,0.100000*%
%ADD11C,1.879600*%
%ADD12R,1.052400X1.552400*%
%ADD13R,1.302400X1.352400*%
%ADD14R,1.352400X1.602400*%
%ADD15R,1.152400X0.852400*%
%ADD16R,0.852400X1.152400*%
%ADD17R,0.902400X0.952400*%
%ADD18R,0.952400X0.902400*%
G04 APERTURE END LIST*
D10*
D11*
X119126000Y-90932000D03*
X121666000Y-90932000D03*
X124206000Y-90932000D03*
X126746000Y-90932000D03*
X129286000Y-90932000D03*
X131826000Y-90932000D03*
X134366000Y-90932000D03*
X136906000Y-90932000D03*
X139446000Y-90932000D03*
X141986000Y-90932000D03*
X144526000Y-90932000D03*
X147066000Y-90932000D03*
X149606000Y-90932000D03*
X152146000Y-90932000D03*
X152146000Y-75692000D03*
X144526000Y-75692000D03*
X124206000Y-75692000D03*
X139446000Y-75692000D03*
X141986000Y-75692000D03*
X121666000Y-75692000D03*
X129286000Y-75692000D03*
X119126000Y-75692000D03*
X131826000Y-75692000D03*
X134366000Y-75692000D03*
X136906000Y-75692000D03*
X126746000Y-75692000D03*
X149606000Y-75692000D03*
X147066000Y-75692000D03*
D12*
X152908000Y-78232000D03*
D13*
X152771500Y-88496900D03*
D14*
X150608000Y-78257000D03*
D13*
X150171500Y-88496900D03*
D15*
X149131500Y-85896900D03*
X149131500Y-86996900D03*
X149131500Y-84796900D03*
X149131500Y-83696900D03*
X149131500Y-82596900D03*
X149131500Y-79296900D03*
X149131500Y-80396900D03*
X149131500Y-81496900D03*
D16*
X151758000Y-78032000D03*
D17*
X122936000Y-88646000D03*
X122936000Y-87146000D03*
D18*
X131572000Y-85852000D03*
X130072000Y-85852000D03*
X141962000Y-85852000D03*
X140462000Y-85852000D03*
X145264000Y-85852000D03*
X143764000Y-85852000D03*
D11*
X143256000Y-88392000D03*
X140716000Y-88392000D03*
X138176000Y-88392000D03*
X135636000Y-88392000D03*
X133096000Y-88392000D03*
X130556000Y-88392000D03*
X128016000Y-88392000D03*
X125476000Y-88392000D03*
X125476000Y-78232000D03*
X128016000Y-78232000D03*
X130556000Y-78232000D03*
X133096000Y-78232000D03*
X135636000Y-78232000D03*
X138176000Y-78232000D03*
X140716000Y-78232000D03*
X143256000Y-78232000D03*
M02*
