G04 #@! TF.FileFunction,Other,User*
%FSLAX46Y46*%
G04 Gerber Fmt 4.6, Leading zero omitted, Abs format (unit mm)*
G04 Created by KiCad (PCBNEW 4.0.1-3.201512221402+6198~38~ubuntu14.04.1-stable) date Wed 17 Aug 2016 03:48:48 PM PDT*
%MOMM*%
G01*
G04 APERTURE LIST*
%ADD10C,0.100000*%
%ADD11C,0.152400*%
%ADD12C,0.050000*%
G04 APERTURE END LIST*
D10*
D11*
X153416000Y-92202000D02*
X153416000Y-74422000D01*
X117856000Y-92202000D02*
X153416000Y-92202000D01*
X117856000Y-74422000D02*
X117856000Y-92202000D01*
X153416000Y-74422000D02*
X117856000Y-74422000D01*
D12*
X163808000Y-89583400D02*
X163808000Y-77083400D01*
X147558000Y-89583400D02*
X163808000Y-89583400D01*
X147558000Y-77083400D02*
X163808000Y-77083400D01*
X147558000Y-89583400D02*
X147558000Y-77083400D01*
X123686000Y-89346000D02*
X123686000Y-86446000D01*
X122186000Y-89346000D02*
X123686000Y-89346000D01*
X122186000Y-86446000D02*
X123686000Y-86446000D01*
X122186000Y-89346000D02*
X122186000Y-86446000D01*
X132272000Y-85102000D02*
X129372000Y-85102000D01*
X132272000Y-86602000D02*
X132272000Y-85102000D01*
X129372000Y-86602000D02*
X129372000Y-85102000D01*
X132272000Y-86602000D02*
X129372000Y-86602000D01*
X142662000Y-85102000D02*
X139762000Y-85102000D01*
X142662000Y-86602000D02*
X142662000Y-85102000D01*
X139762000Y-86602000D02*
X139762000Y-85102000D01*
X142662000Y-86602000D02*
X139762000Y-86602000D01*
X145964000Y-85102000D02*
X143064000Y-85102000D01*
X145964000Y-86602000D02*
X145964000Y-85102000D01*
X143064000Y-86602000D02*
X143064000Y-85102000D01*
X145964000Y-86602000D02*
X143064000Y-86602000D01*
M02*
