G04 #@! TF.FileFunction,Legend,Bot*
%FSLAX46Y46*%
G04 Gerber Fmt 4.6, Leading zero omitted, Abs format (unit mm)*
G04 Created by KiCad (PCBNEW 4.0.1-3.201512221402+6198~38~ubuntu14.04.1-stable) date Wed 17 Aug 2016 03:48:47 PM PDT*
%MOMM*%
G01*
G04 APERTURE LIST*
%ADD10C,0.100000*%
%ADD11C,0.203200*%
%ADD12C,0.200000*%
%ADD13C,0.400000*%
G04 APERTURE END LIST*
D10*
D11*
X150791331Y-81429981D02*
X150888093Y-81381600D01*
X150984855Y-81284838D01*
X151129998Y-81139695D01*
X151226759Y-81091314D01*
X151323521Y-81091314D01*
X151275140Y-81333219D02*
X151371902Y-81284838D01*
X151468664Y-81188076D01*
X151517045Y-80994552D01*
X151517045Y-80655886D01*
X151468664Y-80462362D01*
X151371902Y-80365600D01*
X151275140Y-80317219D01*
X151081617Y-80317219D01*
X150984855Y-80365600D01*
X150888093Y-80462362D01*
X150839712Y-80655886D01*
X150839712Y-80994552D01*
X150888093Y-81188076D01*
X150984855Y-81284838D01*
X151081617Y-81333219D01*
X151275140Y-81333219D01*
X149968855Y-80655886D02*
X149968855Y-81333219D01*
X150404283Y-80655886D02*
X150404283Y-81188076D01*
X150355902Y-81284838D01*
X150259140Y-81333219D01*
X150113998Y-81333219D01*
X150017236Y-81284838D01*
X149968855Y-81236457D01*
X149049617Y-81333219D02*
X149049617Y-80801029D01*
X149097998Y-80704267D01*
X149194760Y-80655886D01*
X149388283Y-80655886D01*
X149485045Y-80704267D01*
X149049617Y-81284838D02*
X149146379Y-81333219D01*
X149388283Y-81333219D01*
X149485045Y-81284838D01*
X149533426Y-81188076D01*
X149533426Y-81091314D01*
X149485045Y-80994552D01*
X149388283Y-80946171D01*
X149146379Y-80946171D01*
X149049617Y-80897790D01*
X148130379Y-81333219D02*
X148130379Y-80317219D01*
X148130379Y-81284838D02*
X148227141Y-81333219D01*
X148420664Y-81333219D01*
X148517426Y-81284838D01*
X148565807Y-81236457D01*
X148614188Y-81139695D01*
X148614188Y-80849410D01*
X148565807Y-80752648D01*
X148517426Y-80704267D01*
X148420664Y-80655886D01*
X148227141Y-80655886D01*
X148130379Y-80704267D01*
X146969236Y-80317219D02*
X146291903Y-80317219D01*
X146727331Y-81333219D01*
X145904855Y-80946171D02*
X145130760Y-80946171D01*
X144695331Y-81284838D02*
X144550188Y-81333219D01*
X144308284Y-81333219D01*
X144211522Y-81284838D01*
X144163141Y-81236457D01*
X144114760Y-81139695D01*
X144114760Y-81042933D01*
X144163141Y-80946171D01*
X144211522Y-80897790D01*
X144308284Y-80849410D01*
X144501807Y-80801029D01*
X144598569Y-80752648D01*
X144646950Y-80704267D01*
X144695331Y-80607505D01*
X144695331Y-80510743D01*
X144646950Y-80413981D01*
X144598569Y-80365600D01*
X144501807Y-80317219D01*
X144259903Y-80317219D01*
X144114760Y-80365600D01*
X143292284Y-81284838D02*
X143389046Y-81333219D01*
X143582569Y-81333219D01*
X143679331Y-81284838D01*
X143727712Y-81188076D01*
X143727712Y-80801029D01*
X143679331Y-80704267D01*
X143582569Y-80655886D01*
X143389046Y-80655886D01*
X143292284Y-80704267D01*
X143243903Y-80801029D01*
X143243903Y-80897790D01*
X143727712Y-80994552D01*
X142373046Y-80655886D02*
X142373046Y-81478362D01*
X142421427Y-81575124D01*
X142469808Y-81623505D01*
X142566569Y-81671886D01*
X142711712Y-81671886D01*
X142808474Y-81623505D01*
X142373046Y-81284838D02*
X142469808Y-81333219D01*
X142663331Y-81333219D01*
X142760093Y-81284838D01*
X142808474Y-81236457D01*
X142856855Y-81139695D01*
X142856855Y-80849410D01*
X142808474Y-80752648D01*
X142760093Y-80704267D01*
X142663331Y-80655886D01*
X142469808Y-80655886D01*
X142373046Y-80704267D01*
X141889236Y-81333219D02*
X141889236Y-80655886D01*
X141889236Y-80752648D02*
X141840855Y-80704267D01*
X141744093Y-80655886D01*
X141598951Y-80655886D01*
X141502189Y-80704267D01*
X141453808Y-80801029D01*
X141453808Y-81333219D01*
X141453808Y-80801029D02*
X141405427Y-80704267D01*
X141308665Y-80655886D01*
X141163522Y-80655886D01*
X141066760Y-80704267D01*
X141018379Y-80801029D01*
X141018379Y-81333219D01*
X140147522Y-81284838D02*
X140244284Y-81333219D01*
X140437807Y-81333219D01*
X140534569Y-81284838D01*
X140582950Y-81188076D01*
X140582950Y-80801029D01*
X140534569Y-80704267D01*
X140437807Y-80655886D01*
X140244284Y-80655886D01*
X140147522Y-80704267D01*
X140099141Y-80801029D01*
X140099141Y-80897790D01*
X140582950Y-80994552D01*
X139663712Y-80655886D02*
X139663712Y-81333219D01*
X139663712Y-80752648D02*
X139615331Y-80704267D01*
X139518569Y-80655886D01*
X139373427Y-80655886D01*
X139276665Y-80704267D01*
X139228284Y-80801029D01*
X139228284Y-81333219D01*
X138889617Y-80655886D02*
X138502569Y-80655886D01*
X138744474Y-80317219D02*
X138744474Y-81188076D01*
X138696093Y-81284838D01*
X138599331Y-81333219D01*
X138502569Y-81333219D01*
X137389808Y-81333219D02*
X137389808Y-80317219D01*
X137147903Y-80317219D01*
X137002761Y-80365600D01*
X136905999Y-80462362D01*
X136857618Y-80559124D01*
X136809237Y-80752648D01*
X136809237Y-80897790D01*
X136857618Y-81091314D01*
X136905999Y-81188076D01*
X137002761Y-81284838D01*
X137147903Y-81333219D01*
X137389808Y-81333219D01*
X136373808Y-81333219D02*
X136373808Y-80655886D01*
X136373808Y-80317219D02*
X136422189Y-80365600D01*
X136373808Y-80413981D01*
X136325427Y-80365600D01*
X136373808Y-80317219D01*
X136373808Y-80413981D01*
X135938379Y-81284838D02*
X135841617Y-81333219D01*
X135648093Y-81333219D01*
X135551332Y-81284838D01*
X135502951Y-81188076D01*
X135502951Y-81139695D01*
X135551332Y-81042933D01*
X135648093Y-80994552D01*
X135793236Y-80994552D01*
X135889998Y-80946171D01*
X135938379Y-80849410D01*
X135938379Y-80801029D01*
X135889998Y-80704267D01*
X135793236Y-80655886D01*
X135648093Y-80655886D01*
X135551332Y-80704267D01*
X135067522Y-80655886D02*
X135067522Y-81671886D01*
X135067522Y-80704267D02*
X134970760Y-80655886D01*
X134777237Y-80655886D01*
X134680475Y-80704267D01*
X134632094Y-80752648D01*
X134583713Y-80849410D01*
X134583713Y-81139695D01*
X134632094Y-81236457D01*
X134680475Y-81284838D01*
X134777237Y-81333219D01*
X134970760Y-81333219D01*
X135067522Y-81284838D01*
X134003141Y-81333219D02*
X134099903Y-81284838D01*
X134148284Y-81188076D01*
X134148284Y-80317219D01*
X133180666Y-81333219D02*
X133180666Y-80801029D01*
X133229047Y-80704267D01*
X133325809Y-80655886D01*
X133519332Y-80655886D01*
X133616094Y-80704267D01*
X133180666Y-81284838D02*
X133277428Y-81333219D01*
X133519332Y-81333219D01*
X133616094Y-81284838D01*
X133664475Y-81188076D01*
X133664475Y-81091314D01*
X133616094Y-80994552D01*
X133519332Y-80946171D01*
X133277428Y-80946171D01*
X133180666Y-80897790D01*
X132793618Y-80655886D02*
X132551713Y-81333219D01*
X132309809Y-80655886D02*
X132551713Y-81333219D01*
X132648475Y-81575124D01*
X132696856Y-81623505D01*
X132793618Y-81671886D01*
X131293809Y-80317219D02*
X130713238Y-80317219D01*
X131003523Y-81333219D02*
X131003523Y-80317219D01*
X129987524Y-81284838D02*
X130084286Y-81333219D01*
X130277809Y-81333219D01*
X130374571Y-81284838D01*
X130422952Y-81188076D01*
X130422952Y-80801029D01*
X130374571Y-80704267D01*
X130277809Y-80655886D01*
X130084286Y-80655886D01*
X129987524Y-80704267D01*
X129939143Y-80801029D01*
X129939143Y-80897790D01*
X130422952Y-80994552D01*
X129116667Y-81284838D02*
X129213429Y-81333219D01*
X129406952Y-81333219D01*
X129503714Y-81284838D01*
X129552095Y-81188076D01*
X129552095Y-80801029D01*
X129503714Y-80704267D01*
X129406952Y-80655886D01*
X129213429Y-80655886D01*
X129116667Y-80704267D01*
X129068286Y-80801029D01*
X129068286Y-80897790D01*
X129552095Y-80994552D01*
X128632857Y-80655886D02*
X128632857Y-81333219D01*
X128632857Y-80752648D02*
X128584476Y-80704267D01*
X128487714Y-80655886D01*
X128342572Y-80655886D01*
X128245810Y-80704267D01*
X128197429Y-80801029D01*
X128197429Y-81333219D01*
X127762000Y-81284838D02*
X127665238Y-81333219D01*
X127471714Y-81333219D01*
X127374953Y-81284838D01*
X127326572Y-81188076D01*
X127326572Y-81139695D01*
X127374953Y-81042933D01*
X127471714Y-80994552D01*
X127616857Y-80994552D01*
X127713619Y-80946171D01*
X127762000Y-80849410D01*
X127762000Y-80801029D01*
X127713619Y-80704267D01*
X127616857Y-80655886D01*
X127471714Y-80655886D01*
X127374953Y-80704267D01*
X126987905Y-80655886D02*
X126746000Y-81333219D01*
X126504096Y-80655886D02*
X126746000Y-81333219D01*
X126842762Y-81575124D01*
X126891143Y-81623505D01*
X126987905Y-81671886D01*
X125342953Y-81333219D02*
X125342953Y-80317219D01*
X125342953Y-80801029D02*
X124762382Y-80801029D01*
X124762382Y-81333219D02*
X124762382Y-80317219D01*
X123843144Y-81333219D02*
X123843144Y-80801029D01*
X123891525Y-80704267D01*
X123988287Y-80655886D01*
X124181810Y-80655886D01*
X124278572Y-80704267D01*
X123843144Y-81284838D02*
X123939906Y-81333219D01*
X124181810Y-81333219D01*
X124278572Y-81284838D01*
X124326953Y-81188076D01*
X124326953Y-81091314D01*
X124278572Y-80994552D01*
X124181810Y-80946171D01*
X123939906Y-80946171D01*
X123843144Y-80897790D01*
X123504477Y-80655886D02*
X123117429Y-80655886D01*
X123359334Y-80317219D02*
X123359334Y-81188076D01*
X123310953Y-81284838D01*
X123214191Y-81333219D01*
X123117429Y-81333219D01*
X122101430Y-80655886D02*
X121859525Y-81333219D01*
X121617621Y-80655886D01*
X120698383Y-81333219D02*
X121278954Y-81333219D01*
X120988668Y-81333219D02*
X120988668Y-80317219D01*
X121085430Y-80462362D01*
X121182192Y-80559124D01*
X121278954Y-80607505D01*
X120262954Y-81236457D02*
X120214573Y-81284838D01*
X120262954Y-81333219D01*
X120311335Y-81284838D01*
X120262954Y-81236457D01*
X120262954Y-81333219D01*
X119585620Y-80317219D02*
X119488859Y-80317219D01*
X119392097Y-80365600D01*
X119343716Y-80413981D01*
X119295335Y-80510743D01*
X119246954Y-80704267D01*
X119246954Y-80946171D01*
X119295335Y-81139695D01*
X119343716Y-81236457D01*
X119392097Y-81284838D01*
X119488859Y-81333219D01*
X119585620Y-81333219D01*
X119682382Y-81284838D01*
X119730763Y-81236457D01*
X119779144Y-81139695D01*
X119827525Y-80946171D01*
X119827525Y-80704267D01*
X119779144Y-80510743D01*
X119730763Y-80413981D01*
X119682382Y-80365600D01*
X119585620Y-80317219D01*
X146170951Y-84584419D02*
X146170951Y-83568419D01*
X145832285Y-84294133D01*
X145493618Y-83568419D01*
X145493618Y-84584419D01*
X145009808Y-84584419D02*
X145009808Y-83907086D01*
X145009808Y-83568419D02*
X145058189Y-83616800D01*
X145009808Y-83665181D01*
X144961427Y-83616800D01*
X145009808Y-83568419D01*
X145009808Y-83665181D01*
X144090570Y-84536038D02*
X144187332Y-84584419D01*
X144380855Y-84584419D01*
X144477617Y-84536038D01*
X144525998Y-84487657D01*
X144574379Y-84390895D01*
X144574379Y-84100610D01*
X144525998Y-84003848D01*
X144477617Y-83955467D01*
X144380855Y-83907086D01*
X144187332Y-83907086D01*
X144090570Y-83955467D01*
X143655141Y-84584419D02*
X143655141Y-83907086D01*
X143655141Y-84100610D02*
X143606760Y-84003848D01*
X143558379Y-83955467D01*
X143461617Y-83907086D01*
X143364856Y-83907086D01*
X142881046Y-84584419D02*
X142977808Y-84536038D01*
X143026189Y-84487657D01*
X143074570Y-84390895D01*
X143074570Y-84100610D01*
X143026189Y-84003848D01*
X142977808Y-83955467D01*
X142881046Y-83907086D01*
X142735904Y-83907086D01*
X142639142Y-83955467D01*
X142590761Y-84003848D01*
X142542380Y-84100610D01*
X142542380Y-84390895D01*
X142590761Y-84487657D01*
X142639142Y-84536038D01*
X142735904Y-84584419D01*
X142881046Y-84584419D01*
X142155332Y-84536038D02*
X142010189Y-84584419D01*
X141768285Y-84584419D01*
X141671523Y-84536038D01*
X141623142Y-84487657D01*
X141574761Y-84390895D01*
X141574761Y-84294133D01*
X141623142Y-84197371D01*
X141671523Y-84148990D01*
X141768285Y-84100610D01*
X141961808Y-84052229D01*
X142058570Y-84003848D01*
X142106951Y-83955467D01*
X142155332Y-83858705D01*
X142155332Y-83761943D01*
X142106951Y-83665181D01*
X142058570Y-83616800D01*
X141961808Y-83568419D01*
X141719904Y-83568419D01*
X141574761Y-83616800D01*
X141139332Y-84584419D02*
X141139332Y-83568419D01*
X140897427Y-83568419D01*
X140752285Y-83616800D01*
X140655523Y-83713562D01*
X140607142Y-83810324D01*
X140558761Y-84003848D01*
X140558761Y-84148990D01*
X140607142Y-84342514D01*
X140655523Y-84439276D01*
X140752285Y-84536038D01*
X140897427Y-84584419D01*
X141139332Y-84584419D01*
X140123332Y-84487657D02*
X140074951Y-84536038D01*
X140123332Y-84584419D01*
X140171713Y-84536038D01*
X140123332Y-84487657D01*
X140123332Y-84584419D01*
X140123332Y-83955467D02*
X140074951Y-84003848D01*
X140123332Y-84052229D01*
X140171713Y-84003848D01*
X140123332Y-83955467D01*
X140123332Y-84052229D01*
X138865427Y-84584419D02*
X138865427Y-83568419D01*
X138526761Y-84294133D01*
X138188094Y-83568419D01*
X138188094Y-84584419D01*
X137559141Y-84584419D02*
X137655903Y-84536038D01*
X137704284Y-84487657D01*
X137752665Y-84390895D01*
X137752665Y-84100610D01*
X137704284Y-84003848D01*
X137655903Y-83955467D01*
X137559141Y-83907086D01*
X137413999Y-83907086D01*
X137317237Y-83955467D01*
X137268856Y-84003848D01*
X137220475Y-84100610D01*
X137220475Y-84390895D01*
X137268856Y-84487657D01*
X137317237Y-84536038D01*
X137413999Y-84584419D01*
X137559141Y-84584419D01*
X136639903Y-84584419D02*
X136736665Y-84536038D01*
X136785046Y-84439276D01*
X136785046Y-83568419D01*
X135865809Y-84536038D02*
X135962571Y-84584419D01*
X136156094Y-84584419D01*
X136252856Y-84536038D01*
X136301237Y-84439276D01*
X136301237Y-84052229D01*
X136252856Y-83955467D01*
X136156094Y-83907086D01*
X135962571Y-83907086D01*
X135865809Y-83955467D01*
X135817428Y-84052229D01*
X135817428Y-84148990D01*
X136301237Y-84245752D01*
X135478761Y-84584419D02*
X134946571Y-83907086D01*
X135478761Y-83907086D02*
X134946571Y-84584419D01*
X133591904Y-83568419D02*
X133495143Y-83568419D01*
X133398381Y-83616800D01*
X133350000Y-83665181D01*
X133301619Y-83761943D01*
X133253238Y-83955467D01*
X133253238Y-84197371D01*
X133301619Y-84390895D01*
X133350000Y-84487657D01*
X133398381Y-84536038D01*
X133495143Y-84584419D01*
X133591904Y-84584419D01*
X133688666Y-84536038D01*
X133737047Y-84487657D01*
X133785428Y-84390895D01*
X133833809Y-84197371D01*
X133833809Y-83955467D01*
X133785428Y-83761943D01*
X133737047Y-83665181D01*
X133688666Y-83616800D01*
X133591904Y-83568419D01*
X132382381Y-83907086D02*
X132382381Y-84584419D01*
X132624285Y-83520038D02*
X132866190Y-84245752D01*
X132237238Y-84245752D01*
X131946952Y-83568419D02*
X131269619Y-83568419D01*
X131705047Y-84584419D01*
X130398762Y-83568419D02*
X130882571Y-83568419D01*
X130930952Y-84052229D01*
X130882571Y-84003848D01*
X130785809Y-83955467D01*
X130543905Y-83955467D01*
X130447143Y-84003848D01*
X130398762Y-84052229D01*
X130350381Y-84148990D01*
X130350381Y-84390895D01*
X130398762Y-84487657D01*
X130447143Y-84536038D01*
X130543905Y-84584419D01*
X130785809Y-84584419D01*
X130882571Y-84536038D01*
X130930952Y-84487657D01*
X130011714Y-83568419D02*
X129334381Y-83568419D01*
X129769809Y-84584419D01*
X128415143Y-84584419D02*
X128995714Y-84584419D01*
X128705428Y-84584419D02*
X128705428Y-83568419D01*
X128802190Y-83713562D01*
X128898952Y-83810324D01*
X128995714Y-83858705D01*
X127786190Y-83568419D02*
X127689429Y-83568419D01*
X127592667Y-83616800D01*
X127544286Y-83665181D01*
X127495905Y-83761943D01*
X127447524Y-83955467D01*
X127447524Y-84197371D01*
X127495905Y-84390895D01*
X127544286Y-84487657D01*
X127592667Y-84536038D01*
X127689429Y-84584419D01*
X127786190Y-84584419D01*
X127882952Y-84536038D01*
X127931333Y-84487657D01*
X127979714Y-84390895D01*
X128028095Y-84197371D01*
X128028095Y-83955467D01*
X127979714Y-83761943D01*
X127931333Y-83665181D01*
X127882952Y-83616800D01*
X127786190Y-83568419D01*
X126818571Y-83568419D02*
X126721810Y-83568419D01*
X126625048Y-83616800D01*
X126576667Y-83665181D01*
X126528286Y-83761943D01*
X126479905Y-83955467D01*
X126479905Y-84197371D01*
X126528286Y-84390895D01*
X126576667Y-84487657D01*
X126625048Y-84536038D01*
X126721810Y-84584419D01*
X126818571Y-84584419D01*
X126915333Y-84536038D01*
X126963714Y-84487657D01*
X127012095Y-84390895D01*
X127060476Y-84197371D01*
X127060476Y-83955467D01*
X127012095Y-83761943D01*
X126963714Y-83665181D01*
X126915333Y-83616800D01*
X126818571Y-83568419D01*
X125850952Y-83568419D02*
X125754191Y-83568419D01*
X125657429Y-83616800D01*
X125609048Y-83665181D01*
X125560667Y-83761943D01*
X125512286Y-83955467D01*
X125512286Y-84197371D01*
X125560667Y-84390895D01*
X125609048Y-84487657D01*
X125657429Y-84536038D01*
X125754191Y-84584419D01*
X125850952Y-84584419D01*
X125947714Y-84536038D01*
X125996095Y-84487657D01*
X126044476Y-84390895D01*
X126092857Y-84197371D01*
X126092857Y-83955467D01*
X126044476Y-83761943D01*
X125996095Y-83665181D01*
X125947714Y-83616800D01*
X125850952Y-83568419D01*
X124544667Y-84584419D02*
X125125238Y-84584419D01*
X124834952Y-84584419D02*
X124834952Y-83568419D01*
X124931714Y-83713562D01*
X125028476Y-83810324D01*
X125125238Y-83858705D01*
X144235714Y-86210019D02*
X144719523Y-86210019D01*
X144719523Y-85194019D01*
X143316476Y-86113257D02*
X143364857Y-86161638D01*
X143510000Y-86210019D01*
X143606762Y-86210019D01*
X143751904Y-86161638D01*
X143848666Y-86064876D01*
X143897047Y-85968114D01*
X143945428Y-85774590D01*
X143945428Y-85629448D01*
X143897047Y-85435924D01*
X143848666Y-85339162D01*
X143751904Y-85242400D01*
X143606762Y-85194019D01*
X143510000Y-85194019D01*
X143364857Y-85242400D01*
X143316476Y-85290781D01*
X142881047Y-86210019D02*
X142881047Y-85194019D01*
X142639142Y-85194019D01*
X142494000Y-85242400D01*
X142397238Y-85339162D01*
X142348857Y-85435924D01*
X142300476Y-85629448D01*
X142300476Y-85774590D01*
X142348857Y-85968114D01*
X142397238Y-86064876D01*
X142494000Y-86161638D01*
X142639142Y-86210019D01*
X142881047Y-86210019D01*
X141865047Y-86113257D02*
X141816666Y-86161638D01*
X141865047Y-86210019D01*
X141913428Y-86161638D01*
X141865047Y-86113257D01*
X141865047Y-86210019D01*
X141865047Y-85581067D02*
X141816666Y-85629448D01*
X141865047Y-85677829D01*
X141913428Y-85629448D01*
X141865047Y-85581067D01*
X141865047Y-85677829D01*
X140123333Y-86210019D02*
X140607142Y-86210019D01*
X140607142Y-85194019D01*
X139784666Y-86210019D02*
X139784666Y-85532686D01*
X139784666Y-85194019D02*
X139833047Y-85242400D01*
X139784666Y-85290781D01*
X139736285Y-85242400D01*
X139784666Y-85194019D01*
X139784666Y-85290781D01*
X139445999Y-85532686D02*
X139058951Y-85532686D01*
X139300856Y-85194019D02*
X139300856Y-86064876D01*
X139252475Y-86161638D01*
X139155713Y-86210019D01*
X139058951Y-86210019D01*
X138333238Y-86161638D02*
X138430000Y-86210019D01*
X138623523Y-86210019D01*
X138720285Y-86161638D01*
X138768666Y-86064876D01*
X138768666Y-85677829D01*
X138720285Y-85581067D01*
X138623523Y-85532686D01*
X138430000Y-85532686D01*
X138333238Y-85581067D01*
X138284857Y-85677829D01*
X138284857Y-85774590D01*
X138768666Y-85871352D01*
X137655904Y-85194019D02*
X137462381Y-85194019D01*
X137365619Y-85242400D01*
X137268857Y-85339162D01*
X137220476Y-85532686D01*
X137220476Y-85871352D01*
X137268857Y-86064876D01*
X137365619Y-86161638D01*
X137462381Y-86210019D01*
X137655904Y-86210019D01*
X137752666Y-86161638D01*
X137849428Y-86064876D01*
X137897809Y-85871352D01*
X137897809Y-85532686D01*
X137849428Y-85339162D01*
X137752666Y-85242400D01*
X137655904Y-85194019D01*
X136785047Y-85532686D02*
X136785047Y-86210019D01*
X136785047Y-85629448D02*
X136736666Y-85581067D01*
X136639904Y-85532686D01*
X136494762Y-85532686D01*
X136398000Y-85581067D01*
X136349619Y-85677829D01*
X136349619Y-86210019D01*
X134607905Y-86210019D02*
X135091714Y-86210019D01*
X135091714Y-85194019D01*
X134414381Y-85194019D02*
X133833810Y-85194019D01*
X134124095Y-86210019D02*
X134124095Y-85194019D01*
X132914572Y-86113257D02*
X132962953Y-86161638D01*
X133108096Y-86210019D01*
X133204858Y-86210019D01*
X133350000Y-86161638D01*
X133446762Y-86064876D01*
X133495143Y-85968114D01*
X133543524Y-85774590D01*
X133543524Y-85629448D01*
X133495143Y-85435924D01*
X133446762Y-85339162D01*
X133350000Y-85242400D01*
X133204858Y-85194019D01*
X133108096Y-85194019D01*
X132962953Y-85242400D01*
X132914572Y-85290781D01*
X132479143Y-85822971D02*
X131705048Y-85822971D01*
X130785810Y-85532686D02*
X130785810Y-86210019D01*
X131027714Y-85145638D02*
X131269619Y-85871352D01*
X130640667Y-85871352D01*
X130350381Y-85194019D02*
X129673048Y-85194019D01*
X130108476Y-86210019D01*
X129334381Y-85290781D02*
X129286000Y-85242400D01*
X129189238Y-85194019D01*
X128947334Y-85194019D01*
X128850572Y-85242400D01*
X128802191Y-85290781D01*
X128753810Y-85387543D01*
X128753810Y-85484305D01*
X128802191Y-85629448D01*
X129382762Y-86210019D01*
X128753810Y-86210019D01*
X128415143Y-85194019D02*
X127737810Y-85194019D01*
X128173238Y-86210019D01*
X127060477Y-85194019D02*
X127060477Y-85919733D01*
X127108857Y-86064876D01*
X127205619Y-86161638D01*
X127350762Y-86210019D01*
X127447524Y-86210019D01*
X125996096Y-86210019D02*
X126334762Y-85726210D01*
X126576667Y-86210019D02*
X126576667Y-85194019D01*
X126189620Y-85194019D01*
X126092858Y-85242400D01*
X126044477Y-85290781D01*
X125996096Y-85387543D01*
X125996096Y-85532686D01*
X126044477Y-85629448D01*
X126092858Y-85677829D01*
X126189620Y-85726210D01*
X126576667Y-85726210D01*
D12*
X154006000Y-90392000D02*
X154006000Y-76392000D01*
X113756000Y-76392000D02*
X113756000Y-90392000D01*
X154006000Y-90392000D02*
X113756000Y-90392000D01*
D13*
X145865210Y-88392000D02*
G75*
G03X145865210Y-88392000I-359210J0D01*
G01*
D12*
X154006000Y-76392000D02*
X113756000Y-76392000D01*
M02*
