G04 #@! TF.FileFunction,Soldermask,Bot*
%FSLAX46Y46*%
G04 Gerber Fmt 4.6, Leading zero omitted, Abs format (unit mm)*
G04 Created by KiCad (PCBNEW 4.0.1-3.201512221402+6198~38~ubuntu14.04.1-stable) date Wed 17 Aug 2016 03:48:48 PM PDT*
%MOMM*%
G01*
G04 APERTURE LIST*
%ADD10C,0.100000*%
%ADD11C,1.879600*%
G04 APERTURE END LIST*
D10*
D11*
X119126000Y-90932000D03*
X121666000Y-90932000D03*
X124206000Y-90932000D03*
X126746000Y-90932000D03*
X129286000Y-90932000D03*
X131826000Y-90932000D03*
X134366000Y-90932000D03*
X136906000Y-90932000D03*
X139446000Y-90932000D03*
X141986000Y-90932000D03*
X144526000Y-90932000D03*
X147066000Y-90932000D03*
X149606000Y-90932000D03*
X152146000Y-90932000D03*
X152146000Y-75692000D03*
X144526000Y-75692000D03*
X124206000Y-75692000D03*
X139446000Y-75692000D03*
X141986000Y-75692000D03*
X121666000Y-75692000D03*
X129286000Y-75692000D03*
X119126000Y-75692000D03*
X131826000Y-75692000D03*
X134366000Y-75692000D03*
X136906000Y-75692000D03*
X126746000Y-75692000D03*
X149606000Y-75692000D03*
X147066000Y-75692000D03*
X143256000Y-88392000D03*
X140716000Y-88392000D03*
X138176000Y-88392000D03*
X135636000Y-88392000D03*
X133096000Y-88392000D03*
X130556000Y-88392000D03*
X128016000Y-88392000D03*
X125476000Y-88392000D03*
X125476000Y-78232000D03*
X128016000Y-78232000D03*
X130556000Y-78232000D03*
X133096000Y-78232000D03*
X135636000Y-78232000D03*
X138176000Y-78232000D03*
X140716000Y-78232000D03*
X143256000Y-78232000D03*
M02*
