G04 #@! TF.FileFunction,Other,Fab,Top*
%FSLAX46Y46*%
G04 Gerber Fmt 4.6, Leading zero omitted, Abs format (unit mm)*
G04 Created by KiCad (PCBNEW 4.0.1-3.201512221402+6198~38~ubuntu14.04.1-stable) date Wed 17 Aug 2016 03:48:48 PM PDT*
%MOMM*%
G01*
G04 APERTURE LIST*
%ADD10C,0.100000*%
%ADD11C,0.050000*%
%ADD12C,0.150000*%
G04 APERTURE END LIST*
D10*
D11*
X119786000Y-80772000D02*
X117786000Y-80772000D01*
X119786000Y-85272000D02*
X119786000Y-80772000D01*
X117786000Y-85272000D02*
X119786000Y-85272000D01*
X153286000Y-92272000D02*
X153286000Y-74272000D01*
X117786000Y-92272000D02*
X153286000Y-92272000D01*
X117786000Y-74272000D02*
X117786000Y-92272000D01*
X153286000Y-74272000D02*
X117786000Y-74272000D01*
X153396000Y-89179400D02*
X153396000Y-77495400D01*
X147833400Y-89179400D02*
X153396000Y-89179400D01*
X147833400Y-77495400D02*
X153396000Y-77495400D01*
X147833400Y-89179400D02*
X147833400Y-77495400D01*
X122186000Y-89346000D02*
X122186000Y-86446000D01*
X122186000Y-89346000D02*
X123686000Y-89346000D01*
X122186000Y-86446000D02*
X123686000Y-86446000D01*
X123686000Y-89346000D02*
X123686000Y-86446000D01*
X132272000Y-86602000D02*
X129372000Y-86602000D01*
X132272000Y-86602000D02*
X132272000Y-85102000D01*
X129372000Y-86602000D02*
X129372000Y-85102000D01*
X132272000Y-85102000D02*
X129372000Y-85102000D01*
X142662000Y-86602000D02*
X139762000Y-86602000D01*
X142662000Y-86602000D02*
X142662000Y-85102000D01*
X139762000Y-86602000D02*
X139762000Y-85102000D01*
X142662000Y-85102000D02*
X139762000Y-85102000D01*
X145964000Y-86602000D02*
X143064000Y-86602000D01*
X145964000Y-86602000D02*
X145964000Y-85102000D01*
X143064000Y-86602000D02*
X143064000Y-85102000D01*
X145964000Y-85102000D02*
X143064000Y-85102000D01*
D12*
X128738381Y-83105333D02*
X129452667Y-83105333D01*
X129595524Y-83152953D01*
X129690762Y-83248191D01*
X129738381Y-83391048D01*
X129738381Y-83486286D01*
X129738381Y-82105333D02*
X129738381Y-82676762D01*
X129738381Y-82391048D02*
X128738381Y-82391048D01*
X128881238Y-82486286D01*
X128976476Y-82581524D01*
X129024095Y-82676762D01*
X150510381Y-83416733D02*
X151224667Y-83416733D01*
X151367524Y-83464353D01*
X151462762Y-83559591D01*
X151510381Y-83702448D01*
X151510381Y-83797686D01*
X150510381Y-83035781D02*
X150510381Y-82416733D01*
X150891333Y-82750067D01*
X150891333Y-82607209D01*
X150938952Y-82511971D01*
X150986571Y-82464352D01*
X151081810Y-82416733D01*
X151319905Y-82416733D01*
X151415143Y-82464352D01*
X151462762Y-82511971D01*
X151510381Y-82607209D01*
X151510381Y-82892924D01*
X151462762Y-82988162D01*
X151415143Y-83035781D01*
X123337905Y-87939333D02*
X122956952Y-88206000D01*
X123337905Y-88396476D02*
X122537905Y-88396476D01*
X122537905Y-88091714D01*
X122576000Y-88015523D01*
X122614095Y-87977428D01*
X122690286Y-87939333D01*
X122804571Y-87939333D01*
X122880762Y-87977428D01*
X122918857Y-88015523D01*
X122956952Y-88091714D01*
X122956952Y-88396476D01*
X123337905Y-87177428D02*
X123337905Y-87634571D01*
X123337905Y-87406000D02*
X122537905Y-87406000D01*
X122652190Y-87482190D01*
X122728381Y-87558381D01*
X122766476Y-87634571D01*
X130598667Y-86173905D02*
X130332000Y-85792952D01*
X130141524Y-86173905D02*
X130141524Y-85373905D01*
X130446286Y-85373905D01*
X130522477Y-85412000D01*
X130560572Y-85450095D01*
X130598667Y-85526286D01*
X130598667Y-85640571D01*
X130560572Y-85716762D01*
X130522477Y-85754857D01*
X130446286Y-85792952D01*
X130141524Y-85792952D01*
X130903429Y-85450095D02*
X130941524Y-85412000D01*
X131017715Y-85373905D01*
X131208191Y-85373905D01*
X131284381Y-85412000D01*
X131322477Y-85450095D01*
X131360572Y-85526286D01*
X131360572Y-85602476D01*
X131322477Y-85716762D01*
X130865334Y-86173905D01*
X131360572Y-86173905D01*
X140988667Y-86173905D02*
X140722000Y-85792952D01*
X140531524Y-86173905D02*
X140531524Y-85373905D01*
X140836286Y-85373905D01*
X140912477Y-85412000D01*
X140950572Y-85450095D01*
X140988667Y-85526286D01*
X140988667Y-85640571D01*
X140950572Y-85716762D01*
X140912477Y-85754857D01*
X140836286Y-85792952D01*
X140531524Y-85792952D01*
X141255334Y-85373905D02*
X141750572Y-85373905D01*
X141483905Y-85678667D01*
X141598191Y-85678667D01*
X141674381Y-85716762D01*
X141712477Y-85754857D01*
X141750572Y-85831048D01*
X141750572Y-86021524D01*
X141712477Y-86097714D01*
X141674381Y-86135810D01*
X141598191Y-86173905D01*
X141369619Y-86173905D01*
X141293429Y-86135810D01*
X141255334Y-86097714D01*
X144290667Y-86173905D02*
X144024000Y-85792952D01*
X143833524Y-86173905D02*
X143833524Y-85373905D01*
X144138286Y-85373905D01*
X144214477Y-85412000D01*
X144252572Y-85450095D01*
X144290667Y-85526286D01*
X144290667Y-85640571D01*
X144252572Y-85716762D01*
X144214477Y-85754857D01*
X144138286Y-85792952D01*
X143833524Y-85792952D01*
X144976381Y-85640571D02*
X144976381Y-86173905D01*
X144785905Y-85335810D02*
X144595429Y-85907238D01*
X145090667Y-85907238D01*
M02*
