G04 #@! TF.FileFunction,Legend,Top*
%FSLAX46Y46*%
G04 Gerber Fmt 4.6, Leading zero omitted, Abs format (unit mm)*
G04 Created by KiCad (PCBNEW 4.0.3+e1-6302~38~ubuntu14.04.1-stable) date Mon Aug 29 18:07:44 2016*
%MOMM*%
%LPD*%
G01*
G04 APERTURE LIST*
%ADD10C,0.100000*%
%ADD11C,0.200000*%
%ADD12C,0.203200*%
%ADD13C,0.050000*%
%ADD14C,0.150000*%
G04 APERTURE END LIST*
D10*
D11*
X119634000Y-85344000D02*
X117856000Y-85344000D01*
X119634000Y-80772000D02*
X119634000Y-85344000D01*
X117856000Y-80772000D02*
X119634000Y-80772000D01*
D12*
X120347619Y-86819618D02*
X120347619Y-86239047D01*
X121363619Y-86529332D02*
X120347619Y-86529332D01*
X121315238Y-85513333D02*
X121363619Y-85610095D01*
X121363619Y-85803618D01*
X121315238Y-85900380D01*
X121218476Y-85948761D01*
X120831429Y-85948761D01*
X120734667Y-85900380D01*
X120686286Y-85803618D01*
X120686286Y-85610095D01*
X120734667Y-85513333D01*
X120831429Y-85464952D01*
X120928190Y-85464952D01*
X121024952Y-85948761D01*
X121315238Y-84642476D02*
X121363619Y-84739238D01*
X121363619Y-84932761D01*
X121315238Y-85029523D01*
X121218476Y-85077904D01*
X120831429Y-85077904D01*
X120734667Y-85029523D01*
X120686286Y-84932761D01*
X120686286Y-84739238D01*
X120734667Y-84642476D01*
X120831429Y-84594095D01*
X120928190Y-84594095D01*
X121024952Y-85077904D01*
X120686286Y-84158666D02*
X121363619Y-84158666D01*
X120783048Y-84158666D02*
X120734667Y-84110285D01*
X120686286Y-84013523D01*
X120686286Y-83868381D01*
X120734667Y-83771619D01*
X120831429Y-83723238D01*
X121363619Y-83723238D01*
X121315238Y-83287809D02*
X121363619Y-83191047D01*
X121363619Y-82997523D01*
X121315238Y-82900762D01*
X121218476Y-82852381D01*
X121170095Y-82852381D01*
X121073333Y-82900762D01*
X121024952Y-82997523D01*
X121024952Y-83142666D01*
X120976571Y-83239428D01*
X120879810Y-83287809D01*
X120831429Y-83287809D01*
X120734667Y-83239428D01*
X120686286Y-83142666D01*
X120686286Y-82997523D01*
X120734667Y-82900762D01*
X120686286Y-82513714D02*
X121363619Y-82271809D01*
X120686286Y-82029905D02*
X121363619Y-82271809D01*
X121605524Y-82368571D01*
X121653905Y-82416952D01*
X121702286Y-82513714D01*
X120347619Y-80965524D02*
X120347619Y-80336572D01*
X120734667Y-80675238D01*
X120734667Y-80530096D01*
X120783048Y-80433334D01*
X120831429Y-80384953D01*
X120928190Y-80336572D01*
X121170095Y-80336572D01*
X121266857Y-80384953D01*
X121315238Y-80433334D01*
X121363619Y-80530096D01*
X121363619Y-80820381D01*
X121315238Y-80917143D01*
X121266857Y-80965524D01*
X121266857Y-79901143D02*
X121315238Y-79852762D01*
X121363619Y-79901143D01*
X121315238Y-79949524D01*
X121266857Y-79901143D01*
X121363619Y-79901143D01*
X120444381Y-79465714D02*
X120396000Y-79417333D01*
X120347619Y-79320571D01*
X120347619Y-79078667D01*
X120396000Y-78981905D01*
X120444381Y-78933524D01*
X120541143Y-78885143D01*
X120637905Y-78885143D01*
X120783048Y-78933524D01*
X121363619Y-79514095D01*
X121363619Y-78885143D01*
D13*
X147808000Y-89333400D02*
X147808000Y-77333400D01*
X153558000Y-89333400D02*
X147808000Y-89333400D01*
X153558000Y-77333400D02*
X153558000Y-89333400D01*
X147808000Y-77333400D02*
X153558000Y-77333400D01*
D14*
X122336000Y-88246000D02*
X122336000Y-87546000D01*
X123536000Y-87546000D02*
X123536000Y-88246000D01*
X130472000Y-85252000D02*
X131172000Y-85252000D01*
X131172000Y-86452000D02*
X130472000Y-86452000D01*
X140862000Y-85252000D02*
X141562000Y-85252000D01*
X141562000Y-86452000D02*
X140862000Y-86452000D01*
X144164000Y-85252000D02*
X144864000Y-85252000D01*
X144864000Y-86452000D02*
X144164000Y-86452000D01*
X146136081Y-78311333D02*
X146850367Y-78311333D01*
X146993224Y-78358953D01*
X147088462Y-78454191D01*
X147136081Y-78597048D01*
X147136081Y-78692286D01*
X146136081Y-77930381D02*
X146136081Y-77311333D01*
X146517033Y-77644667D01*
X146517033Y-77501809D01*
X146564652Y-77406571D01*
X146612271Y-77358952D01*
X146707510Y-77311333D01*
X146945605Y-77311333D01*
X147040843Y-77358952D01*
X147088462Y-77406571D01*
X147136081Y-77501809D01*
X147136081Y-77787524D01*
X147088462Y-77882762D01*
X147040843Y-77930381D01*
X123023334Y-86050381D02*
X122690000Y-85574190D01*
X122451905Y-86050381D02*
X122451905Y-85050381D01*
X122832858Y-85050381D01*
X122928096Y-85098000D01*
X122975715Y-85145619D01*
X123023334Y-85240857D01*
X123023334Y-85383714D01*
X122975715Y-85478952D01*
X122928096Y-85526571D01*
X122832858Y-85574190D01*
X122451905Y-85574190D01*
X123975715Y-86050381D02*
X123404286Y-86050381D01*
X123690000Y-86050381D02*
X123690000Y-85050381D01*
X123594762Y-85193238D01*
X123499524Y-85288476D01*
X123404286Y-85336095D01*
X130667334Y-84780381D02*
X130334000Y-84304190D01*
X130095905Y-84780381D02*
X130095905Y-83780381D01*
X130476858Y-83780381D01*
X130572096Y-83828000D01*
X130619715Y-83875619D01*
X130667334Y-83970857D01*
X130667334Y-84113714D01*
X130619715Y-84208952D01*
X130572096Y-84256571D01*
X130476858Y-84304190D01*
X130095905Y-84304190D01*
X131048286Y-83875619D02*
X131095905Y-83828000D01*
X131191143Y-83780381D01*
X131429239Y-83780381D01*
X131524477Y-83828000D01*
X131572096Y-83875619D01*
X131619715Y-83970857D01*
X131619715Y-84066095D01*
X131572096Y-84208952D01*
X131000667Y-84780381D01*
X131619715Y-84780381D01*
X141057334Y-84780381D02*
X140724000Y-84304190D01*
X140485905Y-84780381D02*
X140485905Y-83780381D01*
X140866858Y-83780381D01*
X140962096Y-83828000D01*
X141009715Y-83875619D01*
X141057334Y-83970857D01*
X141057334Y-84113714D01*
X141009715Y-84208952D01*
X140962096Y-84256571D01*
X140866858Y-84304190D01*
X140485905Y-84304190D01*
X141390667Y-83780381D02*
X142009715Y-83780381D01*
X141676381Y-84161333D01*
X141819239Y-84161333D01*
X141914477Y-84208952D01*
X141962096Y-84256571D01*
X142009715Y-84351810D01*
X142009715Y-84589905D01*
X141962096Y-84685143D01*
X141914477Y-84732762D01*
X141819239Y-84780381D01*
X141533524Y-84780381D01*
X141438286Y-84732762D01*
X141390667Y-84685143D01*
X144335334Y-84780381D02*
X144002000Y-84304190D01*
X143763905Y-84780381D02*
X143763905Y-83780381D01*
X144144858Y-83780381D01*
X144240096Y-83828000D01*
X144287715Y-83875619D01*
X144335334Y-83970857D01*
X144335334Y-84113714D01*
X144287715Y-84208952D01*
X144240096Y-84256571D01*
X144144858Y-84304190D01*
X143763905Y-84304190D01*
X145192477Y-84113714D02*
X145192477Y-84780381D01*
X144954381Y-83732762D02*
X144716286Y-84447048D01*
X145335334Y-84447048D01*
M02*
