G04 #@! TF.FileFunction,Other,Fab,Bot*
%FSLAX46Y46*%
G04 Gerber Fmt 4.6, Leading zero omitted, Abs format (unit mm)*
G04 Created by KiCad (PCBNEW 4.0.3+e1-6302~38~ubuntu14.04.1-stable) date Mon Aug 29 18:07:44 2016*
%MOMM*%
%LPD*%
G01*
G04 APERTURE LIST*
%ADD10C,0.100000*%
%ADD11C,0.200000*%
%ADD12C,0.400000*%
%ADD13C,0.050000*%
%ADD14C,0.150000*%
G04 APERTURE END LIST*
D10*
D11*
X116296000Y-76392000D02*
X156546000Y-76392000D01*
X116296000Y-90392000D02*
X116296000Y-76392000D01*
X156546000Y-90392000D02*
X116296000Y-90392000D01*
X156546000Y-76392000D02*
X156546000Y-90392000D01*
D12*
X146155210Y-88392000D02*
G75*
G03X146155210Y-88392000I-359210J0D01*
G01*
D13*
X156546000Y-76392000D02*
X116296000Y-76392000D01*
X116296000Y-90392000D02*
X116296000Y-76392000D01*
X156546000Y-90392000D02*
X116296000Y-90392000D01*
X156546000Y-90392000D02*
X156546000Y-76392000D01*
D14*
X138120381Y-83208953D02*
X138120381Y-82732762D01*
X137120381Y-82732762D01*
X137596571Y-83542286D02*
X137596571Y-83875620D01*
X138120381Y-84018477D02*
X138120381Y-83542286D01*
X137120381Y-83542286D01*
X137120381Y-84018477D01*
X138120381Y-84447048D02*
X137120381Y-84447048D01*
X137120381Y-84685143D01*
X137168000Y-84828001D01*
X137263238Y-84923239D01*
X137358476Y-84970858D01*
X137548952Y-85018477D01*
X137691810Y-85018477D01*
X137882286Y-84970858D01*
X137977524Y-84923239D01*
X138072762Y-84828001D01*
X138120381Y-84685143D01*
X138120381Y-84447048D01*
X138120381Y-85970858D02*
X138120381Y-85399429D01*
X138120381Y-85685143D02*
X137120381Y-85685143D01*
X137263238Y-85589905D01*
X137358476Y-85494667D01*
X137406095Y-85399429D01*
M02*
