G04 #@! TF.FileFunction,Copper,L1,Top,Signal*
%FSLAX46Y46*%
G04 Gerber Fmt 4.6, Leading zero omitted, Abs format (unit mm)*
G04 Created by KiCad (PCBNEW 4.0.3+e1-6302~38~ubuntu14.04.1-stable) date Mon Aug 29 18:07:44 2016*
%MOMM*%
%LPD*%
G01*
G04 APERTURE LIST*
%ADD10C,0.100000*%
%ADD11C,1.727200*%
%ADD12R,0.900000X1.400000*%
%ADD13R,1.150000X1.200000*%
%ADD14R,1.200000X1.450000*%
%ADD15R,1.000000X0.700000*%
%ADD16R,0.700000X1.000000*%
%ADD17R,0.750000X0.800000*%
%ADD18R,0.800000X0.750000*%
%ADD19C,0.762000*%
%ADD20C,0.250000*%
%ADD21C,0.254000*%
G04 APERTURE END LIST*
D10*
D11*
X119126000Y-90932000D03*
X121666000Y-90932000D03*
X124206000Y-90932000D03*
X126746000Y-90932000D03*
X129286000Y-90932000D03*
X131826000Y-90932000D03*
X134366000Y-90932000D03*
X136906000Y-90932000D03*
X139446000Y-90932000D03*
X141986000Y-90932000D03*
X144526000Y-90932000D03*
X147066000Y-90932000D03*
X149606000Y-90932000D03*
X152146000Y-90932000D03*
X152146000Y-75692000D03*
X144526000Y-75692000D03*
X124206000Y-75692000D03*
X139446000Y-75692000D03*
X141986000Y-75692000D03*
X121666000Y-75692000D03*
X129286000Y-75692000D03*
X119126000Y-75692000D03*
X131826000Y-75692000D03*
X134366000Y-75692000D03*
X136906000Y-75692000D03*
X126746000Y-75692000D03*
X149606000Y-75692000D03*
X147066000Y-75692000D03*
D12*
X152908000Y-78232000D03*
D13*
X152771500Y-88496900D03*
D14*
X150608000Y-78257000D03*
D13*
X150171500Y-88496900D03*
D15*
X149131500Y-85896900D03*
X149131500Y-86996900D03*
X149131500Y-84796900D03*
X149131500Y-83696900D03*
X149131500Y-82596900D03*
X149131500Y-79296900D03*
X149131500Y-80396900D03*
X149131500Y-81496900D03*
D16*
X151758000Y-78032000D03*
D17*
X122936000Y-88646000D03*
X122936000Y-87146000D03*
D18*
X130072000Y-85852000D03*
X131572000Y-85852000D03*
X140462000Y-85852000D03*
X141962000Y-85852000D03*
X143764000Y-85852000D03*
X145264000Y-85852000D03*
D11*
X145796000Y-88392000D03*
X143256000Y-88392000D03*
X140716000Y-88392000D03*
X138176000Y-88392000D03*
X135636000Y-88392000D03*
X133096000Y-88392000D03*
X130556000Y-88392000D03*
X128016000Y-88392000D03*
X128016000Y-78232000D03*
X130556000Y-78232000D03*
X133096000Y-78232000D03*
X135636000Y-78232000D03*
X138176000Y-78232000D03*
X140716000Y-78232000D03*
X143256000Y-78232000D03*
X145796000Y-78232000D03*
D19*
X150622000Y-84836000D03*
X123444000Y-83058000D03*
X147828000Y-83058000D03*
D20*
X149131500Y-84796900D02*
X150582900Y-84796900D01*
X150582900Y-84796900D02*
X150622000Y-84836000D01*
X147066000Y-89710686D02*
X147066000Y-90932000D01*
X146984601Y-89629287D02*
X147066000Y-89710686D01*
X146984601Y-87821471D02*
X146984601Y-89629287D01*
X149131500Y-80396900D02*
X148381500Y-80396900D01*
X146202401Y-82575999D02*
X146202401Y-87039271D01*
X146202401Y-87039271D02*
X146984601Y-87821471D01*
X148381500Y-80396900D02*
X146202401Y-82575999D01*
X147434612Y-88760612D02*
X148742401Y-90068401D01*
X149131500Y-81496900D02*
X148381500Y-81496900D01*
X147434612Y-87635071D02*
X147434612Y-88760612D01*
X147121998Y-87322457D02*
X147434612Y-87635071D01*
X147121998Y-82756402D02*
X147121998Y-87322457D01*
X148381500Y-81496900D02*
X147121998Y-82756402D01*
X148742401Y-90068401D02*
X149606000Y-90932000D01*
X152146000Y-90932000D02*
X150957399Y-89743399D01*
X150957399Y-89743399D02*
X149433399Y-89743399D01*
X149433399Y-89743399D02*
X148082000Y-88392000D01*
X148082000Y-88392000D02*
X148082000Y-86196400D01*
X148082000Y-86196400D02*
X148381500Y-85896900D01*
X148381500Y-85896900D02*
X149131500Y-85896900D01*
X124206000Y-75692000D02*
X123342401Y-76555599D01*
X123342401Y-76555599D02*
X123342401Y-82956401D01*
X123342401Y-82956401D02*
X123444000Y-83058000D01*
X149131500Y-82596900D02*
X148289100Y-82596900D01*
X148289100Y-82596900D02*
X147828000Y-83058000D01*
X153924000Y-79654400D02*
X153924000Y-77470000D01*
X153924000Y-77470000D02*
X152146000Y-75692000D01*
X149131500Y-83696900D02*
X149881500Y-83696900D01*
X149881500Y-83696900D02*
X153924000Y-79654400D01*
X145264000Y-85852000D02*
X145264000Y-87860000D01*
X145264000Y-87860000D02*
X145796000Y-88392000D01*
X143256000Y-88392000D02*
X143256000Y-87121000D01*
X143256000Y-87121000D02*
X141987000Y-85852000D01*
X141987000Y-85852000D02*
X141962000Y-85852000D01*
X131572000Y-85852000D02*
X132222000Y-85852000D01*
X132222000Y-85852000D02*
X133096000Y-86726000D01*
X133096000Y-86726000D02*
X133096000Y-87170686D01*
X133096000Y-87170686D02*
X133096000Y-88392000D01*
X125476000Y-88392000D02*
X128016000Y-88392000D01*
X125476000Y-88392000D02*
X124230000Y-87146000D01*
X124230000Y-87146000D02*
X122936000Y-87146000D01*
X126746000Y-90932000D02*
X125681001Y-89867001D01*
X124782001Y-89867001D02*
X123561000Y-88646000D01*
X125681001Y-89867001D02*
X124782001Y-89867001D01*
X123561000Y-88646000D02*
X122936000Y-88646000D01*
X130556000Y-88392000D02*
X129286000Y-89662000D01*
X129286000Y-90932000D02*
X129286000Y-89662000D01*
X130072000Y-85852000D02*
X130097000Y-85852000D01*
X130097000Y-85852000D02*
X131826000Y-87581000D01*
X131826000Y-87581000D02*
X131826000Y-89710686D01*
X131826000Y-89710686D02*
X131826000Y-90932000D01*
X135636000Y-88392000D02*
X134366000Y-89662000D01*
X134366000Y-89662000D02*
X134366000Y-90932000D01*
X138176000Y-88392000D02*
X136906000Y-89662000D01*
X136906000Y-89662000D02*
X136906000Y-90932000D01*
X139446000Y-89662000D02*
X140716000Y-88392000D01*
X139446000Y-89662000D02*
X139446000Y-90932000D01*
X140462000Y-85852000D02*
X140487000Y-85852000D01*
X140487000Y-85852000D02*
X141986000Y-87351000D01*
X141986000Y-87351000D02*
X141986000Y-89710686D01*
X141986000Y-89710686D02*
X141986000Y-90932000D01*
X141962000Y-90908000D02*
X141986000Y-90932000D01*
X143764000Y-85852000D02*
X143764000Y-86477000D01*
X143764000Y-86477000D02*
X144526000Y-87239000D01*
X144526000Y-87239000D02*
X144526000Y-89710686D01*
X144526000Y-89710686D02*
X144526000Y-90932000D01*
X144526000Y-76962000D02*
X145796000Y-78232000D01*
X144526000Y-76962000D02*
X144526000Y-75692000D01*
X139446000Y-76962000D02*
X140716000Y-78232000D01*
X139446000Y-76962000D02*
X139446000Y-75692000D01*
X141986000Y-76962000D02*
X143256000Y-78232000D01*
X141986000Y-76962000D02*
X141986000Y-75692000D01*
X131826000Y-76962000D02*
X133096000Y-78232000D01*
X131826000Y-76962000D02*
X131826000Y-75692000D01*
X136906000Y-76962000D02*
X138176000Y-78232000D01*
X136906000Y-76962000D02*
X136906000Y-75692000D01*
D21*
G36*
X154230000Y-91492000D02*
X153536127Y-91492000D01*
X153644339Y-91231398D01*
X153644859Y-90635218D01*
X153417192Y-90084220D01*
X153077904Y-89744340D01*
X153346500Y-89744340D01*
X153581817Y-89700062D01*
X153797941Y-89560990D01*
X153942931Y-89348790D01*
X153993940Y-89096900D01*
X153993940Y-87896900D01*
X153949662Y-87661583D01*
X153810590Y-87445459D01*
X153598390Y-87300469D01*
X153346500Y-87249460D01*
X152196500Y-87249460D01*
X151961183Y-87293738D01*
X151745059Y-87432810D01*
X151600069Y-87645010D01*
X151549060Y-87896900D01*
X151549060Y-89096900D01*
X151586922Y-89298120D01*
X151494800Y-89205998D01*
X151386501Y-89133635D01*
X151393940Y-89096900D01*
X151393940Y-87896900D01*
X151349662Y-87661583D01*
X151210590Y-87445459D01*
X150998390Y-87300469D01*
X150746500Y-87249460D01*
X150278940Y-87249460D01*
X150278940Y-86646900D01*
X150239926Y-86439558D01*
X150278940Y-86246900D01*
X150278940Y-85546900D01*
X150239642Y-85338050D01*
X150266500Y-85273209D01*
X150266500Y-85082650D01*
X150107750Y-84923900D01*
X149752188Y-84923900D01*
X149631500Y-84899460D01*
X148631500Y-84899460D01*
X148501613Y-84923900D01*
X148155250Y-84923900D01*
X147996500Y-85082650D01*
X147996500Y-85257668D01*
X147881998Y-85334176D01*
X147881998Y-84074048D01*
X147989186Y-84074141D01*
X148023358Y-84255750D01*
X147996500Y-84320591D01*
X147996500Y-84511150D01*
X148155250Y-84669900D01*
X148510812Y-84669900D01*
X148631500Y-84694340D01*
X149631500Y-84694340D01*
X149761387Y-84669900D01*
X150107750Y-84669900D01*
X150266500Y-84511150D01*
X150266500Y-84336132D01*
X150418901Y-84234301D01*
X154230000Y-80423202D01*
X154230000Y-91492000D01*
X154230000Y-91492000D01*
G37*
X154230000Y-91492000D02*
X153536127Y-91492000D01*
X153644339Y-91231398D01*
X153644859Y-90635218D01*
X153417192Y-90084220D01*
X153077904Y-89744340D01*
X153346500Y-89744340D01*
X153581817Y-89700062D01*
X153797941Y-89560990D01*
X153942931Y-89348790D01*
X153993940Y-89096900D01*
X153993940Y-87896900D01*
X153949662Y-87661583D01*
X153810590Y-87445459D01*
X153598390Y-87300469D01*
X153346500Y-87249460D01*
X152196500Y-87249460D01*
X151961183Y-87293738D01*
X151745059Y-87432810D01*
X151600069Y-87645010D01*
X151549060Y-87896900D01*
X151549060Y-89096900D01*
X151586922Y-89298120D01*
X151494800Y-89205998D01*
X151386501Y-89133635D01*
X151393940Y-89096900D01*
X151393940Y-87896900D01*
X151349662Y-87661583D01*
X151210590Y-87445459D01*
X150998390Y-87300469D01*
X150746500Y-87249460D01*
X150278940Y-87249460D01*
X150278940Y-86646900D01*
X150239926Y-86439558D01*
X150278940Y-86246900D01*
X150278940Y-85546900D01*
X150239642Y-85338050D01*
X150266500Y-85273209D01*
X150266500Y-85082650D01*
X150107750Y-84923900D01*
X149752188Y-84923900D01*
X149631500Y-84899460D01*
X148631500Y-84899460D01*
X148501613Y-84923900D01*
X148155250Y-84923900D01*
X147996500Y-85082650D01*
X147996500Y-85257668D01*
X147881998Y-85334176D01*
X147881998Y-84074048D01*
X147989186Y-84074141D01*
X148023358Y-84255750D01*
X147996500Y-84320591D01*
X147996500Y-84511150D01*
X148155250Y-84669900D01*
X148510812Y-84669900D01*
X148631500Y-84694340D01*
X149631500Y-84694340D01*
X149761387Y-84669900D01*
X150107750Y-84669900D01*
X150266500Y-84511150D01*
X150266500Y-84336132D01*
X150418901Y-84234301D01*
X154230000Y-80423202D01*
X154230000Y-91492000D01*
G36*
X121859748Y-75677858D02*
X121845605Y-75692000D01*
X121859748Y-75706143D01*
X121680143Y-75885748D01*
X121666000Y-75871605D01*
X120791800Y-76745805D01*
X120873741Y-76998516D01*
X121434030Y-77202248D01*
X122029635Y-77176058D01*
X122458259Y-76998516D01*
X122540199Y-76745807D01*
X122582401Y-76788009D01*
X122582401Y-82483605D01*
X122428176Y-82855018D01*
X122427824Y-83259208D01*
X122582175Y-83632766D01*
X122867731Y-83918821D01*
X123241018Y-84073824D01*
X123645208Y-84074176D01*
X124018766Y-83919825D01*
X124304821Y-83634269D01*
X124459824Y-83260982D01*
X124460176Y-82856792D01*
X124305825Y-82483234D01*
X124102401Y-82279455D01*
X124102401Y-77190510D01*
X124502782Y-77190859D01*
X125053780Y-76963192D01*
X125475710Y-76541997D01*
X125476095Y-76541069D01*
X125896003Y-76961710D01*
X126446602Y-77190339D01*
X126937859Y-77190767D01*
X126746290Y-77382003D01*
X126517661Y-77932602D01*
X126517141Y-78528782D01*
X126744808Y-79079780D01*
X127166003Y-79501710D01*
X127716602Y-79730339D01*
X128312782Y-79730859D01*
X128863780Y-79503192D01*
X129285710Y-79081997D01*
X129286095Y-79081069D01*
X129706003Y-79501710D01*
X130256602Y-79730339D01*
X130852782Y-79730859D01*
X131403780Y-79503192D01*
X131825710Y-79081997D01*
X131826095Y-79081069D01*
X132246003Y-79501710D01*
X132796602Y-79730339D01*
X133392782Y-79730859D01*
X133943780Y-79503192D01*
X134365710Y-79081997D01*
X134366095Y-79081069D01*
X134786003Y-79501710D01*
X135336602Y-79730339D01*
X135932782Y-79730859D01*
X136483780Y-79503192D01*
X136905710Y-79081997D01*
X136906095Y-79081069D01*
X137326003Y-79501710D01*
X137876602Y-79730339D01*
X138472782Y-79730859D01*
X139023780Y-79503192D01*
X139445710Y-79081997D01*
X139446095Y-79081069D01*
X139866003Y-79501710D01*
X140416602Y-79730339D01*
X141012782Y-79730859D01*
X141563780Y-79503192D01*
X141985710Y-79081997D01*
X141986095Y-79081069D01*
X142406003Y-79501710D01*
X142956602Y-79730339D01*
X143552782Y-79730859D01*
X144103780Y-79503192D01*
X144525710Y-79081997D01*
X144526095Y-79081069D01*
X144946003Y-79501710D01*
X145496602Y-79730339D01*
X146092782Y-79730859D01*
X146643780Y-79503192D01*
X147065710Y-79081997D01*
X147294339Y-78531398D01*
X147294859Y-77935218D01*
X147067192Y-77384220D01*
X146873742Y-77190432D01*
X147362782Y-77190859D01*
X147913780Y-76963192D01*
X148335710Y-76541997D01*
X148336095Y-76541069D01*
X148756003Y-76961710D01*
X149306602Y-77190339D01*
X149472808Y-77190484D01*
X149411569Y-77280110D01*
X149360560Y-77532000D01*
X149360560Y-78299460D01*
X148631500Y-78299460D01*
X148396183Y-78343738D01*
X148180059Y-78482810D01*
X148035069Y-78695010D01*
X147984060Y-78946900D01*
X147984060Y-79646900D01*
X148003964Y-79752680D01*
X147844099Y-79859499D01*
X145665000Y-82038598D01*
X145500253Y-82285160D01*
X145442401Y-82575999D01*
X145442401Y-84829560D01*
X144864000Y-84829560D01*
X144628683Y-84873838D01*
X144514022Y-84947620D01*
X144415890Y-84880569D01*
X144164000Y-84829560D01*
X143364000Y-84829560D01*
X143128683Y-84873838D01*
X142912559Y-85012910D01*
X142863836Y-85084218D01*
X142826090Y-85025559D01*
X142613890Y-84880569D01*
X142362000Y-84829560D01*
X141562000Y-84829560D01*
X141326683Y-84873838D01*
X141212022Y-84947620D01*
X141113890Y-84880569D01*
X140862000Y-84829560D01*
X140062000Y-84829560D01*
X139826683Y-84873838D01*
X139610559Y-85012910D01*
X139465569Y-85225110D01*
X139414560Y-85477000D01*
X139414560Y-86227000D01*
X139458838Y-86462317D01*
X139597910Y-86678441D01*
X139810110Y-86823431D01*
X140062000Y-86874440D01*
X140434638Y-86874440D01*
X140453369Y-86893171D01*
X140419218Y-86893141D01*
X139868220Y-87120808D01*
X139446290Y-87542003D01*
X139445905Y-87542931D01*
X139025997Y-87122290D01*
X138475398Y-86893661D01*
X137879218Y-86893141D01*
X137328220Y-87120808D01*
X136906290Y-87542003D01*
X136905905Y-87542931D01*
X136485997Y-87122290D01*
X135935398Y-86893661D01*
X135339218Y-86893141D01*
X134788220Y-87120808D01*
X134366290Y-87542003D01*
X134365905Y-87542931D01*
X133945997Y-87122290D01*
X133856000Y-87084920D01*
X133856000Y-86726000D01*
X133798148Y-86435161D01*
X133633401Y-86188599D01*
X132759401Y-85314599D01*
X132518508Y-85153640D01*
X132436090Y-85025559D01*
X132223890Y-84880569D01*
X131972000Y-84829560D01*
X131172000Y-84829560D01*
X130936683Y-84873838D01*
X130822022Y-84947620D01*
X130723890Y-84880569D01*
X130472000Y-84829560D01*
X129672000Y-84829560D01*
X129436683Y-84873838D01*
X129220559Y-85012910D01*
X129075569Y-85225110D01*
X129024560Y-85477000D01*
X129024560Y-86227000D01*
X129068838Y-86462317D01*
X129207910Y-86678441D01*
X129420110Y-86823431D01*
X129672000Y-86874440D01*
X130044638Y-86874440D01*
X130120610Y-86950412D01*
X129708220Y-87120808D01*
X129286290Y-87542003D01*
X129285905Y-87542931D01*
X128865997Y-87122290D01*
X128315398Y-86893661D01*
X127719218Y-86893141D01*
X127168220Y-87120808D01*
X126746290Y-87542003D01*
X126708920Y-87632000D01*
X125790802Y-87632000D01*
X124767401Y-86608599D01*
X124520839Y-86443852D01*
X124230000Y-86386000D01*
X123833931Y-86386000D01*
X123775090Y-86294559D01*
X123562890Y-86149569D01*
X123311000Y-86098560D01*
X122561000Y-86098560D01*
X122325683Y-86142838D01*
X122109559Y-86281910D01*
X121964569Y-86494110D01*
X121913560Y-86746000D01*
X121913560Y-87546000D01*
X121957838Y-87781317D01*
X122031620Y-87895978D01*
X121964569Y-87994110D01*
X121913560Y-88246000D01*
X121913560Y-89046000D01*
X121957838Y-89281317D01*
X122088857Y-89484926D01*
X121965398Y-89433661D01*
X121369218Y-89433141D01*
X120818220Y-89660808D01*
X120396290Y-90082003D01*
X120379459Y-90122537D01*
X120179805Y-90057800D01*
X119305605Y-90932000D01*
X119319748Y-90946143D01*
X119140143Y-91125748D01*
X119126000Y-91111605D01*
X119111858Y-91125748D01*
X118932253Y-90946143D01*
X118946395Y-90932000D01*
X118932253Y-90917858D01*
X119111858Y-90738253D01*
X119126000Y-90752395D01*
X120000200Y-89878195D01*
X119918259Y-89625484D01*
X119357970Y-89421752D01*
X118762365Y-89447942D01*
X118566000Y-89529279D01*
X118566000Y-77082127D01*
X118826602Y-77190339D01*
X119422782Y-77190859D01*
X119973780Y-76963192D01*
X120395710Y-76541997D01*
X120412541Y-76501463D01*
X120612195Y-76566200D01*
X121486395Y-75692000D01*
X121472253Y-75677858D01*
X121651858Y-75498253D01*
X121666000Y-75512395D01*
X121680143Y-75498253D01*
X121859748Y-75677858D01*
X121859748Y-75677858D01*
G37*
X121859748Y-75677858D02*
X121845605Y-75692000D01*
X121859748Y-75706143D01*
X121680143Y-75885748D01*
X121666000Y-75871605D01*
X120791800Y-76745805D01*
X120873741Y-76998516D01*
X121434030Y-77202248D01*
X122029635Y-77176058D01*
X122458259Y-76998516D01*
X122540199Y-76745807D01*
X122582401Y-76788009D01*
X122582401Y-82483605D01*
X122428176Y-82855018D01*
X122427824Y-83259208D01*
X122582175Y-83632766D01*
X122867731Y-83918821D01*
X123241018Y-84073824D01*
X123645208Y-84074176D01*
X124018766Y-83919825D01*
X124304821Y-83634269D01*
X124459824Y-83260982D01*
X124460176Y-82856792D01*
X124305825Y-82483234D01*
X124102401Y-82279455D01*
X124102401Y-77190510D01*
X124502782Y-77190859D01*
X125053780Y-76963192D01*
X125475710Y-76541997D01*
X125476095Y-76541069D01*
X125896003Y-76961710D01*
X126446602Y-77190339D01*
X126937859Y-77190767D01*
X126746290Y-77382003D01*
X126517661Y-77932602D01*
X126517141Y-78528782D01*
X126744808Y-79079780D01*
X127166003Y-79501710D01*
X127716602Y-79730339D01*
X128312782Y-79730859D01*
X128863780Y-79503192D01*
X129285710Y-79081997D01*
X129286095Y-79081069D01*
X129706003Y-79501710D01*
X130256602Y-79730339D01*
X130852782Y-79730859D01*
X131403780Y-79503192D01*
X131825710Y-79081997D01*
X131826095Y-79081069D01*
X132246003Y-79501710D01*
X132796602Y-79730339D01*
X133392782Y-79730859D01*
X133943780Y-79503192D01*
X134365710Y-79081997D01*
X134366095Y-79081069D01*
X134786003Y-79501710D01*
X135336602Y-79730339D01*
X135932782Y-79730859D01*
X136483780Y-79503192D01*
X136905710Y-79081997D01*
X136906095Y-79081069D01*
X137326003Y-79501710D01*
X137876602Y-79730339D01*
X138472782Y-79730859D01*
X139023780Y-79503192D01*
X139445710Y-79081997D01*
X139446095Y-79081069D01*
X139866003Y-79501710D01*
X140416602Y-79730339D01*
X141012782Y-79730859D01*
X141563780Y-79503192D01*
X141985710Y-79081997D01*
X141986095Y-79081069D01*
X142406003Y-79501710D01*
X142956602Y-79730339D01*
X143552782Y-79730859D01*
X144103780Y-79503192D01*
X144525710Y-79081997D01*
X144526095Y-79081069D01*
X144946003Y-79501710D01*
X145496602Y-79730339D01*
X146092782Y-79730859D01*
X146643780Y-79503192D01*
X147065710Y-79081997D01*
X147294339Y-78531398D01*
X147294859Y-77935218D01*
X147067192Y-77384220D01*
X146873742Y-77190432D01*
X147362782Y-77190859D01*
X147913780Y-76963192D01*
X148335710Y-76541997D01*
X148336095Y-76541069D01*
X148756003Y-76961710D01*
X149306602Y-77190339D01*
X149472808Y-77190484D01*
X149411569Y-77280110D01*
X149360560Y-77532000D01*
X149360560Y-78299460D01*
X148631500Y-78299460D01*
X148396183Y-78343738D01*
X148180059Y-78482810D01*
X148035069Y-78695010D01*
X147984060Y-78946900D01*
X147984060Y-79646900D01*
X148003964Y-79752680D01*
X147844099Y-79859499D01*
X145665000Y-82038598D01*
X145500253Y-82285160D01*
X145442401Y-82575999D01*
X145442401Y-84829560D01*
X144864000Y-84829560D01*
X144628683Y-84873838D01*
X144514022Y-84947620D01*
X144415890Y-84880569D01*
X144164000Y-84829560D01*
X143364000Y-84829560D01*
X143128683Y-84873838D01*
X142912559Y-85012910D01*
X142863836Y-85084218D01*
X142826090Y-85025559D01*
X142613890Y-84880569D01*
X142362000Y-84829560D01*
X141562000Y-84829560D01*
X141326683Y-84873838D01*
X141212022Y-84947620D01*
X141113890Y-84880569D01*
X140862000Y-84829560D01*
X140062000Y-84829560D01*
X139826683Y-84873838D01*
X139610559Y-85012910D01*
X139465569Y-85225110D01*
X139414560Y-85477000D01*
X139414560Y-86227000D01*
X139458838Y-86462317D01*
X139597910Y-86678441D01*
X139810110Y-86823431D01*
X140062000Y-86874440D01*
X140434638Y-86874440D01*
X140453369Y-86893171D01*
X140419218Y-86893141D01*
X139868220Y-87120808D01*
X139446290Y-87542003D01*
X139445905Y-87542931D01*
X139025997Y-87122290D01*
X138475398Y-86893661D01*
X137879218Y-86893141D01*
X137328220Y-87120808D01*
X136906290Y-87542003D01*
X136905905Y-87542931D01*
X136485997Y-87122290D01*
X135935398Y-86893661D01*
X135339218Y-86893141D01*
X134788220Y-87120808D01*
X134366290Y-87542003D01*
X134365905Y-87542931D01*
X133945997Y-87122290D01*
X133856000Y-87084920D01*
X133856000Y-86726000D01*
X133798148Y-86435161D01*
X133633401Y-86188599D01*
X132759401Y-85314599D01*
X132518508Y-85153640D01*
X132436090Y-85025559D01*
X132223890Y-84880569D01*
X131972000Y-84829560D01*
X131172000Y-84829560D01*
X130936683Y-84873838D01*
X130822022Y-84947620D01*
X130723890Y-84880569D01*
X130472000Y-84829560D01*
X129672000Y-84829560D01*
X129436683Y-84873838D01*
X129220559Y-85012910D01*
X129075569Y-85225110D01*
X129024560Y-85477000D01*
X129024560Y-86227000D01*
X129068838Y-86462317D01*
X129207910Y-86678441D01*
X129420110Y-86823431D01*
X129672000Y-86874440D01*
X130044638Y-86874440D01*
X130120610Y-86950412D01*
X129708220Y-87120808D01*
X129286290Y-87542003D01*
X129285905Y-87542931D01*
X128865997Y-87122290D01*
X128315398Y-86893661D01*
X127719218Y-86893141D01*
X127168220Y-87120808D01*
X126746290Y-87542003D01*
X126708920Y-87632000D01*
X125790802Y-87632000D01*
X124767401Y-86608599D01*
X124520839Y-86443852D01*
X124230000Y-86386000D01*
X123833931Y-86386000D01*
X123775090Y-86294559D01*
X123562890Y-86149569D01*
X123311000Y-86098560D01*
X122561000Y-86098560D01*
X122325683Y-86142838D01*
X122109559Y-86281910D01*
X121964569Y-86494110D01*
X121913560Y-86746000D01*
X121913560Y-87546000D01*
X121957838Y-87781317D01*
X122031620Y-87895978D01*
X121964569Y-87994110D01*
X121913560Y-88246000D01*
X121913560Y-89046000D01*
X121957838Y-89281317D01*
X122088857Y-89484926D01*
X121965398Y-89433661D01*
X121369218Y-89433141D01*
X120818220Y-89660808D01*
X120396290Y-90082003D01*
X120379459Y-90122537D01*
X120179805Y-90057800D01*
X119305605Y-90932000D01*
X119319748Y-90946143D01*
X119140143Y-91125748D01*
X119126000Y-91111605D01*
X119111858Y-91125748D01*
X118932253Y-90946143D01*
X118946395Y-90932000D01*
X118932253Y-90917858D01*
X119111858Y-90738253D01*
X119126000Y-90752395D01*
X120000200Y-89878195D01*
X119918259Y-89625484D01*
X119357970Y-89421752D01*
X118762365Y-89447942D01*
X118566000Y-89529279D01*
X118566000Y-77082127D01*
X118826602Y-77190339D01*
X119422782Y-77190859D01*
X119973780Y-76963192D01*
X120395710Y-76541997D01*
X120412541Y-76501463D01*
X120612195Y-76566200D01*
X121486395Y-75692000D01*
X121472253Y-75677858D01*
X121651858Y-75498253D01*
X121666000Y-75512395D01*
X121680143Y-75498253D01*
X121859748Y-75677858D01*
M02*
