M48
;DRILL file {KiCad 4.0.3+e1-6302~38~ubuntu14.04.1-stable} date Mon Aug 29 18:07:45 2016
;FORMAT={2:4/ absolute / inch / suppress trailing zeros}
FMAT,2
INCH,LZ
T1C0.016
T2C0.040
%
G90
G05
M72
T1
X0486Y-0327
X0582Y-0327
X0593Y-0334
T2
X0469Y-0298
X0469Y-0358
X0479Y-0298
X0479Y-0358
X0489Y-0298
X0489Y-0358
X0499Y-0298
X0499Y-0358
X0504Y-0308
X0504Y-0348
X0509Y-0298
X0509Y-0358
X0514Y-0308
X0514Y-0348
X0519Y-0298
X0519Y-0358
X0524Y-0308
X0524Y-0348
X0529Y-0298
X0529Y-0358
X0534Y-0308
X0534Y-0348
X0539Y-0298
X0539Y-0358
X0544Y-0308
X0544Y-0348
X0549Y-0298
X0549Y-0358
X0554Y-0308
X0554Y-0348
X0559Y-0298
X0559Y-0358
X0564Y-0308
X0564Y-0348
X0569Y-0298
X0569Y-0358
X0574Y-0308
X0574Y-0348
X0579Y-0298
X0579Y-0358
X0589Y-0298
X0589Y-0358
X0599Y-0298
X0599Y-0358
T0
M30
